{
	"asset":{
		"generator":"Khronos glTF Blender I/O v4.2.70",
		"version":"2.0"
	},
	"scene":0,
	"scenes":[
		{
			"name":"Scene",
			"nodes":[
				0,
				1,
				2,
				3,
				4,
				5,
				6,
				7,
				8
			]
		}
	],
	"nodes":[
		{
			"mesh":0,
			"name":"Cube",
			"scale":[
				1,
				1.5012028217315674,
				1
			],
			"translation":[
				-0.5466389656066895,
				-0.24672681093215942,
				1.0632097721099854
			]
		},
		{
			"mesh":1,
			"name":"Cube.001",
			"scale":[
				1,
				1.5012028217315674,
				1
			],
			"translation":[
				0.5826199054718018,
				-0.24672681093215942,
				1.0632097721099854
			]
		},
		{
			"mesh":2,
			"name":"Cube.002",
			"scale":[
				1,
				1.5012028217315674,
				1
			],
			"translation":[
				0.5826199054718018,
				-0.24672681093215942,
				-1.4993863105773926
			]
		},
		{
			"mesh":3,
			"name":"Cube.003",
			"scale":[
				1,
				1.5012028217315674,
				1
			],
			"translation":[
				-0.5466389656066895,
				-0.24672681093215942,
				-1.4993863105773926
			]
		},
		{
			"mesh":4,
			"name":"Cube.004",
			"translation":[
				-0.005940251052379608,
				0.6064092516899109,
				-0.3044235110282898
			]
		},
		{
			"mesh":5,
			"name":"Cube.005",
			"rotation":[
				-0.5,
				-0.5,
				0.5,
				0.5
			],
			"translation":[
				-0.003599882125854492,
				1.3758856058120728,
				-2.3138458728790283
			]
		},
		{
			"mesh":6,
			"name":"Cube.006",
			"rotation":[
				-0.5,
				-0.5,
				0.5,
				0.5000000596046448
			],
			"translation":[
				0.023420073091983795,
				1.3498109579086304,
				-2.9098215103149414
			]
		},
		{
			"mesh":7,
			"name":"Cube.007",
			"rotation":[
				-0.5,
				-0.5,
				0.5,
				0.5000000596046448
			],
			"translation":[
				-0.45569464564323425,
				1.6139580011367798,
				-2.813849925994873
			]
		},
		{
			"mesh":8,
			"name":"Cube.008",
			"rotation":[
				-0.5,
				-0.5,
				0.5,
				0.5000000596046448
			],
			"translation":[
				0.4885726869106293,
				1.6139580011367798,
				-2.813849925994873
			]
		}
	],
	"animations":[
		{
			"channels":[
				{
					"sampler":0,
					"target":{
						"node":0,
						"path":"translation"
					}
				},
				{
					"sampler":1,
					"target":{
						"node":0,
						"path":"rotation"
					}
				},
				{
					"sampler":2,
					"target":{
						"node":0,
						"path":"scale"
					}
				},
				{
					"sampler":3,
					"target":{
						"node":1,
						"path":"translation"
					}
				},
				{
					"sampler":4,
					"target":{
						"node":1,
						"path":"rotation"
					}
				},
				{
					"sampler":5,
					"target":{
						"node":1,
						"path":"scale"
					}
				},
				{
					"sampler":6,
					"target":{
						"node":2,
						"path":"translation"
					}
				},
				{
					"sampler":7,
					"target":{
						"node":2,
						"path":"rotation"
					}
				},
				{
					"sampler":8,
					"target":{
						"node":2,
						"path":"scale"
					}
				},
				{
					"sampler":9,
					"target":{
						"node":3,
						"path":"translation"
					}
				},
				{
					"sampler":10,
					"target":{
						"node":3,
						"path":"rotation"
					}
				},
				{
					"sampler":11,
					"target":{
						"node":3,
						"path":"scale"
					}
				},
				{
					"sampler":12,
					"target":{
						"node":4,
						"path":"translation"
					}
				},
				{
					"sampler":13,
					"target":{
						"node":4,
						"path":"rotation"
					}
				},
				{
					"sampler":14,
					"target":{
						"node":4,
						"path":"scale"
					}
				},
				{
					"sampler":15,
					"target":{
						"node":5,
						"path":"translation"
					}
				},
				{
					"sampler":16,
					"target":{
						"node":5,
						"path":"rotation"
					}
				},
				{
					"sampler":17,
					"target":{
						"node":5,
						"path":"scale"
					}
				},
				{
					"sampler":18,
					"target":{
						"node":6,
						"path":"translation"
					}
				},
				{
					"sampler":19,
					"target":{
						"node":6,
						"path":"rotation"
					}
				},
				{
					"sampler":20,
					"target":{
						"node":6,
						"path":"scale"
					}
				},
				{
					"sampler":21,
					"target":{
						"node":7,
						"path":"translation"
					}
				},
				{
					"sampler":22,
					"target":{
						"node":7,
						"path":"rotation"
					}
				},
				{
					"sampler":23,
					"target":{
						"node":7,
						"path":"scale"
					}
				},
				{
					"sampler":24,
					"target":{
						"node":8,
						"path":"translation"
					}
				},
				{
					"sampler":25,
					"target":{
						"node":8,
						"path":"rotation"
					}
				},
				{
					"sampler":26,
					"target":{
						"node":8,
						"path":"scale"
					}
				}
			],
			"name":"Animation",
			"samplers":[
				{
					"input":28,
					"interpolation":"LINEAR",
					"output":29
				},
				{
					"input":28,
					"interpolation":"LINEAR",
					"output":30
				},
				{
					"input":31,
					"interpolation":"LINEAR",
					"output":32
				},
				{
					"input":28,
					"interpolation":"LINEAR",
					"output":33
				},
				{
					"input":28,
					"interpolation":"LINEAR",
					"output":34
				},
				{
					"input":31,
					"interpolation":"LINEAR",
					"output":35
				},
				{
					"input":28,
					"interpolation":"LINEAR",
					"output":36
				},
				{
					"input":28,
					"interpolation":"LINEAR",
					"output":37
				},
				{
					"input":31,
					"interpolation":"LINEAR",
					"output":38
				},
				{
					"input":28,
					"interpolation":"LINEAR",
					"output":39
				},
				{
					"input":28,
					"interpolation":"LINEAR",
					"output":40
				},
				{
					"input":31,
					"interpolation":"LINEAR",
					"output":41
				},
				{
					"input":28,
					"interpolation":"LINEAR",
					"output":42
				},
				{
					"input":31,
					"interpolation":"LINEAR",
					"output":43
				},
				{
					"input":31,
					"interpolation":"LINEAR",
					"output":44
				},
				{
					"input":28,
					"interpolation":"LINEAR",
					"output":45
				},
				{
					"input":31,
					"interpolation":"LINEAR",
					"output":46
				},
				{
					"input":31,
					"interpolation":"LINEAR",
					"output":47
				},
				{
					"input":28,
					"interpolation":"LINEAR",
					"output":48
				},
				{
					"input":31,
					"interpolation":"LINEAR",
					"output":49
				},
				{
					"input":31,
					"interpolation":"LINEAR",
					"output":50
				},
				{
					"input":28,
					"interpolation":"LINEAR",
					"output":51
				},
				{
					"input":31,
					"interpolation":"LINEAR",
					"output":52
				},
				{
					"input":31,
					"interpolation":"LINEAR",
					"output":53
				},
				{
					"input":28,
					"interpolation":"LINEAR",
					"output":54
				},
				{
					"input":31,
					"interpolation":"LINEAR",
					"output":55
				},
				{
					"input":31,
					"interpolation":"LINEAR",
					"output":56
				}
			]
		}
	],
	"meshes":[
		{
			"name":"Cube.001",
			"primitives":[
				{
					"attributes":{
						"POSITION":0,
						"NORMAL":1,
						"TEXCOORD_0":2
					},
					"indices":3
				}
			]
		},
		{
			"name":"Cube.002",
			"primitives":[
				{
					"attributes":{
						"POSITION":4,
						"NORMAL":5,
						"TEXCOORD_0":6
					},
					"indices":3
				}
			]
		},
		{
			"name":"Cube.003",
			"primitives":[
				{
					"attributes":{
						"POSITION":7,
						"NORMAL":8,
						"TEXCOORD_0":9
					},
					"indices":3
				}
			]
		},
		{
			"name":"Cube.004",
			"primitives":[
				{
					"attributes":{
						"POSITION":10,
						"NORMAL":11,
						"TEXCOORD_0":12
					},
					"indices":3
				}
			]
		},
		{
			"name":"Cube.005",
			"primitives":[
				{
					"attributes":{
						"POSITION":13,
						"NORMAL":14,
						"TEXCOORD_0":15
					},
					"indices":3
				}
			]
		},
		{
			"name":"Cube.006",
			"primitives":[
				{
					"attributes":{
						"POSITION":16,
						"NORMAL":17,
						"TEXCOORD_0":18
					},
					"indices":3
				}
			]
		},
		{
			"name":"Cube.007",
			"primitives":[
				{
					"attributes":{
						"POSITION":19,
						"NORMAL":20,
						"TEXCOORD_0":21
					},
					"indices":3
				}
			]
		},
		{
			"name":"Cube.008",
			"primitives":[
				{
					"attributes":{
						"POSITION":22,
						"NORMAL":23,
						"TEXCOORD_0":24
					},
					"indices":3
				}
			]
		},
		{
			"name":"Cube.009",
			"primitives":[
				{
					"attributes":{
						"POSITION":25,
						"NORMAL":26,
						"TEXCOORD_0":27
					},
					"indices":3
				}
			]
		}
	],
	"accessors":[
		{
			"bufferView":0,
			"componentType":5126,
			"count":24,
			"max":[
				0.33541250228881836,
				0.5969810485839844,
				0.301882266998291
			],
			"min":[
				-0.33541250228881836,
				-0.5969810485839844,
				-0.301882266998291
			],
			"type":"VEC3"
		},
		{
			"bufferView":1,
			"componentType":5126,
			"count":24,
			"type":"VEC3"
		},
		{
			"bufferView":2,
			"componentType":5126,
			"count":24,
			"type":"VEC2"
		},
		{
			"bufferView":3,
			"componentType":5123,
			"count":36,
			"type":"SCALAR"
		},
		{
			"bufferView":4,
			"componentType":5126,
			"count":24,
			"max":[
				0.33541250228881836,
				0.5969810485839844,
				0.301882266998291
			],
			"min":[
				-0.33541250228881836,
				-0.5969810485839844,
				-0.301882266998291
			],
			"type":"VEC3"
		},
		{
			"bufferView":5,
			"componentType":5126,
			"count":24,
			"type":"VEC3"
		},
		{
			"bufferView":6,
			"componentType":5126,
			"count":24,
			"type":"VEC2"
		},
		{
			"bufferView":7,
			"componentType":5126,
			"count":24,
			"max":[
				0.33541250228881836,
				0.5969810485839844,
				0.301882266998291
			],
			"min":[
				-0.33541250228881836,
				-0.5969810485839844,
				-0.301882266998291
			],
			"type":"VEC3"
		},
		{
			"bufferView":8,
			"componentType":5126,
			"count":24,
			"type":"VEC3"
		},
		{
			"bufferView":9,
			"componentType":5126,
			"count":24,
			"type":"VEC2"
		},
		{
			"bufferView":10,
			"componentType":5126,
			"count":24,
			"max":[
				0.33541250228881836,
				0.5969810485839844,
				0.301882266998291
			],
			"min":[
				-0.33541250228881836,
				-0.5969810485839844,
				-0.301882266998291
			],
			"type":"VEC3"
		},
		{
			"bufferView":11,
			"componentType":5126,
			"count":24,
			"type":"VEC3"
		},
		{
			"bufferView":12,
			"componentType":5126,
			"count":24,
			"type":"VEC2"
		},
		{
			"bufferView":13,
			"componentType":5126,
			"count":24,
			"max":[
				1.1706974506378174,
				0.6236478090286255,
				1.759331464767456
			],
			"min":[
				-1.1706974506378174,
				-0.6236478090286255,
				-1.759331464767456
			],
			"type":"VEC3"
		},
		{
			"bufferView":14,
			"componentType":5126,
			"count":24,
			"type":"VEC3"
		},
		{
			"bufferView":15,
			"componentType":5126,
			"count":24,
			"type":"VEC2"
		},
		{
			"bufferView":16,
			"componentType":5126,
			"count":24,
			"max":[
				0.4855905771255493,
				0.43548083305358887,
				0.8591711521148682
			],
			"min":[
				-0.4855905771255493,
				-0.43548083305358887,
				-0.8591711521148682
			],
			"type":"VEC3"
		},
		{
			"bufferView":17,
			"componentType":5126,
			"count":24,
			"type":"VEC3"
		},
		{
			"bufferView":18,
			"componentType":5126,
			"count":24,
			"type":"VEC2"
		},
		{
			"bufferView":19,
			"componentType":5126,
			"count":24,
			"max":[
				0.12164187431335449,
				0.1604938507080078,
				0.18744772672653198
			],
			"min":[
				-0.12164187431335449,
				-0.1604938507080078,
				-0.18744772672653198
			],
			"type":"VEC3"
		},
		{
			"bufferView":20,
			"componentType":5126,
			"count":24,
			"type":"VEC3"
		},
		{
			"bufferView":21,
			"componentType":5126,
			"count":24,
			"type":"VEC2"
		},
		{
			"bufferView":22,
			"componentType":5126,
			"count":24,
			"max":[
				0.06868720054626465,
				0.06452226638793945,
				0.09804734587669373
			],
			"min":[
				-0.06868720054626465,
				-0.06452226638793945,
				-0.09804734587669373
			],
			"type":"VEC3"
		},
		{
			"bufferView":23,
			"componentType":5126,
			"count":24,
			"type":"VEC3"
		},
		{
			"bufferView":24,
			"componentType":5126,
			"count":24,
			"type":"VEC2"
		},
		{
			"bufferView":25,
			"componentType":5126,
			"count":24,
			"max":[
				0.06868720054626465,
				0.06452226638793945,
				0.09804734587669373
			],
			"min":[
				-0.06868720054626465,
				-0.06452226638793945,
				-0.09804734587669373
			],
			"type":"VEC3"
		},
		{
			"bufferView":26,
			"componentType":5126,
			"count":24,
			"type":"VEC3"
		},
		{
			"bufferView":27,
			"componentType":5126,
			"count":24,
			"type":"VEC2"
		},
		{
			"bufferView":28,
			"componentType":5126,
			"count":41,
			"max":[
				1.6666666666666667
			],
			"min":[
				0
			],
			"type":"SCALAR"
		},
		{
			"bufferView":29,
			"componentType":5126,
			"count":41,
			"type":"VEC3"
		},
		{
			"bufferView":30,
			"componentType":5126,
			"count":41,
			"type":"VEC4"
		},
		{
			"bufferView":31,
			"componentType":5126,
			"count":2,
			"max":[
				1.6666666666666667
			],
			"min":[
				0
			],
			"type":"SCALAR"
		},
		{
			"bufferView":32,
			"componentType":5126,
			"count":2,
			"type":"VEC3"
		},
		{
			"bufferView":33,
			"componentType":5126,
			"count":41,
			"type":"VEC3"
		},
		{
			"bufferView":34,
			"componentType":5126,
			"count":41,
			"type":"VEC4"
		},
		{
			"bufferView":35,
			"componentType":5126,
			"count":2,
			"type":"VEC3"
		},
		{
			"bufferView":36,
			"componentType":5126,
			"count":41,
			"type":"VEC3"
		},
		{
			"bufferView":37,
			"componentType":5126,
			"count":41,
			"type":"VEC4"
		},
		{
			"bufferView":38,
			"componentType":5126,
			"count":2,
			"type":"VEC3"
		},
		{
			"bufferView":39,
			"componentType":5126,
			"count":41,
			"type":"VEC3"
		},
		{
			"bufferView":40,
			"componentType":5126,
			"count":41,
			"type":"VEC4"
		},
		{
			"bufferView":41,
			"componentType":5126,
			"count":2,
			"type":"VEC3"
		},
		{
			"bufferView":42,
			"componentType":5126,
			"count":41,
			"type":"VEC3"
		},
		{
			"bufferView":43,
			"componentType":5126,
			"count":2,
			"type":"VEC4"
		},
		{
			"bufferView":44,
			"componentType":5126,
			"count":2,
			"type":"VEC3"
		},
		{
			"bufferView":45,
			"componentType":5126,
			"count":41,
			"type":"VEC3"
		},
		{
			"bufferView":46,
			"componentType":5126,
			"count":2,
			"type":"VEC4"
		},
		{
			"bufferView":47,
			"componentType":5126,
			"count":2,
			"type":"VEC3"
		},
		{
			"bufferView":48,
			"componentType":5126,
			"count":41,
			"type":"VEC3"
		},
		{
			"bufferView":49,
			"componentType":5126,
			"count":2,
			"type":"VEC4"
		},
		{
			"bufferView":50,
			"componentType":5126,
			"count":2,
			"type":"VEC3"
		},
		{
			"bufferView":51,
			"componentType":5126,
			"count":41,
			"type":"VEC3"
		},
		{
			"bufferView":52,
			"componentType":5126,
			"count":2,
			"type":"VEC4"
		},
		{
			"bufferView":53,
			"componentType":5126,
			"count":2,
			"type":"VEC3"
		},
		{
			"bufferView":54,
			"componentType":5126,
			"count":41,
			"type":"VEC3"
		},
		{
			"bufferView":55,
			"componentType":5126,
			"count":2,
			"type":"VEC4"
		},
		{
			"bufferView":56,
			"componentType":5126,
			"count":2,
			"type":"VEC3"
		}
	],
	"bufferViews":[
		{
			"buffer":0,
			"byteLength":288,
			"byteOffset":0,
			"target":34962
		},
		{
			"buffer":0,
			"byteLength":288,
			"byteOffset":288,
			"target":34962
		},
		{
			"buffer":0,
			"byteLength":192,
			"byteOffset":576,
			"target":34962
		},
		{
			"buffer":0,
			"byteLength":72,
			"byteOffset":768,
			"target":34963
		},
		{
			"buffer":0,
			"byteLength":288,
			"byteOffset":840,
			"target":34962
		},
		{
			"buffer":0,
			"byteLength":288,
			"byteOffset":1128,
			"target":34962
		},
		{
			"buffer":0,
			"byteLength":192,
			"byteOffset":1416,
			"target":34962
		},
		{
			"buffer":0,
			"byteLength":288,
			"byteOffset":1608,
			"target":34962
		},
		{
			"buffer":0,
			"byteLength":288,
			"byteOffset":1896,
			"target":34962
		},
		{
			"buffer":0,
			"byteLength":192,
			"byteOffset":2184,
			"target":34962
		},
		{
			"buffer":0,
			"byteLength":288,
			"byteOffset":2376,
			"target":34962
		},
		{
			"buffer":0,
			"byteLength":288,
			"byteOffset":2664,
			"target":34962
		},
		{
			"buffer":0,
			"byteLength":192,
			"byteOffset":2952,
			"target":34962
		},
		{
			"buffer":0,
			"byteLength":288,
			"byteOffset":3144,
			"target":34962
		},
		{
			"buffer":0,
			"byteLength":288,
			"byteOffset":3432,
			"target":34962
		},
		{
			"buffer":0,
			"byteLength":192,
			"byteOffset":3720,
			"target":34962
		},
		{
			"buffer":0,
			"byteLength":288,
			"byteOffset":3912,
			"target":34962
		},
		{
			"buffer":0,
			"byteLength":288,
			"byteOffset":4200,
			"target":34962
		},
		{
			"buffer":0,
			"byteLength":192,
			"byteOffset":4488,
			"target":34962
		},
		{
			"buffer":0,
			"byteLength":288,
			"byteOffset":4680,
			"target":34962
		},
		{
			"buffer":0,
			"byteLength":288,
			"byteOffset":4968,
			"target":34962
		},
		{
			"buffer":0,
			"byteLength":192,
			"byteOffset":5256,
			"target":34962
		},
		{
			"buffer":0,
			"byteLength":288,
			"byteOffset":5448,
			"target":34962
		},
		{
			"buffer":0,
			"byteLength":288,
			"byteOffset":5736,
			"target":34962
		},
		{
			"buffer":0,
			"byteLength":192,
			"byteOffset":6024,
			"target":34962
		},
		{
			"buffer":0,
			"byteLength":288,
			"byteOffset":6216,
			"target":34962
		},
		{
			"buffer":0,
			"byteLength":288,
			"byteOffset":6504,
			"target":34962
		},
		{
			"buffer":0,
			"byteLength":192,
			"byteOffset":6792,
			"target":34962
		},
		{
			"buffer":0,
			"byteLength":164,
			"byteOffset":6984
		},
		{
			"buffer":0,
			"byteLength":492,
			"byteOffset":7148
		},
		{
			"buffer":0,
			"byteLength":656,
			"byteOffset":7640
		},
		{
			"buffer":0,
			"byteLength":8,
			"byteOffset":8296
		},
		{
			"buffer":0,
			"byteLength":24,
			"byteOffset":8304
		},
		{
			"buffer":0,
			"byteLength":492,
			"byteOffset":8328
		},
		{
			"buffer":0,
			"byteLength":656,
			"byteOffset":8820
		},
		{
			"buffer":0,
			"byteLength":24,
			"byteOffset":9476
		},
		{
			"buffer":0,
			"byteLength":492,
			"byteOffset":9500
		},
		{
			"buffer":0,
			"byteLength":656,
			"byteOffset":9992
		},
		{
			"buffer":0,
			"byteLength":24,
			"byteOffset":10648
		},
		{
			"buffer":0,
			"byteLength":492,
			"byteOffset":10672
		},
		{
			"buffer":0,
			"byteLength":656,
			"byteOffset":11164
		},
		{
			"buffer":0,
			"byteLength":24,
			"byteOffset":11820
		},
		{
			"buffer":0,
			"byteLength":492,
			"byteOffset":11844
		},
		{
			"buffer":0,
			"byteLength":32,
			"byteOffset":12336
		},
		{
			"buffer":0,
			"byteLength":24,
			"byteOffset":12368
		},
		{
			"buffer":0,
			"byteLength":492,
			"byteOffset":12392
		},
		{
			"buffer":0,
			"byteLength":32,
			"byteOffset":12884
		},
		{
			"buffer":0,
			"byteLength":24,
			"byteOffset":12916
		},
		{
			"buffer":0,
			"byteLength":492,
			"byteOffset":12940
		},
		{
			"buffer":0,
			"byteLength":32,
			"byteOffset":13432
		},
		{
			"buffer":0,
			"byteLength":24,
			"byteOffset":13464
		},
		{
			"buffer":0,
			"byteLength":492,
			"byteOffset":13488
		},
		{
			"buffer":0,
			"byteLength":32,
			"byteOffset":13980
		},
		{
			"buffer":0,
			"byteLength":24,
			"byteOffset":14012
		},
		{
			"buffer":0,
			"byteLength":492,
			"byteOffset":14036
		},
		{
			"buffer":0,
			"byteLength":32,
			"byteOffset":14528
		},
		{
			"buffer":0,
			"byteLength":24,
			"byteOffset":14560
		}
	],
	"buffers":[
		{
			"byteLength":14584,
			"uri":"data:application/octet-stream;base64,"
		}
	]
}
