{
	"asset":{
		"generator":"Khronos glTF Blender I/O v4.2.70",
		"version":"2.0"
	},
	"scene":0,
	"scenes":[
		{
			"name":"Scene",
			"nodes":[
				0,
				1,
				2
			]
		}
	],
	"nodes":[
		{
			"mesh":0,
			"name":"Cube",
			"translation":[
				-0.0474245548248291,
				0.3388681411743164,
				-0.2888341546058655
			]
		},
		{
			"mesh":1,
			"name":"Cube.001",
			"rotation":[
				0,
				0.1736481636762619,
				0,
				0.9848077893257141
			],
			"translation":[
				-0.049160003662109375,
				0.3389270305633545,
				-1.5632233619689941
			]
		},
		{
			"mesh":2,
			"name":"Cube.002",
			"rotation":[
				0,
				0.08715575188398361,
				0,
				0.9961947202682495
			],
			"translation":[
				-0.0474245548248291,
				0.3388681411743164,
				-0.2888341546058655
			]
		}
	],
	"animations":[
		{
			"channels":[
				{
					"sampler":0,
					"target":{
						"node":0,
						"path":"translation"
					}
				},
				{
					"sampler":1,
					"target":{
						"node":0,
						"path":"rotation"
					}
				},
				{
					"sampler":2,
					"target":{
						"node":0,
						"path":"scale"
					}
				},
				{
					"sampler":3,
					"target":{
						"node":1,
						"path":"translation"
					}
				},
				{
					"sampler":4,
					"target":{
						"node":1,
						"path":"rotation"
					}
				},
				{
					"sampler":5,
					"target":{
						"node":1,
						"path":"scale"
					}
				},
				{
					"sampler":6,
					"target":{
						"node":2,
						"path":"translation"
					}
				},
				{
					"sampler":7,
					"target":{
						"node":2,
						"path":"rotation"
					}
				},
				{
					"sampler":8,
					"target":{
						"node":2,
						"path":"scale"
					}
				}
			],
			"name":"Animation",
			"samplers":[
				{
					"input":12,
					"interpolation":"LINEAR",
					"output":13
				},
				{
					"input":12,
					"interpolation":"LINEAR",
					"output":14
				},
				{
					"input":12,
					"interpolation":"LINEAR",
					"output":15
				},
				{
					"input":12,
					"interpolation":"LINEAR",
					"output":16
				},
				{
					"input":17,
					"interpolation":"LINEAR",
					"output":18
				},
				{
					"input":12,
					"interpolation":"LINEAR",
					"output":19
				},
				{
					"input":12,
					"interpolation":"LINEAR",
					"output":20
				},
				{
					"input":17,
					"interpolation":"LINEAR",
					"output":21
				},
				{
					"input":12,
					"interpolation":"LINEAR",
					"output":22
				}
			]
		}
	],
	"meshes":[
		{
			"name":"Cube.001",
			"primitives":[
				{
					"attributes":{
						"POSITION":0,
						"NORMAL":1,
						"TEXCOORD_0":2
					},
					"indices":3
				}
			]
		},
		{
			"name":"Cube.002",
			"primitives":[
				{
					"attributes":{
						"POSITION":4,
						"NORMAL":5,
						"TEXCOORD_0":6
					},
					"indices":7
				}
			]
		},
		{
			"name":"Cube.003",
			"primitives":[
				{
					"attributes":{
						"POSITION":8,
						"NORMAL":9,
						"TEXCOORD_0":10
					},
					"indices":11
				}
			]
		}
	],
	"accessors":[
		{
			"bufferView":0,
			"componentType":5126,
			"count":32,
			"max":[
				0.18574309349060059,
				0.3388681411743164,
				0
			],
			"min":[
				-0.18574309349060059,
				-0.3388681411743164,
				-1.2781425714492798
			],
			"type":"VEC3"
		},
		{
			"bufferView":1,
			"componentType":5126,
			"count":32,
			"type":"VEC3"
		},
		{
			"bufferView":2,
			"componentType":5126,
			"count":32,
			"type":"VEC2"
		},
		{
			"bufferView":3,
			"componentType":5123,
			"count":42,
			"type":"SCALAR"
		},
		{
			"bufferView":4,
			"componentType":5126,
			"count":21,
			"max":[
				0.18747854232788086,
				0.3388092517852783,
				-0.00016427040100097656
			],
			"min":[
				-0.1840076446533203,
				-0.3389270305633545,
				-0.426211953163147
			],
			"type":"VEC3"
		},
		{
			"bufferView":5,
			"componentType":5126,
			"count":21,
			"type":"VEC3"
		},
		{
			"bufferView":6,
			"componentType":5126,
			"count":21,
			"type":"VEC2"
		},
		{
			"bufferView":7,
			"componentType":5123,
			"count":30,
			"type":"SCALAR"
		},
		{
			"bufferView":8,
			"componentType":5126,
			"count":32,
			"max":[
				0.18574309349060059,
				0.3388681411743164,
				0.9299103617668152
			],
			"min":[
				-0.18574309349060059,
				-0.3388681411743164,
				0
			],
			"type":"VEC3"
		},
		{
			"bufferView":9,
			"componentType":5126,
			"count":32,
			"type":"VEC3"
		},
		{
			"bufferView":10,
			"componentType":5126,
			"count":32,
			"type":"VEC2"
		},
		{
			"bufferView":11,
			"componentType":5123,
			"count":42,
			"type":"SCALAR"
		},
		{
			"bufferView":12,
			"componentType":5126,
			"count":2,
			"max":[
				1.6666666666666667
			],
			"min":[
				0
			],
			"type":"SCALAR"
		},
		{
			"bufferView":13,
			"componentType":5126,
			"count":2,
			"type":"VEC3"
		},
		{
			"bufferView":14,
			"componentType":5126,
			"count":2,
			"type":"VEC4"
		},
		{
			"bufferView":15,
			"componentType":5126,
			"count":2,
			"type":"VEC3"
		},
		{
			"bufferView":16,
			"componentType":5126,
			"count":2,
			"type":"VEC3"
		},
		{
			"bufferView":17,
			"componentType":5126,
			"count":41,
			"max":[
				1.6666666666666667
			],
			"min":[
				0
			],
			"type":"SCALAR"
		},
		{
			"bufferView":18,
			"componentType":5126,
			"count":41,
			"type":"VEC4"
		},
		{
			"bufferView":19,
			"componentType":5126,
			"count":2,
			"type":"VEC3"
		},
		{
			"bufferView":20,
			"componentType":5126,
			"count":2,
			"type":"VEC3"
		},
		{
			"bufferView":21,
			"componentType":5126,
			"count":41,
			"type":"VEC4"
		},
		{
			"bufferView":22,
			"componentType":5126,
			"count":2,
			"type":"VEC3"
		}
	],
	"bufferViews":[
		{
			"buffer":0,
			"byteLength":384,
			"byteOffset":0,
			"target":34962
		},
		{
			"buffer":0,
			"byteLength":384,
			"byteOffset":384,
			"target":34962
		},
		{
			"buffer":0,
			"byteLength":256,
			"byteOffset":768,
			"target":34962
		},
		{
			"buffer":0,
			"byteLength":84,
			"byteOffset":1024,
			"target":34963
		},
		{
			"buffer":0,
			"byteLength":252,
			"byteOffset":1108,
			"target":34962
		},
		{
			"buffer":0,
			"byteLength":252,
			"byteOffset":1360,
			"target":34962
		},
		{
			"buffer":0,
			"byteLength":168,
			"byteOffset":1612,
			"target":34962
		},
		{
			"buffer":0,
			"byteLength":60,
			"byteOffset":1780,
			"target":34963
		},
		{
			"buffer":0,
			"byteLength":384,
			"byteOffset":1840,
			"target":34962
		},
		{
			"buffer":0,
			"byteLength":384,
			"byteOffset":2224,
			"target":34962
		},
		{
			"buffer":0,
			"byteLength":256,
			"byteOffset":2608,
			"target":34962
		},
		{
			"buffer":0,
			"byteLength":84,
			"byteOffset":2864,
			"target":34963
		},
		{
			"buffer":0,
			"byteLength":8,
			"byteOffset":2948
		},
		{
			"buffer":0,
			"byteLength":24,
			"byteOffset":2956
		},
		{
			"buffer":0,
			"byteLength":32,
			"byteOffset":2980
		},
		{
			"buffer":0,
			"byteLength":24,
			"byteOffset":3012
		},
		{
			"buffer":0,
			"byteLength":24,
			"byteOffset":3036
		},
		{
			"buffer":0,
			"byteLength":164,
			"byteOffset":3060
		},
		{
			"buffer":0,
			"byteLength":656,
			"byteOffset":3224
		},
		{
			"buffer":0,
			"byteLength":24,
			"byteOffset":3880
		},
		{
			"buffer":0,
			"byteLength":24,
			"byteOffset":3904
		},
		{
			"buffer":0,
			"byteLength":656,
			"byteOffset":3928
		},
		{
			"buffer":0,
			"byteLength":24,
			"byteOffset":4584
		}
	],
	"buffers":[
		{
			"byteLength":4608,
			"uri":"data:application/octet-stream;base64,"
		}
	]
}
