# Blender 4.3.2
# www.blender.org
mtllib flower_2.mtl
o flower_2
v -0.030000 -0.500000 0.030000
v -0.010743 0.308298 0.010743
v -0.030000 -0.500000 -0.030000
v -0.010743 0.308298 -0.010743
v 0.030000 -0.500000 0.030000
v 0.010743 0.308298 0.010743
v 0.030000 -0.500000 -0.030000
v 0.010743 0.308298 -0.010743
v 0.021867 0.166767 0.030000
v 0.024092 0.249829 0.010743
v 0.021867 0.166767 -0.030000
v 0.024092 0.249829 -0.010743
v 0.080585 0.179104 0.030000
v 0.045119 0.254247 0.010743
v 0.080585 0.179104 -0.030000
v 0.045119 0.254247 -0.010743
v 0.022075 0.262525 0.010743
v 0.022075 0.262525 -0.010743
v 0.034869 0.279787 -0.010743
v 0.034869 0.279787 0.010743
v 0.006560 0.271663 0.010743
v 0.006560 0.271663 -0.010743
v 0.006296 0.293148 -0.010743
v 0.006296 0.293148 0.010743
v 0.027571 0.248736 -0.007563
v 0.027571 0.248736 0.007563
v 0.042374 0.251847 -0.007563
v 0.042374 0.251847 0.007563
v -0.042156 -0.037500 -0.001268
v -0.029672 0.045562 0.013562
v 0.001495 -0.037500 0.039897
v -0.014041 0.045562 0.028304
v -0.082442 -0.025162 0.041450
v -0.044099 0.049981 0.028860
v -0.038790 -0.025162 0.082615
v -0.028467 0.049981 0.043601
v -0.028289 0.058258 0.012095
v -0.012657 0.058258 0.026837
v -0.021435 0.075521 0.036144
v -0.037067 0.075521 0.021403
v -0.017644 0.067397 0.000808
v -0.002012 0.067397 0.015549
v -0.001831 0.088881 0.015357
v -0.017463 0.088881 0.000615
v -0.018741 0.044470 0.028653
v -0.029746 0.044470 0.018275
v -0.028897 0.047580 0.039422
v -0.039902 0.047580 0.029044
v 0.021379 -0.004354 0.034155
v 0.026501 0.078709 0.015459
v 0.030487 -0.004354 -0.025150
v 0.029762 0.078709 -0.005779
v 0.079417 0.007984 0.043068
v 0.047284 0.083127 0.018651
v 0.088524 0.007984 -0.016237
v 0.050546 0.083127 -0.002587
v 0.024508 0.091404 0.015153
v 0.027769 0.091404 -0.006085
v 0.040415 0.108667 -0.004143
v 0.037153 0.108667 0.017095
v 0.009173 0.100543 0.012798
v 0.012434 0.100543 -0.008440
v 0.012173 0.122028 -0.008480
v 0.008911 0.122028 0.012758
v 0.032718 0.077616 -0.002107
v 0.030422 0.077616 0.012844
v 0.047350 0.080727 0.000140
v 0.045054 0.080727 0.015091
v 0.001375 0.141476 -0.037450
v -0.011927 0.224538 -0.023348
v -0.034516 0.141476 0.010632
v -0.024780 0.224538 -0.006130
v -0.045679 0.153813 -0.072573
v -0.028777 0.228956 -0.035927
v -0.081570 0.153813 -0.024492
v -0.041630 0.228956 -0.018708
v -0.010311 0.237234 -0.022142
v -0.023164 0.237234 -0.004924
v -0.033416 0.254496 -0.012577
v -0.020563 0.254496 -0.029795
v 0.002122 0.246372 -0.012862
v -0.010731 0.246372 0.004357
v -0.010519 0.267857 0.004515
v 0.002334 0.267857 -0.012703
v -0.025665 0.223446 -0.010760
v -0.016617 0.223446 -0.022881
v -0.037528 0.226556 -0.019615
v -0.028480 0.226556 -0.031736
v 0.036592 -0.176318 -0.026614
v 0.017641 -0.093256 -0.030695
v -0.023125 -0.176318 -0.032431
v -0.003744 -0.093256 -0.032778
v 0.042285 -0.163980 -0.085055
v 0.019680 -0.088838 -0.051623
v -0.017433 -0.163980 -0.090872
v -0.001705 -0.088838 -0.053706
v 0.017446 -0.080560 -0.028688
v -0.003939 -0.080560 -0.030771
v -0.002699 -0.063298 -0.043505
v 0.018686 -0.063298 -0.041421
v 0.015942 -0.071422 -0.013246
v -0.005443 -0.071422 -0.015329
v -0.005469 -0.049937 -0.015066
v 0.015916 -0.049937 -0.012983
v -0.000241 -0.094348 -0.035932
v 0.014814 -0.094348 -0.034466
v 0.001194 -0.091238 -0.050665
v 0.016249 -0.091238 -0.049199
v 0.008775 -0.152687 0.041153
v 0.020854 -0.069625 0.025991
v 0.040529 -0.152687 -0.009756
v 0.032225 -0.069625 0.007760
v 0.058595 -0.140350 0.072228
v 0.038695 -0.065207 0.037119
v 0.090350 -0.140350 0.021320
v 0.050066 -0.065207 0.018889
v 0.019143 -0.056929 0.024924
v 0.030514 -0.056929 0.006693
v 0.041369 -0.039667 0.013464
v 0.029998 -0.039667 0.031695
v 0.005979 -0.047791 0.016713
v 0.017350 -0.047791 -0.001518
v 0.017126 -0.026306 -0.001658
v 0.005754 -0.026306 0.016573
v 0.033494 -0.070718 0.012300
v 0.025489 -0.070718 0.025134
v 0.046054 -0.067607 0.020134
v 0.038048 -0.067607 0.032968
v 0.020921 0.021415 -0.038912
v 0.001777 0.104478 -0.035867
v -0.036861 0.021415 -0.022749
v -0.018915 0.104478 -0.030079
v 0.005103 0.033753 -0.095460
v -0.003888 0.108896 -0.056117
v -0.052679 0.033753 -0.079296
v -0.024580 0.108896 -0.050329
v 0.002320 0.117173 -0.033925
v -0.018372 0.117173 -0.028137
v -0.021819 0.134436 -0.040458
v -0.001127 0.134436 -0.046246
v 0.006500 0.126312 -0.018984
v -0.014193 0.126312 -0.013196
v -0.014121 0.147797 -0.012941
v 0.006571 0.147797 -0.018729
v -0.016790 0.103385 -0.034286
v -0.002223 0.103385 -0.038361
v -0.020778 0.106495 -0.048542
v -0.006211 0.106495 -0.052617
v -0.035710 0.176940 -0.001103
v -0.021392 0.260002 0.011965
v 0.012956 0.176940 0.033992
v -0.003964 0.260002 0.024532
v -0.070054 0.189277 0.046523
v -0.033691 0.264420 0.029020
v -0.021388 0.189277 0.081618
v -0.016263 0.264420 0.041588
v -0.020212 0.272698 0.010329
v -0.002784 0.272698 0.022897
v -0.010268 0.289960 0.033274
v -0.027695 0.289960 0.020706
v -0.011137 0.281836 -0.002255
v 0.006290 0.281836 0.010313
v 0.006445 0.303321 0.010098
v -0.010983 0.303321 -0.002469
v -0.008578 0.258910 0.025494
v -0.020847 0.258910 0.016647
v -0.017237 0.262020 0.037501
v -0.029505 0.262020 0.028653
v -0.029895 -0.199721 -0.028822
v -0.031367 -0.116659 -0.009493
v -0.027557 -0.199721 0.031133
v -0.030530 -0.116659 0.011977
v -0.088568 -0.187383 -0.026534
v -0.052378 -0.112240 -0.008674
v -0.086230 -0.187383 0.033420
v -0.051541 -0.112240 0.012796
v -0.029352 -0.103963 -0.009571
v -0.028515 -0.103963 0.011899
v -0.041299 -0.086700 0.012397
v -0.042136 -0.086700 -0.009073
v -0.013849 -0.094824 -0.010176
v -0.013012 -0.094824 0.011294
v -0.012748 -0.073340 0.011284
v -0.013585 -0.073340 -0.010186
v -0.034130 -0.117751 0.008935
v -0.034720 -0.117751 -0.006180
v -0.048922 -0.114641 0.009512
v -0.049511 -0.114641 -0.005603
vn -0.9997 0.0238 -0.0000
vn -0.0000 0.0238 -0.9997
vn 0.9997 0.0238 -0.0000
vn -0.0000 0.0238 0.9997
vn -0.0000 -1.0000 -0.0000
vn -0.0000 1.0000 -0.0000
vn -0.9996 0.0268 -0.0000
vn -0.0477 0.2268 -0.9728
vn 0.9043 0.4268 -0.0000
vn -0.0477 0.2268 0.9728
vn 0.0561 -0.2672 0.9620
vn -0.9876 -0.1569 -0.0000
vn -0.0000 -0.0000 1.0000
vn -0.0000 -0.0000 -1.0000
vn 0.9281 0.3725 -0.0000
vn -0.9999 -0.0123 -0.0000
vn 0.4236 0.9059 -0.0000
vn -0.5075 -0.8617 -0.0000
vn 0.2057 -0.9786 -0.0000
vn 0.9976 -0.0694 -0.0000
vn -0.8853 -0.4650 -0.0000
vn 0.0561 -0.2672 -0.9620
vn 0.6858 0.0268 -0.7273
vn 0.7404 0.2268 0.6327
vn -0.6204 0.4268 0.6579
vn -0.6750 0.2268 -0.7021
vn -0.7384 -0.2672 -0.6192
vn 0.6776 -0.1569 -0.7185
vn -0.7275 -0.0000 -0.6861
vn 0.7275 -0.0000 0.6861
vn -0.6367 0.3724 0.6752
vn 0.6860 -0.0123 -0.7275
vn -0.2906 0.9059 0.3081
vn 0.3482 -0.8616 -0.3692
vn -0.1411 -0.9786 0.1496
vn -0.6844 -0.0694 0.7258
vn 0.6074 -0.4650 -0.6441
vn 0.6613 -0.2672 0.7009
vn -0.9881 0.0268 -0.1517
vn 0.1006 0.2268 -0.9687
vn 0.8939 0.4268 0.1373
vn -0.1948 0.2268 0.9543
vn -0.0905 -0.2672 0.9594
vn -0.9762 -0.1569 -0.1499
vn -0.1518 -0.0000 0.9884
vn 0.1518 -0.0000 -0.9884
vn 0.9173 0.3724 0.1409
vn -0.9883 -0.0123 -0.1518
vn 0.4187 0.9059 0.0643
vn -0.5017 -0.8616 -0.0770
vn 0.2033 -0.9786 0.0312
vn 0.9860 -0.0694 0.1514
vn -0.8750 -0.4650 -0.1344
vn 0.2015 -0.2672 -0.9423
vn 0.8011 0.0268 0.5980
vn -0.5437 0.2268 0.8080
vn -0.7247 0.4268 -0.5410
vn 0.6201 0.2268 -0.7510
vn 0.5305 -0.2672 -0.8045
vn 0.7914 -0.1569 0.5908
vn 0.5982 -0.0000 -0.8014
vn 0.5982 -0.0000 -0.8013
vn -0.5982 -0.0000 0.8014
vn -0.7437 0.3725 -0.5551
vn 0.8013 -0.0123 0.5981
vn -0.3394 0.9059 -0.2534
vn 0.4067 -0.8617 0.3036
vn -0.1648 -0.9786 -0.1230
vn -0.7994 -0.0694 -0.5967
vn 0.7094 -0.4650 0.5296
vn -0.6204 -0.2672 0.7373
vn -0.0969 0.0268 0.9949
vn -0.9728 0.2268 -0.0469
vn 0.0877 0.4268 -0.9001
vn 0.9636 0.2268 0.1418
vn 0.9629 -0.2672 0.0374
vn -0.0957 -0.1569 0.9830
vn 0.9953 -0.0000 0.0969
vn -0.9953 -0.0000 -0.0969
vn 0.0900 0.3724 -0.9237
vn -0.0969 -0.0123 0.9952
vn 0.0411 0.9059 -0.4216
vn -0.0492 -0.8617 0.5051
vn 0.0199 -0.9786 -0.2046
vn 0.0967 -0.0694 -0.9929
vn -0.0858 -0.4650 0.8811
vn -0.9520 -0.2672 -0.1492
vn -0.8482 0.0268 -0.5290
vn 0.4744 0.2268 -0.8506
vn 0.7673 0.4268 0.4786
vn -0.5553 0.2268 0.8002
vn -0.4615 -0.2672 0.8459
vn -0.8380 -0.1569 -0.5227
vn -0.5292 -0.0000 0.8485
vn 0.5293 -0.0000 -0.8485
vn 0.5292 -0.0000 -0.8485
vn 0.7874 0.3725 0.4911
vn -0.8484 -0.0123 -0.5292
vn 0.3594 0.9059 0.2242
vn -0.4306 -0.8617 -0.2686
vn 0.1745 -0.9786 0.1089
vn 0.8464 -0.0694 0.5280
vn -0.7511 -0.4650 -0.4685
vn 0.5568 -0.2672 -0.7865
vn 0.2693 0.0268 0.9627
vn -0.9240 0.2268 0.3080
vn -0.2436 0.4268 -0.8709
vn 0.9496 0.2268 -0.2162
vn 0.9113 -0.2672 -0.3132
vn 0.2660 -0.1569 0.9511
vn 0.9630 -0.0000 -0.2694
vn -0.9630 -0.0000 0.2694
vn -0.2500 0.3725 -0.8937
vn 0.2694 -0.0123 0.9630
vn -0.1141 0.9059 -0.4079
vn 0.1367 -0.8616 0.4888
vn -0.0554 -0.9786 -0.1980
vn -0.2687 -0.0694 -0.9607
vn 0.2385 -0.4650 0.8526
vn -0.9416 -0.2672 0.2051
vn 0.5847 0.0268 -0.8108
vn 0.8169 0.2268 0.5303
vn -0.5290 0.4268 0.7335
vn -0.7611 0.2268 -0.6076
vn -0.8131 -0.2672 -0.5171
vn 0.5777 -0.1569 -0.8011
vn -0.8111 -0.0000 -0.5849
vn 0.8111 -0.0000 0.5849
vn -0.5428 0.3725 0.7527
vn 0.5849 -0.0123 -0.8110
vn -0.2478 0.9059 0.3436
vn 0.2969 -0.8616 -0.4116
vn -0.1203 -0.9786 0.1668
vn -0.5835 -0.0694 0.8091
vn 0.5178 -0.4650 -0.7180
vn 0.7474 -0.2672 0.6082
vn 0.9989 0.0268 -0.0389
vn 0.0855 0.2268 0.9702
vn -0.9036 0.4268 0.0352
vn 0.0097 0.2268 -0.9739
vn -0.0936 -0.2672 -0.9591
vn 0.9869 -0.1569 -0.0385
vn -0.0389 -0.0000 -0.9992
vn -0.0390 -0.0000 -0.9992
vn 0.0389 -0.0000 0.9992
vn 0.0390 -0.0000 0.9992
vn -0.9273 0.3724 0.0362
vn 0.9992 -0.0123 -0.0390
vn -0.4232 0.9059 0.0165
vn 0.5072 -0.8616 -0.0198
vn -0.2055 -0.9786 0.0080
vn -0.9968 -0.0694 0.0389
vn 0.8846 -0.4650 -0.0345
vn -0.0186 -0.2672 0.9635
vt 0.000000 0.461622
vt 0.106982 0.000000
vt 0.226351 0.000000
vt 0.333333 0.461622
vt 0.440316 0.000000
vt 0.559684 0.000000
vt 0.666667 0.461622
vt 0.000000 0.923245
vt 0.106982 0.461622
vt 0.226351 0.461622
vt 0.333333 0.923245
vt 0.440316 0.461622
vt 0.559684 0.461622
vt 0.666667 0.923245
vt 1.000000 0.000000
vt 1.000000 0.333333
vt 0.666667 0.333333
vt 0.666667 0.000000
vt 0.786035 0.333333
vt 0.786035 0.452702
vt 0.666667 0.452702
vt 0.375000 0.000000
vt 0.625000 0.000000
vt 0.625000 0.250000
vt 0.375000 0.250000
vt 0.625000 0.500000
vt 0.375000 0.500000
vt 0.625000 0.750000
vt 0.375000 0.750000
vt 0.625000 1.000000
vt 0.375000 1.000000
vt 0.875000 0.500000
vt 0.875000 0.750000
vt 0.125000 0.500000
vt 0.125000 0.750000
s 1
g flower_2_Stem
usemtl Stem
f 1/1/1 2/2/1 4/3/1 3/4/1
f 3/4/2 4/5/2 8/6/2 7/7/2
f 7/8/3 8/9/3 6/10/3 5/11/3
f 5/11/4 6/12/4 2/13/4 1/14/4
f 3/15/5 7/16/5 5/17/5 1/18/5
f 8/19/6 4/20/6 2/21/6 6/17/6
g flower_2_Flower
usemtl Flower
f 9/22/7 10/23/7 12/24/7 11/25/7
f 11/25/8 12/24/8 16/26/8 15/27/8
f 15/27/9 16/26/9 14/28/9 13/29/9
f 13/29/10 14/28/10 10/30/10 9/31/10
f 11/25/11 15/27/11 27/27/11 25/25/11
f 12/24/12 10/23/12 17/23/12 18/24/12
f 17/30/13 20/28/13 24/28/13 21/30/13
f 10/30/13 14/28/13 20/28/13 17/30/13
f 16/26/14 12/24/14 18/24/14 19/26/14
f 14/28/15 16/26/15 19/26/15 20/28/15
f 23/26/16 22/32/16 21/33/16 24/28/16
f 19/26/14 18/24/14 22/24/14 23/26/14
f 20/28/17 19/26/17 23/26/17 24/28/17
f 18/24/18 17/23/18 21/23/18 22/24/18
f 25/34/19 27/27/19 28/29/19 26/35/19
f 9/22/20 11/25/20 25/25/20 26/22/20
f 15/27/21 13/29/21 28/29/21 27/27/21
f 13/29/22 9/31/22 26/31/22 28/29/22
f 29/22/23 30/23/23 32/24/23 31/25/23
f 31/25/24 32/24/24 36/26/24 35/27/24
f 35/27/25 36/26/25 34/28/25 33/29/25
f 33/29/26 34/28/26 30/30/26 29/31/26
f 31/25/27 35/27/27 47/27/27 45/25/27
f 32/24/28 30/23/28 37/23/28 38/24/28
f 37/30/29 40/28/29 44/28/29 41/30/29
f 30/30/29 34/28/29 40/28/29 37/30/29
f 36/26/30 32/24/30 38/24/30 39/26/30
f 34/28/31 36/26/31 39/26/31 40/28/31
f 43/26/32 42/32/32 41/33/32 44/28/32
f 39/26/30 38/24/30 42/24/30 43/26/30
f 40/28/33 39/26/33 43/26/33 44/28/33
f 38/24/34 37/23/34 41/23/34 42/24/34
f 45/34/35 47/27/35 48/29/35 46/35/35
f 29/22/36 31/25/36 45/25/36 46/22/36
f 35/27/37 33/29/37 48/29/37 47/27/37
f 33/29/38 29/31/38 46/31/38 48/29/38
f 49/22/39 50/23/39 52/24/39 51/25/39
f 51/25/40 52/24/40 56/26/40 55/27/40
f 55/27/41 56/26/41 54/28/41 53/29/41
f 53/29/42 54/28/42 50/30/42 49/31/42
f 51/25/43 55/27/43 67/27/43 65/25/43
f 52/24/44 50/23/44 57/23/44 58/24/44
f 57/30/45 60/28/45 64/28/45 61/30/45
f 50/30/45 54/28/45 60/28/45 57/30/45
f 56/26/46 52/24/46 58/24/46 59/26/46
f 54/28/47 56/26/47 59/26/47 60/28/47
f 63/26/48 62/32/48 61/33/48 64/28/48
f 59/26/46 58/24/46 62/24/46 63/26/46
f 60/28/49 59/26/49 63/26/49 64/28/49
f 58/24/50 57/23/50 61/23/50 62/24/50
f 65/34/51 67/27/51 68/29/51 66/35/51
f 49/22/52 51/25/52 65/25/52 66/22/52
f 55/27/53 53/29/53 68/29/53 67/27/53
f 53/29/54 49/31/54 66/31/54 68/29/54
f 69/22/55 70/23/55 72/24/55 71/25/55
f 71/25/56 72/24/56 76/26/56 75/27/56
f 75/27/57 76/26/57 74/28/57 73/29/57
f 73/29/58 74/28/58 70/30/58 69/31/58
f 71/25/59 75/27/59 87/27/59 85/25/59
f 72/24/60 70/23/60 77/23/60 78/24/60
f 77/30/61 80/28/61 84/28/61 81/30/61
f 70/30/62 74/28/62 80/28/61 77/30/61
f 76/26/63 72/24/63 78/24/63 79/26/63
f 74/28/64 76/26/64 79/26/64 80/28/64
f 83/26/65 82/32/65 81/33/65 84/28/65
f 79/26/63 78/24/63 82/24/63 83/26/63
f 80/28/66 79/26/66 83/26/66 84/28/66
f 78/24/67 77/23/67 81/23/67 82/24/67
f 85/34/68 87/27/68 88/29/68 86/35/68
f 69/22/69 71/25/69 85/25/69 86/22/69
f 75/27/70 73/29/70 88/29/70 87/27/70
f 73/29/71 69/31/71 86/31/71 88/29/71
f 89/22/72 90/23/72 92/24/72 91/25/72
f 91/25/73 92/24/73 96/26/73 95/27/73
f 95/27/74 96/26/74 94/28/74 93/29/74
f 93/29/75 94/28/75 90/30/75 89/31/75
f 91/25/76 95/27/76 107/27/76 105/25/76
f 92/24/77 90/23/77 97/23/77 98/24/77
f 97/30/78 100/28/78 104/28/78 101/30/78
f 90/30/78 94/28/78 100/28/78 97/30/78
f 96/26/79 92/24/79 98/24/79 99/26/79
f 94/28/80 96/26/80 99/26/80 100/28/80
f 103/26/81 102/32/81 101/33/81 104/28/81
f 99/26/79 98/24/79 102/24/79 103/26/79
f 100/28/82 99/26/82 103/26/82 104/28/82
f 98/24/83 97/23/83 101/23/83 102/24/83
f 105/34/84 107/27/84 108/29/84 106/35/84
f 89/22/85 91/25/85 105/25/85 106/22/85
f 95/27/86 93/29/86 108/29/86 107/27/86
f 93/29/87 89/31/87 106/31/87 108/29/87
f 109/22/88 110/23/88 112/24/88 111/25/88
f 111/25/89 112/24/89 116/26/89 115/27/89
f 115/27/90 116/26/90 114/28/90 113/29/90
f 113/29/91 114/28/91 110/30/91 109/31/91
f 111/25/92 115/27/92 127/27/92 125/25/92
f 112/24/93 110/23/93 117/23/93 118/24/93
f 117/30/94 120/28/94 124/28/94 121/30/94
f 110/30/94 114/28/94 120/28/94 117/30/94
f 116/26/95 112/24/95 118/24/96 119/26/96
f 114/28/97 116/26/97 119/26/97 120/28/97
f 123/26/98 122/32/98 121/33/98 124/28/98
f 119/26/96 118/24/96 122/24/96 123/26/96
f 120/28/99 119/26/99 123/26/99 124/28/99
f 118/24/100 117/23/100 121/23/100 122/24/100
f 125/34/101 127/27/101 128/29/101 126/35/101
f 109/22/102 111/25/102 125/25/102 126/22/102
f 115/27/103 113/29/103 128/29/103 127/27/103
f 113/29/104 109/31/104 126/31/104 128/29/104
f 129/22/105 130/23/105 132/24/105 131/25/105
f 131/25/106 132/24/106 136/26/106 135/27/106
f 135/27/107 136/26/107 134/28/107 133/29/107
f 133/29/108 134/28/108 130/30/108 129/31/108
f 131/25/109 135/27/109 147/27/109 145/25/109
f 132/24/110 130/23/110 137/23/110 138/24/110
f 137/30/111 140/28/111 144/28/111 141/30/111
f 130/30/111 134/28/111 140/28/111 137/30/111
f 136/26/112 132/24/112 138/24/112 139/26/112
f 134/28/113 136/26/113 139/26/113 140/28/113
f 143/26/114 142/32/114 141/33/114 144/28/114
f 139/26/112 138/24/112 142/24/112 143/26/112
f 140/28/115 139/26/115 143/26/115 144/28/115
f 138/24/116 137/23/116 141/23/116 142/24/116
f 145/34/117 147/27/117 148/29/117 146/35/117
f 129/22/118 131/25/118 145/25/118 146/22/118
f 135/27/119 133/29/119 148/29/119 147/27/119
f 133/29/120 129/31/120 146/31/120 148/29/120
f 149/22/121 150/23/121 152/24/121 151/25/121
f 151/25/122 152/24/122 156/26/122 155/27/122
f 155/27/123 156/26/123 154/28/123 153/29/123
f 153/29/124 154/28/124 150/30/124 149/31/124
f 151/25/125 155/27/125 167/27/125 165/25/125
f 152/24/126 150/23/126 157/23/126 158/24/126
f 157/30/127 160/28/127 164/28/127 161/30/127
f 150/30/127 154/28/127 160/28/127 157/30/127
f 156/26/128 152/24/128 158/24/128 159/26/128
f 154/28/129 156/26/129 159/26/129 160/28/129
f 163/26/130 162/32/130 161/33/130 164/28/130
f 159/26/128 158/24/128 162/24/128 163/26/128
f 160/28/131 159/26/131 163/26/131 164/28/131
f 158/24/132 157/23/132 161/23/132 162/24/132
f 165/34/133 167/27/133 168/29/133 166/35/133
f 149/22/134 151/25/134 165/25/134 166/22/134
f 155/27/135 153/29/135 168/29/135 167/27/135
f 153/29/136 149/31/136 166/31/136 168/29/136
f 169/22/137 170/23/137 172/24/137 171/25/137
f 171/25/138 172/24/138 176/26/138 175/27/138
f 175/27/139 176/26/139 174/28/139 173/29/139
f 173/29/140 174/28/140 170/30/140 169/31/140
f 171/25/141 175/27/141 187/27/141 185/25/141
f 172/24/142 170/23/142 177/23/142 178/24/142
f 177/30/143 180/28/144 184/28/144 181/30/144
f 170/30/143 174/28/143 180/28/144 177/30/143
f 176/26/145 172/24/145 178/24/145 179/26/146
f 174/28/147 176/26/147 179/26/147 180/28/147
f 183/26/148 182/32/148 181/33/148 184/28/148
f 179/26/146 178/24/145 182/24/146 183/26/146
f 180/28/149 179/26/149 183/26/149 184/28/149
f 178/24/150 177/23/150 181/23/150 182/24/150
f 185/34/151 187/27/151 188/29/151 186/35/151
f 169/22/152 171/25/152 185/25/152 186/22/152
f 175/27/153 173/29/153 188/29/153 187/27/153
f 173/29/154 169/31/154 186/31/154 188/29/154
