# Blender 4.2.3 LTS
# www.blender.org
mtllib flint.mtl
o Cube
v -0.204668 -0.496974 0.139471
v -0.222338 -0.445990 0.118817
v -0.201600 -0.473005 -0.167935
v -0.195489 -0.441996 -0.151246
v 0.207930 -0.456103 0.168899
v 0.194890 -0.407130 0.137592
v 0.206567 -0.467024 -0.176428
v 0.187229 -0.459943 -0.169354
v 0.020289 -0.453376 -0.188785
v -0.010213 -0.409380 -0.189452
v 0.010096 -0.460193 0.178699
v 0.010653 -0.409850 0.173826
v -0.239805 -0.478816 0.026082
v -0.238796 -0.421958 0.001145
v 0.251314 -0.474750 -0.011253
v 0.247452 -0.445432 -0.010557
v -0.007478 -0.431549 0.000164
v -0.003068 -0.473716 0.002252
v -0.115638 -0.481521 -0.189074
v -0.127648 -0.409119 0.175213
v -0.106619 -0.420299 -0.168900
v -0.116851 -0.480277 0.179915
v -0.143401 -0.449808 -0.001599
v -0.153516 -0.425380 -0.005906
v 0.107793 -0.439840 -0.205253
v 0.122331 -0.426532 0.192982
v 0.115708 -0.457301 -0.212902
v 0.143840 -0.392204 0.165634
v 0.201696 -0.485087 -0.069755
v 0.143446 -0.485364 -0.004739
v -0.215789 -0.426056 -0.080286
v -0.230664 -0.477621 -0.101043
v -0.014957 -0.385722 -0.123577
v -0.007172 -0.481056 -0.133513
v -0.140961 -0.428956 -0.091886
v -0.137403 -0.466927 -0.108742
v 0.131815 -0.487247 -0.114391
v 0.122289 -0.400480 -0.127015
v -0.227076 -0.494912 0.093869
v 0.228722 -0.442193 0.094241
v -0.009393 -0.388992 0.109046
v 0.004323 -0.475543 0.122398
v -0.231021 -0.449849 0.063442
v 0.246161 -0.461966 0.088147
v -0.135553 -0.476824 0.101574
v -0.144527 -0.401741 0.095958
v 0.133563 -0.419890 0.109245
v 0.142043 -0.477566 0.104595
vn -0.8632 0.3735 -0.3398
vn 0.3677 0.7434 -0.5587
vn 0.8184 0.4792 0.3172
vn -0.4832 0.0686 0.8728
vn -0.0018 -0.9480 0.3183
vn -0.4663 0.8776 0.1115
vn 0.0459 0.9967 -0.0676
vn 0.0742 -0.9945 0.0744
vn -0.1016 0.3768 0.9207
vn -0.1123 0.1589 -0.9809
vn -0.1311 -0.9865 0.0983
vn 0.2661 0.8381 0.4762
vn 0.0350 0.9987 -0.0384
vn 0.0609 -0.9969 0.0503
vn 0.7476 0.1140 -0.6542
vn -0.9817 0.0683 0.1778
vn -0.1145 0.9744 0.1935
vn 0.2185 -0.9725 0.0802
vn -0.2273 0.3933 -0.8908
vn 0.2190 -0.9688 -0.1157
vn -0.0517 0.9774 0.2049
vn 0.0040 0.0789 0.9969
vn -0.0641 -0.9971 0.0416
vn 0.4451 0.4849 0.7529
vn 0.0635 0.8514 -0.5206
vn 0.1196 -0.8980 0.4235
vn -0.1844 -0.0036 -0.9828
vn 0.6073 0.7780 -0.1611
vn -0.0479 -0.9342 -0.3536
vn 0.0243 -0.9968 0.0760
vn -0.2713 0.9467 -0.1736
vn 0.3933 0.9034 0.1709
vn 0.0709 -0.9704 -0.2309
vn -0.1306 0.9867 -0.0968
vn 0.1299 0.9052 -0.4046
vn 0.0451 -0.9958 -0.0797
vn -0.9787 0.1375 -0.1528
vn -0.0457 -0.9986 0.0272
vn -0.0420 0.9683 -0.2463
vn -0.0019 0.9541 -0.2996
vn 0.2082 -0.9422 -0.2627
vn -0.9538 -0.0579 0.2947
vn -0.0691 -0.9900 -0.1231
vn 0.1630 0.9364 -0.3108
vn -0.2586 0.9646 0.0514
vn 0.1329 -0.9859 0.1014
vn 0.9185 0.3879 0.0770
vt 0.375000 0.187500
vt 0.625000 0.187500
vt 0.625000 0.250000
vt 0.375000 0.250000
vt 0.375000 0.435074
vt 0.625000 0.435074
vt 0.625000 0.500000
vt 0.375000 0.500000
vt 0.375000 0.687500
vt 0.625000 0.687500
vt 0.625000 0.750000
vt 0.375000 0.750000
vt 0.375000 0.937500
vt 0.625000 0.937500
vt 0.625000 1.000000
vt 0.375000 1.000000
vt 0.310074 0.687500
vt 0.310074 0.750000
vt 0.812500 0.687500
vt 0.875000 0.687500
vt 0.875000 0.750000
vt 0.812500 0.750000
vt 0.689926 0.687500
vt 0.750000 0.687500
vt 0.750000 0.750000
vt 0.689926 0.750000
vt 0.187500 0.687500
vt 0.250000 0.687500
vt 0.250000 0.750000
vt 0.187500 0.750000
vt 0.375000 0.814926
vt 0.625000 0.814926
vt 0.625000 0.875000
vt 0.375000 0.875000
vt 0.375000 0.312500
vt 0.625000 0.312500
vt 0.625000 0.375000
vt 0.375000 0.375000
vt 0.187500 0.562500
vt 0.250000 0.562500
vt 0.250000 0.625000
vt 0.187500 0.625000
vt 0.689926 0.562500
vt 0.750000 0.562500
vt 0.750000 0.625000
vt 0.689926 0.625000
vt 0.812500 0.562500
vt 0.875000 0.562500
vt 0.875000 0.625000
vt 0.812500 0.625000
vt 0.310074 0.562500
vt 0.375000 0.562500
vt 0.375000 0.625000
vt 0.310074 0.625000
vt 0.625000 0.562500
vt 0.625000 0.625000
vt 0.375000 0.062500
vt 0.625000 0.062500
vt 0.625000 0.125000
vt 0.375000 0.125000
vt 0.125000 0.562500
vt 0.125000 0.625000
vt 0.125000 0.687500
vt 0.125000 0.750000
vt 0.689926 0.500000
vt 0.250000 0.500000
vt 0.310074 0.500000
vt 0.125000 0.500000
vt 0.187500 0.500000
vt 0.750000 0.500000
vt 0.812500 0.500000
vt 0.875000 0.500000
vt 0.375000 0.000000
vt 0.625000 0.000000
s 0
f 32/1/1 31/2/1 4/3/1 3/4/1
f 27/5/2 25/6/2 8/7/2 7/8/2
f 44/9/3 40/10/3 6/11/3 5/12/3
f 22/13/4 20/14/4 2/15/4 1/16/4
f 48/17/5 44/9/5 5/12/5 26/18/5
f 46/19/6 43/20/6 2/21/6 20/22/6
f 47/23/7 41/24/7 12/25/7 28/26/7
f 45/27/8 42/28/8 11/29/8 22/30/8
f 26/31/9 28/32/9 12/33/9 11/34/9
f 19/35/10 21/36/10 10/37/10 9/38/10
f 36/39/11 34/40/11 18/41/11 23/42/11
f 38/43/12 33/44/12 17/45/12 29/46/12
f 35/47/13 31/48/13 14/49/13 24/50/13
f 37/51/14 29/52/14 15/53/14 30/54/14
f 29/55/15 16/56/15 15/53/15
f 39/57/16 43/58/16 14/59/16 13/60/16
f 33/44/17 35/47/17 24/50/17 17/45/17
f 32/61/18 36/39/18 23/42/18 13/62/18
f 3/4/19 4/3/19 21/36/19 19/35/19
f 39/63/20 45/27/20 22/30/20 1/64/20
f 41/24/21 46/19/21 20/22/21 12/25/21
f 11/34/22 12/33/22 20/14/22 22/13/22
f 34/40/23 37/51/23 30/54/23 18/41/23
f 5/12/24 6/11/24 28/32/24 26/31/24
f 40/10/25 47/23/25 28/26/25 6/11/25
f 42/28/26 48/17/26 26/18/26 11/29/26
f 9/38/27 10/37/27 25/6/27 27/5/27
f 8/7/28 25/65/28 38/43/28 29/55/28
f 9/66/29 27/67/29 37/51/29 34/40/29
f 3/68/30 19/69/30 36/39/30 32/61/30
f 10/70/31 21/71/31 35/47/31 33/44/31
f 7/8/32 8/7/32 29/52/32
f 27/67/33 7/8/33 29/52/33 37/51/33
f 21/71/34 4/72/34 31/48/34 35/47/34
f 25/65/35 10/70/35 33/44/35 38/43/35
f 19/69/36 9/66/36 34/40/36 36/39/36
f 13/60/37 14/59/37 31/2/37 32/1/37
f 18/41/38 30/54/38 48/17/38 42/28/38
f 16/56/39 29/46/39 47/23/39 40/10/39
f 17/45/40 24/50/40 46/19/40 41/24/40
f 13/62/41 23/42/41 45/27/41 39/63/41
f 1/73/42 2/74/42 43/58/42 39/57/42
f 23/42/43 18/41/43 42/28/43 45/27/43
f 29/46/44 17/45/44 41/24/44 47/23/44
f 24/50/45 14/49/45 43/20/45 46/19/45
f 30/54/46 15/53/46 44/9/46 48/17/46
f 15/53/47 16/56/47 40/10/47 44/9/47
