# Blender 4.3.2
# www.blender.org
mtllib flower_3.mtl
o flower_3
v -0.024000 -0.500000 0.024000
v -0.024000 0.213404 0.024000
v -0.024000 -0.500000 -0.024000
v -0.024000 0.213404 -0.024000
v 0.024000 -0.500000 0.024000
v 0.024000 0.213404 0.024000
v 0.024000 -0.500000 -0.024000
v 0.024000 0.213404 -0.024000
v -0.013682 0.201762 0.013682
v -0.013682 0.209546 0.013682
v -0.013682 0.201762 -0.013682
v -0.013682 0.209546 -0.013682
v 0.013682 0.201762 0.013682
v 0.013682 0.209546 0.013682
v 0.013682 0.201762 -0.013682
v 0.013682 0.209546 -0.013682
v -0.040038 0.210420 -0.040038
v -0.040038 0.210420 0.040038
v -0.040038 0.218204 0.040038
v -0.040038 0.218204 -0.040038
v 0.040038 0.210420 -0.040038
v 0.040038 0.218204 -0.040038
v 0.040038 0.210420 0.040038
v 0.040038 0.218204 0.040038
v -0.073179 0.254417 -0.073179
v -0.073179 0.254417 0.073179
v -0.067627 0.255407 0.067627
v -0.067627 0.255407 -0.067627
v 0.073179 0.254417 -0.073179
v 0.067627 0.255407 -0.067627
v 0.073179 0.254417 0.073179
v 0.067627 0.255407 0.067627
v -0.085879 0.323722 -0.085879
v -0.085879 0.323722 0.085879
v -0.079364 0.324884 0.079364
v -0.079364 0.324884 -0.079364
v 0.085879 0.323722 -0.085879
v 0.079364 0.324884 -0.079364
v 0.085879 0.323722 0.085879
v 0.079364 0.324884 0.079364
v -0.060262 0.484650 -0.060262
v -0.060262 0.484650 0.060262
v -0.055690 0.485466 0.055690
v -0.055690 0.485466 -0.055690
v 0.060262 0.484650 -0.060262
v 0.055690 0.485466 -0.055690
v 0.060262 0.484650 0.060262
v 0.055690 0.485466 0.055690
v -0.085879 0.413465 -0.000000
v -0.057976 0.485058 0.057976
v -0.079364 0.414626 -0.000000
v -0.057976 0.485058 -0.057976
v 0.000000 0.413465 -0.085879
v 0.000000 0.414626 -0.079364
v 0.057976 0.485058 -0.057976
v 0.085879 0.413465 -0.000000
v 0.079364 0.414626 -0.000000
v 0.057976 0.485058 0.057976
v 0.000000 0.413465 0.085879
v 0.000000 0.414626 0.079364
v 0.000000 0.414046 0.082621
v 0.082621 0.414046 -0.000000
v 0.000000 0.414046 -0.082621
v -0.082621 0.414046 -0.000000
v 0.076167 -0.111246 0.023672
v 0.111192 0.168647 0.005288
v 0.076167 -0.111246 -0.023672
v 0.111192 0.168647 -0.005288
v 0.083942 -0.112134 0.023672
v 0.112929 0.168449 0.005288
v 0.083942 -0.112134 -0.023672
v 0.112929 0.168449 -0.005288
v 0.011704 -0.251289 -0.021837
v 0.011704 -0.251289 0.021837
v 0.018877 -0.252109 -0.021837
v 0.018877 -0.252109 0.021837
v -0.026850 -0.084572 -0.058707
v -0.041788 0.197487 -0.047571
v -0.059684 -0.084572 -0.024601
v -0.049124 0.197487 -0.039952
v -0.032487 -0.084572 -0.064135
v -0.043048 0.197487 -0.048784
v -0.065322 -0.084572 -0.030028
v -0.050383 0.197487 -0.041164
v -0.023721 -0.231026 0.007476
v 0.006570 -0.231026 -0.023988
v -0.028922 -0.231026 0.002469
v 0.001369 -0.231026 -0.028995
v -0.054538 -0.145208 0.068133
v -0.053066 0.134806 0.106800
v -0.011065 -0.144916 0.086877
v -0.043354 0.134871 0.110988
v -0.057612 -0.146093 0.075275
v -0.053753 0.134608 0.108396
v -0.014138 -0.145801 0.094020
v -0.044041 0.134673 0.112583
v 0.013545 -0.284992 0.027344
v -0.026560 -0.285261 0.010052
v 0.010710 -0.285808 0.033932
v -0.029395 -0.286077 0.016640
vn -1.0000 -0.0000 -0.0000
vn -0.0000 -0.0000 -1.0000
vn 1.0000 -0.0000 -0.0000
vn -0.0000 -0.0000 1.0000
vn -0.0000 -1.0000 -0.0000
vn -0.0000 1.0000 -0.0000
vn 0.3121 0.9501 -0.0000
vn -0.0000 -0.9501 -0.3121
vn -0.3121 0.9501 -0.0000
vn -0.0000 -0.9501 0.3121
vn -0.0000 0.5957 0.8032
vn 0.7988 -0.6017 -0.0000
vn -0.7988 -0.6017 -0.0000
vn -0.0000 0.5957 -0.8032
vn -0.0000 0.9501 -0.3121
vn -0.3121 -0.9501 -0.0000
vn 0.3121 -0.9501 -0.0000
vn -0.0000 0.9501 0.3121
vn -0.0000 -0.1802 -0.9836
vn -0.9860 0.1666 -0.0000
vn -0.0000 -0.1802 0.9836
vn -0.0000 0.1666 0.9860
vn -0.0000 -0.6017 0.7988
vn -0.8032 0.5957 -0.0000
vn -0.0000 -0.6017 -0.7988
vn 0.8032 0.5957 -0.0000
vn -0.9935 0.1137 -0.0000
vn -0.0000 -0.1053 -0.9944
vn 0.9944 -0.1053 -0.0000
vn -0.0000 0.1137 -0.9935
vn 0.9860 0.1666 -0.0000
vn -0.0000 0.1666 -0.9860
vn -0.9836 -0.1802 -0.0000
vn 0.9836 -0.1802 -0.0000
vn -0.3852 0.6534 0.6517
vn -0.6517 0.6534 -0.3852
vn 0.3852 0.6534 -0.6517
vn 0.6517 0.6534 0.3852
vn 0.9935 0.1137 -0.0000
vn -0.0000 -0.1053 0.9944
vn -0.0000 0.1137 0.9935
vn -0.9944 -0.1053 -0.0000
vn 0.6394 0.6669 0.3826
vn -0.6394 0.6669 0.3826
vn -0.6517 0.6534 0.3852
vn 0.3826 0.6669 -0.6394
vn 0.3826 0.6669 0.6394
vn 0.3852 0.6534 0.6517
vn -0.6394 0.6669 -0.3826
vn 0.6394 0.6669 -0.3826
vn 0.6517 0.6534 -0.3852
vn -0.3826 0.6669 0.6394
vn -0.3826 0.6669 -0.6394
vn -0.3852 0.6534 -0.6517
vn -0.9923 0.1242 -0.0000
vn 0.0074 0.0646 -0.9979
vn 0.9947 -0.1028 -0.0000
vn 0.0074 0.0646 0.9979
vn -0.0014 -0.0124 0.9999
vn 0.1133 0.9936 -0.0000
vn -0.1136 -0.9935 -0.0000
vn -0.0014 -0.0124 -0.9999
vn -0.9084 0.4181 -0.0000
vn 0.9068 -0.4215 -0.0000
vn 0.7204 0.0108 0.6935
vn -0.6920 0.0650 0.7189
vn -0.7204 0.0108 -0.6935
vn 0.6921 0.0650 -0.7188
vn 0.6935 -0.0125 -0.7203
vn -0.6935 -0.0125 0.7204
vn 0.6844 0.3124 0.6588
vn -0.6835 -0.3159 -0.6580
vn 0.3922 0.1238 -0.9115
vn 0.9131 0.0708 0.4017
vn -0.3933 -0.1024 0.9137
vn -0.9196 0.0585 -0.3886
vn -0.9175 -0.0186 -0.3972
vn -0.0504 0.9935 0.1016
vn 0.0504 -0.9936 -0.1014
vn 0.9188 -0.0063 0.3946
vn 0.3574 0.4178 -0.8353
vn -0.3567 -0.4212 0.8339
vt 0.704809 0.412064
vt 0.412585 0.412064
vt 0.412585 0.361567
vt 0.704810 0.361567
vt 0.704809 0.462561
vt 0.412585 0.462561
vt 0.704810 0.412064
vt 0.997033 0.412064
vt 0.997033 0.361567
vt 0.997033 0.462561
vt 0.704810 0.462561
vt 0.002966 0.412064
vt 0.002966 0.361567
vt 0.002966 0.462561
vt 0.875000 0.750000
vt 0.875000 0.500000
vt 0.375000 0.500000
vt 0.125000 0.500000
vt 0.625000 0.500000
vt 0.625000 0.750000
vt 0.125000 0.750000
vt 0.375000 0.750000
vt 0.125000 0.625000
vt 0.750000 0.750000
vt 0.875000 0.625000
vt 0.250000 0.500000
vt 0.500000 0.125000
vt 0.625000 0.125000
vt 0.625000 0.250000
vt 0.500000 0.250000
vt 0.500000 0.375000
vt 0.625000 0.375000
vt 0.500000 0.500000
vt 0.500000 0.625000
vt 0.625000 0.625000
vt 0.500000 0.750000
vt 0.500000 0.875000
vt 0.625000 0.875000
vt 0.625000 1.000000
vt 0.500000 1.000000
vt 0.375000 0.625000
vt 0.750000 0.500000
vt 0.250000 0.750000
vt 0.375000 0.875000
vt 0.375000 1.000000
vt 0.375000 0.375000
vt 0.375000 0.250000
vt 0.375000 0.125000
vt 0.375000 0.000000
vt 0.500000 0.000000
vt 0.625000 0.000000
s 1
g flower_3_Stem
usemtl Stem
f 1/1/1 2/2/1 4/3/1 3/4/1
f 3/5/2 4/6/2 8/2/2 7/7/2
f 7/8/3 8/7/3 6/4/3 5/9/3
f 5/10/4 6/11/4 2/7/4 1/8/4
f 3/3/5 7/2/5 5/12/5 1/13/5
f 8/2/6 4/6/6 2/14/6 6/12/6
g flower_3_Flower
usemtl Flower
f 10/15/7 12/16/7 20/16/7 19/15/7
f 15/17/8 11/18/8 17/18/8 21/17/8
f 16/19/9 14/20/9 24/20/9 22/19/9
f 9/21/10 13/22/10 23/22/10 18/21/10
f 11/18/5 15/17/5 13/22/5 9/21/5
f 16/19/6 12/16/6 10/15/6 14/20/6
f 20/16/11 22/19/11 30/19/11 28/16/11
f 23/22/12 21/17/12 29/17/12 31/22/12
f 17/18/13 18/21/13 26/21/13 25/18/13
f 24/20/14 19/15/14 27/15/14 32/20/14
f 14/20/15 10/15/15 19/15/15 24/20/15
f 11/18/16 9/21/16 18/21/16 17/18/16
f 13/22/17 15/17/17 21/17/17 23/22/17
f 12/16/18 16/19/18 22/19/18 20/16/18
f 29/17/19 25/18/19 33/18/19 37/17/19
f 30/19/20 32/20/20 40/20/20 38/19/20
f 26/21/21 31/22/21 39/22/21 34/21/21
f 28/16/22 30/19/22 38/19/22 36/16/22
f 18/21/23 23/22/23 31/22/23 26/21/23
f 22/19/24 24/20/24 32/20/24 30/19/24
f 21/17/25 17/18/25 25/18/25 29/17/25
f 19/15/26 20/16/26 28/16/26 27/15/26
f 33/18/27 34/21/27 42/21/27 49/23/27 41/18/27
f 40/20/28 35/15/28 43/15/28 60/24/28 48/20/28
f 35/15/29 36/16/29 44/16/29 51/25/29 43/15/29
f 37/17/30 33/18/30 41/18/30 53/26/30 45/17/30
f 27/15/31 28/16/31 36/16/31 35/15/31
f 32/20/32 27/15/32 35/15/32 40/20/32
f 25/18/33 26/21/33 34/21/33 33/18/33
f 31/22/34 29/17/34 37/17/34 39/22/34
f 64/27/35 51/28/35 44/29/35 52/30/35
f 63/31/36 54/32/36 46/19/36 55/33/36
f 62/34/37 57/35/37 48/20/37 58/36/37
f 61/37/38 60/38/38 43/39/38 50/40/38
f 39/22/39 37/17/39 45/17/39 56/41/39 47/22/39
f 36/16/40 38/19/40 46/19/40 54/42/40 44/16/40
f 34/21/41 39/22/41 47/22/41 59/43/41 42/21/41
f 38/19/42 40/20/42 48/20/42 57/35/42 46/19/42
f 59/44/43 61/37/43 50/40/43 42/45/43
f 47/22/44 58/36/44 61/37/44 59/44/44
f 58/36/45 48/20/45 60/38/45 61/37/45
f 56/41/46 62/34/46 58/36/46 47/22/46
f 45/17/47 55/33/47 62/34/47 56/41/47
f 55/33/48 46/19/48 57/35/48 62/34/48
f 53/46/49 63/31/49 55/33/49 45/17/49
f 41/47/50 52/30/50 63/31/50 53/46/50
f 52/30/51 44/29/51 54/32/51 63/31/51
f 49/48/52 64/27/52 52/30/52 41/47/52
f 42/49/53 50/50/53 64/27/53 49/48/53
f 50/50/54 43/51/54 51/28/54 64/27/54
g flower_3_Leaf
usemtl Leaf
f 65/1/55 66/2/55 68/3/55 67/4/55
f 67/5/56 68/6/56 72/2/56 71/7/56
f 71/8/57 72/7/57 70/4/57 69/9/57
f 69/10/58 70/11/58 66/7/58 65/8/58
f 69/10/59 65/8/59 74/8/59 76/10/59
f 72/2/60 68/6/60 66/14/60 70/12/60
f 73/3/61 75/2/61 76/12/61 74/13/61
f 67/5/62 71/7/62 75/7/62 73/5/62
f 65/1/63 67/4/63 73/4/63 74/1/63
f 71/8/64 69/9/64 76/9/64 75/8/64
f 77/1/65 78/2/65 80/3/65 79/4/65
f 79/5/66 80/6/66 84/2/66 83/7/66
f 83/8/67 84/7/67 82/4/67 81/9/67
f 81/10/68 82/11/68 78/7/68 77/8/68
f 81/10/69 77/8/69 86/8/69 88/10/69
f 84/2/6 80/6/6 78/14/6 82/12/6
f 85/3/5 87/2/5 88/12/5 86/13/5
f 79/5/70 83/7/70 87/7/70 85/5/70
f 77/1/71 79/4/71 85/4/71 86/1/71
f 83/8/72 81/9/72 88/9/72 87/8/72
f 89/1/73 90/2/73 92/3/73 91/4/73
f 91/5/74 92/6/74 96/2/74 95/7/74
f 95/8/75 96/7/75 94/4/75 93/9/75
f 93/10/76 94/11/76 90/7/76 89/8/76
f 93/10/77 89/8/77 98/8/77 100/10/77
f 96/2/78 92/6/78 90/14/78 94/12/78
f 97/3/79 99/2/79 100/12/79 98/13/79
f 91/5/80 95/7/80 99/7/80 97/5/80
f 89/1/81 91/4/81 97/4/81 98/1/81
f 95/8/82 93/9/82 100/9/82 99/8/82
