# Blender 4.3.2
# www.blender.org
mtllib flower_2.mtl
g Stem_Cube.001
v -0.030000 -0.500000 0.030000
v -0.010743 0.308298 0.010743
v -0.030000 -0.500000 -0.030000
v -0.010743 0.308298 -0.010743
v 0.030000 -0.500000 0.030000
v 0.010743 0.308298 0.010743
v 0.030000 -0.500000 -0.030000
v 0.010743 0.308298 -0.010743
vn -0.9997 0.0238 -0.0000
vn -0.0000 0.0238 -0.9997
vn 0.9997 0.0238 -0.0000
vn -0.0000 0.0238 0.9997
vn -0.0000 -1.0000 -0.0000
vn -0.0000 1.0000 -0.0000
vt 0.000000 0.461622
vt 0.106982 0.000000
vt 0.226351 0.000000
vt 0.333333 0.461622
vt 0.440316 0.000000
vt 0.559684 0.000000
vt 0.666667 0.461622
vt 0.000000 0.923245
vt 0.106982 0.461622
vt 0.226351 0.461622
vt 0.333333 0.923245
vt 0.440316 0.461622
vt 0.559684 0.461622
vt 0.666667 0.923245
vt 1.000000 0.000000
vt 1.000000 0.333333
vt 0.666667 0.333333
vt 0.666667 0.000000
vt 0.786035 0.333333
vt 0.786035 0.452702
vt 0.666667 0.452702
vt 0.666667 0.333333
s 0
g Stem_Stem
usemtl Stem
f 1/1/1 2/2/1 4/3/1 3/4/1
f 3/4/2 4/5/2 8/6/2 7/7/2
f 7/8/3 8/9/3 6/10/3 5/11/3
f 5/11/4 6/12/4 2/13/4 1/14/4
f 3/15/5 7/16/5 5/17/5 1/18/5
f 8/19/6 4/20/6 2/21/6 6/22/6
g Flower.008_Cube.002
v 0.021867 0.166767 0.030000
v 0.024092 0.249829 0.010743
v 0.021867 0.166767 -0.030000
v 0.024092 0.249829 -0.010743
v 0.080585 0.179104 0.030000
v 0.045119 0.254247 0.010743
v 0.080585 0.179104 -0.030000
v 0.045119 0.254247 -0.010743
v 0.022075 0.262525 0.010743
v 0.022075 0.262525 -0.010743
v 0.034869 0.279787 -0.010743
v 0.034869 0.279787 0.010743
v 0.006560 0.271663 0.010743
v 0.006560 0.271663 -0.010743
v 0.006296 0.293148 -0.010743
v 0.006296 0.293148 0.010743
v 0.027571 0.248736 -0.007563
v 0.027571 0.248736 0.007563
v 0.042374 0.251847 -0.007563
v 0.042374 0.251847 0.007563
vn -0.9996 0.0268 -0.0000
vn -0.0477 0.2268 -0.9728
vn 0.9043 0.4268 -0.0000
vn -0.0477 0.2268 0.9728
vn 0.0561 -0.2672 0.9620
vn -0.9876 -0.1569 -0.0000
vn -0.0000 -0.0000 1.0000
vn -0.0000 -0.0000 -1.0000
vn 0.9281 0.3725 -0.0000
vn -0.9999 -0.0123 -0.0000
vn 0.4236 0.9059 -0.0000
vn -0.5075 -0.8616 -0.0000
vn 0.2056 -0.9786 -0.0000
vn 0.9976 -0.0694 -0.0000
vn -0.8853 -0.4650 -0.0000
vn 0.0561 -0.2672 -0.9620
vt 0.375000 0.000000
vt 0.625000 0.000000
vt 0.625000 0.250000
vt 0.375000 0.250000
vt 0.625000 0.500000
vt 0.375000 0.500000
vt 0.625000 0.750000
vt 0.375000 0.750000
vt 0.625000 1.000000
vt 0.375000 1.000000
vt 0.875000 0.500000
vt 0.875000 0.750000
vt 0.125000 0.500000
vt 0.125000 0.750000
s 0
g Flower.008_Flower
usemtl Flower
f 9/23/7 10/24/7 12/25/7 11/26/7
f 11/26/8 12/25/8 16/27/8 15/28/8
f 15/28/9 16/27/9 14/29/9 13/30/9
f 13/30/10 14/29/10 10/31/10 9/32/10
f 11/26/11 15/28/11 27/28/11 25/26/11
f 12/25/12 10/24/12 17/24/12 18/25/12
f 17/31/13 20/29/13 24/29/13 21/31/13
f 10/31/13 14/29/13 20/29/13 17/31/13
f 16/27/14 12/25/14 18/25/14 19/27/14
f 14/29/15 16/27/15 19/27/15 20/29/15
f 23/27/16 22/33/16 21/34/16 24/29/16
f 19/27/14 18/25/14 22/25/14 23/27/14
f 20/29/17 19/27/17 23/27/17 24/29/17
f 18/25/18 17/24/18 21/24/18 22/25/18
f 25/35/19 27/28/19 28/30/19 26/36/19
f 9/23/20 11/26/20 25/26/20 26/23/20
f 15/28/21 13/30/21 28/30/21 27/28/21
f 13/30/22 9/32/22 26/32/22 28/30/22
g Flower.007_Cube.003
v -0.042156 -0.037500 -0.001268
v -0.029672 0.045562 0.013562
v 0.001495 -0.037500 0.039897
v -0.014041 0.045562 0.028304
v -0.082442 -0.025162 0.041450
v -0.044099 0.049981 0.028860
v -0.038790 -0.025162 0.082615
v -0.028467 0.049981 0.043601
v -0.028289 0.058258 0.012095
v -0.012657 0.058258 0.026837
v -0.021435 0.075521 0.036144
v -0.037067 0.075521 0.021403
v -0.017644 0.067397 0.000808
v -0.002012 0.067397 0.015549
v -0.001831 0.088881 0.015357
v -0.017463 0.088881 0.000615
v -0.018741 0.044470 0.028653
v -0.029746 0.044470 0.018275
v -0.028897 0.047580 0.039422
v -0.039902 0.047580 0.029044
vn 0.6858 0.0268 -0.7273
vn 0.7404 0.2268 0.6327
vn -0.6205 0.4268 0.6579
vn -0.6750 0.2268 -0.7021
vn -0.7384 -0.2672 -0.6192
vn 0.6776 -0.1569 -0.7185
vn -0.7275 -0.0000 -0.6861
vn 0.7275 -0.0000 0.6861
vn -0.6367 0.3725 0.6752
vn 0.6860 -0.0123 -0.7275
vn -0.2906 0.9059 0.3082
vn 0.3482 -0.8616 -0.3692
vn -0.1411 -0.9786 0.1496
vn -0.6844 -0.0694 0.7258
vn 0.6074 -0.4650 -0.6441
vn 0.6613 -0.2672 0.7009
vt 0.375000 0.000000
vt 0.625000 0.000000
vt 0.625000 0.250000
vt 0.375000 0.250000
vt 0.625000 0.500000
vt 0.375000 0.500000
vt 0.625000 0.750000
vt 0.375000 0.750000
vt 0.625000 1.000000
vt 0.375000 1.000000
vt 0.875000 0.500000
vt 0.875000 0.750000
vt 0.125000 0.500000
vt 0.125000 0.750000
s 0
g Flower.007_Flower
usemtl Flower
f 29/37/23 30/38/23 32/39/23 31/40/23
f 31/40/24 32/39/24 36/41/24 35/42/24
f 35/42/25 36/41/25 34/43/25 33/44/25
f 33/44/26 34/43/26 30/45/26 29/46/26
f 31/40/27 35/42/27 47/42/27 45/40/27
f 32/39/28 30/38/28 37/38/28 38/39/28
f 37/45/29 40/43/29 44/43/29 41/45/29
f 30/45/29 34/43/29 40/43/29 37/45/29
f 36/41/30 32/39/30 38/39/30 39/41/30
f 34/43/31 36/41/31 39/41/31 40/43/31
f 43/41/32 42/47/32 41/48/32 44/43/32
f 39/41/30 38/39/30 42/39/30 43/41/30
f 40/43/33 39/41/33 43/41/33 44/43/33
f 38/39/34 37/38/34 41/38/34 42/39/34
f 45/49/35 47/42/35 48/44/35 46/50/35
f 29/37/36 31/40/36 45/40/36 46/37/36
f 35/42/37 33/44/37 48/44/37 47/42/37
f 33/44/38 29/46/38 46/46/38 48/44/38
g Flower.006_Cube.004
v 0.021379 -0.004354 0.034155
v 0.026501 0.078709 0.015459
v 0.030487 -0.004354 -0.025150
v 0.029762 0.078709 -0.005779
v 0.079417 0.007984 0.043068
v 0.047284 0.083127 0.018651
v 0.088524 0.007984 -0.016237
v 0.050546 0.083127 -0.002587
v 0.024508 0.091404 0.015153
v 0.027769 0.091404 -0.006085
v 0.040415 0.108667 -0.004143
v 0.037153 0.108667 0.017095
v 0.009173 0.100543 0.012798
v 0.012434 0.100543 -0.008440
v 0.012173 0.122028 -0.008480
v 0.008911 0.122028 0.012758
v 0.032718 0.077616 -0.002107
v 0.030422 0.077616 0.012844
v 0.047350 0.080727 0.000140
v 0.045054 0.080727 0.015091
vn -0.9881 0.0268 -0.1517
vn 0.1006 0.2268 -0.9687
vn 0.8939 0.4268 0.1373
vn -0.1948 0.2268 0.9543
vn -0.0905 -0.2672 0.9594
vn -0.9762 -0.1569 -0.1499
vn -0.1518 -0.0000 0.9884
vn 0.1518 -0.0000 -0.9884
vn 0.9173 0.3725 0.1409
vn -0.9883 -0.0123 -0.1518
vn 0.4187 0.9059 0.0643
vn -0.5016 -0.8616 -0.0770
vn 0.2032 -0.9786 0.0312
vn 0.9860 -0.0694 0.1514
vn -0.8750 -0.4650 -0.1344
vn 0.2015 -0.2672 -0.9423
vt 0.375000 0.000000
vt 0.625000 0.000000
vt 0.625000 0.250000
vt 0.375000 0.250000
vt 0.625000 0.500000
vt 0.375000 0.500000
vt 0.625000 0.750000
vt 0.375000 0.750000
vt 0.625000 1.000000
vt 0.375000 1.000000
vt 0.875000 0.500000
vt 0.875000 0.750000
vt 0.125000 0.500000
vt 0.125000 0.750000
s 0
g Flower.006_Flower
usemtl Flower
f 49/51/39 50/52/39 52/53/39 51/54/39
f 51/54/40 52/53/40 56/55/40 55/56/40
f 55/56/41 56/55/41 54/57/41 53/58/41
f 53/58/42 54/57/42 50/59/42 49/60/42
f 51/54/43 55/56/43 67/56/43 65/54/43
f 52/53/44 50/52/44 57/52/44 58/53/44
f 57/59/45 60/57/45 64/57/45 61/59/45
f 50/59/45 54/57/45 60/57/45 57/59/45
f 56/55/46 52/53/46 58/53/46 59/55/46
f 54/57/47 56/55/47 59/55/47 60/57/47
f 63/55/48 62/61/48 61/62/48 64/57/48
f 59/55/46 58/53/46 62/53/46 63/55/46
f 60/57/49 59/55/49 63/55/49 64/57/49
f 58/53/50 57/52/50 61/52/50 62/53/50
f 65/63/51 67/56/51 68/58/51 66/64/51
f 49/51/52 51/54/52 65/54/52 66/51/52
f 55/56/53 53/58/53 68/58/53 67/56/53
f 53/58/54 49/60/54 66/60/54 68/58/54
g Flower.005_Cube.005
v 0.001375 0.141476 -0.037450
v -0.011927 0.224538 -0.023348
v -0.034516 0.141476 0.010632
v -0.024780 0.224538 -0.006130
v -0.045679 0.153813 -0.072573
v -0.028777 0.228956 -0.035927
v -0.081570 0.153813 -0.024492
v -0.041630 0.228956 -0.018708
v -0.010311 0.237234 -0.022142
v -0.023164 0.237234 -0.004924
v -0.033416 0.254496 -0.012577
v -0.020563 0.254496 -0.029795
v 0.002122 0.246372 -0.012862
v -0.010731 0.246372 0.004357
v -0.010519 0.267857 0.004515
v 0.002334 0.267857 -0.012703
v -0.025665 0.223446 -0.010760
v -0.016617 0.223446 -0.022881
v -0.037528 0.226556 -0.019615
v -0.028480 0.226556 -0.031736
vn 0.8011 0.0268 0.5980
vn -0.5437 0.2268 0.8080
vn -0.7247 0.4268 -0.5410
vn 0.6201 0.2268 -0.7510
vn 0.5305 -0.2672 -0.8045
vn 0.7914 -0.1569 0.5908
vn 0.5982 -0.0000 -0.8014
vn -0.5982 -0.0000 0.8014
vn -0.7437 0.3725 -0.5551
vn 0.8013 -0.0123 0.5981
vn -0.3394 0.9059 -0.2534
vn 0.4067 -0.8616 0.3036
vn -0.1648 -0.9786 -0.1230
vn -0.7994 -0.0694 -0.5967
vn 0.7094 -0.4650 0.5296
vn -0.6204 -0.2672 0.7373
vt 0.375000 0.000000
vt 0.625000 0.000000
vt 0.625000 0.250000
vt 0.375000 0.250000
vt 0.625000 0.500000
vt 0.375000 0.500000
vt 0.625000 0.750000
vt 0.375000 0.750000
vt 0.625000 1.000000
vt 0.375000 1.000000
vt 0.875000 0.500000
vt 0.875000 0.750000
vt 0.125000 0.500000
vt 0.125000 0.750000
s 0
g Flower.005_Flower
usemtl Flower
f 69/65/55 70/66/55 72/67/55 71/68/55
f 71/68/56 72/67/56 76/69/56 75/70/56
f 75/70/57 76/69/57 74/71/57 73/72/57
f 73/72/58 74/71/58 70/73/58 69/74/58
f 71/68/59 75/70/59 87/70/59 85/68/59
f 72/67/60 70/66/60 77/66/60 78/67/60
f 77/73/61 80/71/61 84/71/61 81/73/61
f 70/73/61 74/71/61 80/71/61 77/73/61
f 76/69/62 72/67/62 78/67/62 79/69/62
f 74/71/63 76/69/63 79/69/63 80/71/63
f 83/69/64 82/75/64 81/76/64 84/71/64
f 79/69/62 78/67/62 82/67/62 83/69/62
f 80/71/65 79/69/65 83/69/65 84/71/65
f 78/67/66 77/66/66 81/66/66 82/67/66
f 85/77/67 87/70/67 88/72/67 86/78/67
f 69/65/68 71/68/68 85/68/68 86/65/68
f 75/70/69 73/72/69 88/72/69 87/70/69
f 73/72/70 69/74/70 86/74/70 88/72/70
g Flower.004_Cube.006
v 0.036592 -0.176318 -0.026614
v 0.017641 -0.093256 -0.030695
v -0.023125 -0.176318 -0.032431
v -0.003744 -0.093256 -0.032778
v 0.042285 -0.163980 -0.085055
v 0.019680 -0.088838 -0.051623
v -0.017433 -0.163980 -0.090872
v -0.001705 -0.088838 -0.053706
v 0.017446 -0.080560 -0.028688
v -0.003939 -0.080560 -0.030771
v -0.002699 -0.063298 -0.043505
v 0.018686 -0.063298 -0.041421
v 0.015942 -0.071422 -0.013246
v -0.005443 -0.071422 -0.015329
v -0.005469 -0.049937 -0.015066
v 0.015916 -0.049937 -0.012983
v -0.000241 -0.094348 -0.035932
v 0.014814 -0.094348 -0.034466
v 0.001194 -0.091238 -0.050665
v 0.016249 -0.091238 -0.049199
vn -0.0969 0.0268 0.9949
vn -0.9728 0.2268 -0.0469
vn 0.0877 0.4268 -0.9001
vn 0.9636 0.2268 0.1417
vn 0.9629 -0.2672 0.0374
vn -0.0958 -0.1569 0.9830
vn 0.9953 -0.0000 0.0970
vn -0.9953 -0.0000 -0.0970
vn 0.0900 0.3725 -0.9237
vn -0.0969 -0.0123 0.9952
vn 0.0411 0.9059 -0.4216
vn -0.0492 -0.8616 0.5051
vn 0.0199 -0.9786 -0.2047
vn 0.0967 -0.0694 -0.9929
vn -0.0858 -0.4650 0.8811
vn -0.9520 -0.2672 -0.1492
vt 0.375000 0.000000
vt 0.625000 0.000000
vt 0.625000 0.250000
vt 0.375000 0.250000
vt 0.625000 0.500000
vt 0.375000 0.500000
vt 0.625000 0.750000
vt 0.375000 0.750000
vt 0.625000 1.000000
vt 0.375000 1.000000
vt 0.875000 0.500000
vt 0.875000 0.750000
vt 0.125000 0.500000
vt 0.125000 0.750000
s 0
g Flower.004_Flower
usemtl Flower
f 89/79/71 90/80/71 92/81/71 91/82/71
f 91/82/72 92/81/72 96/83/72 95/84/72
f 95/84/73 96/83/73 94/85/73 93/86/73
f 93/86/74 94/85/74 90/87/74 89/88/74
f 91/82/75 95/84/75 107/84/75 105/82/75
f 92/81/76 90/80/76 97/80/76 98/81/76
f 97/87/77 100/85/77 104/85/77 101/87/77
f 90/87/77 94/85/77 100/85/77 97/87/77
f 96/83/78 92/81/78 98/81/78 99/83/78
f 94/85/79 96/83/79 99/83/79 100/85/79
f 103/83/80 102/89/80 101/90/80 104/85/80
f 99/83/78 98/81/78 102/81/78 103/83/78
f 100/85/81 99/83/81 103/83/81 104/85/81
f 98/81/82 97/80/82 101/80/82 102/81/82
f 105/91/83 107/84/83 108/86/83 106/92/83
f 89/79/84 91/82/84 105/82/84 106/79/84
f 95/84/85 93/86/85 108/86/85 107/84/85
f 93/86/86 89/88/86 106/88/86 108/86/86
g Flower.003_Cube.007
v 0.008775 -0.152687 0.041153
v 0.020854 -0.069625 0.025991
v 0.040529 -0.152687 -0.009756
v 0.032225 -0.069625 0.007760
v 0.058595 -0.140350 0.072228
v 0.038695 -0.065207 0.037119
v 0.090350 -0.140350 0.021320
v 0.050066 -0.065207 0.018889
v 0.019143 -0.056929 0.024924
v 0.030514 -0.056929 0.006693
v 0.041369 -0.039667 0.013464
v 0.029998 -0.039667 0.031695
v 0.005979 -0.047791 0.016713
v 0.017350 -0.047791 -0.001518
v 0.017126 -0.026306 -0.001658
v 0.005754 -0.026306 0.016573
v 0.033494 -0.070718 0.012300
v 0.025489 -0.070718 0.025134
v 0.046054 -0.067607 0.020134
v 0.038048 -0.067607 0.032968
vn -0.8482 0.0268 -0.5290
vn 0.4744 0.2268 -0.8506
vn 0.7673 0.4268 0.4786
vn -0.5553 0.2268 0.8002
vn -0.4615 -0.2672 0.8459
vn -0.8380 -0.1569 -0.5227
vn -0.5292 -0.0000 0.8485
vn 0.5292 -0.0000 -0.8485
vn 0.7874 0.3725 0.4912
vn -0.8484 -0.0123 -0.5292
vn 0.3594 0.9059 0.2242
vn -0.4306 -0.8616 -0.2686
vn 0.1745 -0.9786 0.1088
vn 0.8464 -0.0694 0.5280
vn -0.7511 -0.4650 -0.4685
vn 0.5568 -0.2672 -0.7865
vt 0.375000 0.000000
vt 0.625000 0.000000
vt 0.625000 0.250000
vt 0.375000 0.250000
vt 0.625000 0.500000
vt 0.375000 0.500000
vt 0.625000 0.750000
vt 0.375000 0.750000
vt 0.625000 1.000000
vt 0.375000 1.000000
vt 0.875000 0.500000
vt 0.875000 0.750000
vt 0.125000 0.500000
vt 0.125000 0.750000
s 0
g Flower.003_Flower
usemtl Flower
f 109/93/87 110/94/87 112/95/87 111/96/87
f 111/96/88 112/95/88 116/97/88 115/98/88
f 115/98/89 116/97/89 114/99/89 113/100/89
f 113/100/90 114/99/90 110/101/90 109/102/90
f 111/96/91 115/98/91 127/98/91 125/96/91
f 112/95/92 110/94/92 117/94/92 118/95/92
f 117/101/93 120/99/93 124/99/93 121/101/93
f 110/101/93 114/99/93 120/99/93 117/101/93
f 116/97/94 112/95/94 118/95/94 119/97/94
f 114/99/95 116/97/95 119/97/95 120/99/95
f 123/97/96 122/103/96 121/104/96 124/99/96
f 119/97/94 118/95/94 122/95/94 123/97/94
f 120/99/97 119/97/97 123/97/97 124/99/97
f 118/95/98 117/94/98 121/94/98 122/95/98
f 125/105/99 127/98/99 128/100/99 126/106/99
f 109/93/100 111/96/100 125/96/100 126/93/100
f 115/98/101 113/100/101 128/100/101 127/98/101
f 113/100/102 109/102/102 126/102/102 128/100/102
g Flower.002_Cube.008
v 0.020921 0.021415 -0.038912
v 0.001777 0.104478 -0.035867
v -0.036861 0.021415 -0.022749
v -0.018915 0.104478 -0.030079
v 0.005103 0.033753 -0.095460
v -0.003888 0.108896 -0.056117
v -0.052679 0.033753 -0.079296
v -0.024580 0.108896 -0.050329
v 0.002320 0.117173 -0.033925
v -0.018372 0.117173 -0.028137
v -0.021819 0.134436 -0.040458
v -0.001127 0.134436 -0.046246
v 0.006500 0.126312 -0.018984
v -0.014193 0.126312 -0.013196
v -0.014121 0.147797 -0.012941
v 0.006571 0.147797 -0.018729
v -0.016790 0.103385 -0.034286
v -0.002223 0.103385 -0.038361
v -0.020778 0.106495 -0.048542
v -0.006211 0.106495 -0.052617
vn 0.2693 0.0268 0.9627
vn -0.9240 0.2268 0.3079
vn -0.2436 0.4268 -0.8709
vn 0.9497 0.2268 -0.2162
vn 0.9113 -0.2672 -0.3132
vn 0.2661 -0.1569 0.9511
vn 0.9630 -0.0000 -0.2694
vn -0.9630 -0.0000 0.2694
vn -0.2500 0.3725 -0.8937
vn 0.2694 -0.0123 0.9630
vn -0.1141 0.9059 -0.4079
vn 0.1367 -0.8616 0.4887
vn -0.0554 -0.9786 -0.1980
vn -0.2687 -0.0694 -0.9607
vn 0.2385 -0.4650 0.8526
vn -0.9416 -0.2672 0.2051
vt 0.375000 0.000000
vt 0.625000 0.000000
vt 0.625000 0.250000
vt 0.375000 0.250000
vt 0.625000 0.500000
vt 0.375000 0.500000
vt 0.625000 0.750000
vt 0.375000 0.750000
vt 0.625000 1.000000
vt 0.375000 1.000000
vt 0.875000 0.500000
vt 0.875000 0.750000
vt 0.125000 0.500000
vt 0.125000 0.750000
s 0
g Flower.002_Flower
usemtl Flower
f 129/107/103 130/108/103 132/109/103 131/110/103
f 131/110/104 132/109/104 136/111/104 135/112/104
f 135/112/105 136/111/105 134/113/105 133/114/105
f 133/114/106 134/113/106 130/115/106 129/116/106
f 131/110/107 135/112/107 147/112/107 145/110/107
f 132/109/108 130/108/108 137/108/108 138/109/108
f 137/115/109 140/113/109 144/113/109 141/115/109
f 130/115/109 134/113/109 140/113/109 137/115/109
f 136/111/110 132/109/110 138/109/110 139/111/110
f 134/113/111 136/111/111 139/111/111 140/113/111
f 143/111/112 142/117/112 141/118/112 144/113/112
f 139/111/110 138/109/110 142/109/110 143/111/110
f 140/113/113 139/111/113 143/111/113 144/113/113
f 138/109/114 137/108/114 141/108/114 142/109/114
f 145/119/115 147/112/115 148/114/115 146/120/115
f 129/107/116 131/110/116 145/110/116 146/107/116
f 135/112/117 133/114/117 148/114/117 147/112/117
f 133/114/118 129/116/118 146/116/118 148/114/118
g Flower.001_Cube.009
v -0.035710 0.176940 -0.001103
v -0.021392 0.260002 0.011965
v 0.012956 0.176940 0.033992
v -0.003964 0.260002 0.024532
v -0.070054 0.189277 0.046523
v -0.033691 0.264420 0.029020
v -0.021388 0.189277 0.081618
v -0.016263 0.264420 0.041588
v -0.020212 0.272698 0.010329
v -0.002784 0.272698 0.022897
v -0.010268 0.289960 0.033274
v -0.027695 0.289960 0.020706
v -0.011137 0.281836 -0.002255
v 0.006290 0.281836 0.010313
v 0.006445 0.303321 0.010098
v -0.010983 0.303321 -0.002469
v -0.008578 0.258910 0.025494
v -0.020847 0.258910 0.016647
v -0.017237 0.262020 0.037501
v -0.029505 0.262020 0.028653
vn 0.5847 0.0268 -0.8108
vn 0.8169 0.2268 0.5303
vn -0.5290 0.4268 0.7335
vn -0.7611 0.2268 -0.6076
vn -0.8131 -0.2672 -0.5171
vn 0.5777 -0.1569 -0.8011
vn -0.8111 -0.0000 -0.5849
vn 0.8111 -0.0000 0.5849
vn -0.5428 0.3725 0.7527
vn 0.5849 -0.0123 -0.8110
vn -0.2478 0.9059 0.3436
vn 0.2968 -0.8616 -0.4116
vn -0.1203 -0.9786 0.1668
vn -0.5835 -0.0694 0.8091
vn 0.5178 -0.4650 -0.7181
vn 0.7474 -0.2672 0.6082
vt 0.375000 0.000000
vt 0.625000 0.000000
vt 0.625000 0.250000
vt 0.375000 0.250000
vt 0.625000 0.500000
vt 0.375000 0.500000
vt 0.625000 0.750000
vt 0.375000 0.750000
vt 0.625000 1.000000
vt 0.375000 1.000000
vt 0.875000 0.500000
vt 0.875000 0.750000
vt 0.125000 0.500000
vt 0.125000 0.750000
s 0
g Flower.001_Flower
usemtl Flower
f 149/121/119 150/122/119 152/123/119 151/124/119
f 151/124/120 152/123/120 156/125/120 155/126/120
f 155/126/121 156/125/121 154/127/121 153/128/121
f 153/128/122 154/127/122 150/129/122 149/130/122
f 151/124/123 155/126/123 167/126/123 165/124/123
f 152/123/124 150/122/124 157/122/124 158/123/124
f 157/129/125 160/127/125 164/127/125 161/129/125
f 150/129/125 154/127/125 160/127/125 157/129/125
f 156/125/126 152/123/126 158/123/126 159/125/126
f 154/127/127 156/125/127 159/125/127 160/127/127
f 163/125/128 162/131/128 161/132/128 164/127/128
f 159/125/126 158/123/126 162/123/126 163/125/126
f 160/127/129 159/125/129 163/125/129 164/127/129
f 158/123/130 157/122/130 161/122/130 162/123/130
f 165/133/131 167/126/131 168/128/131 166/134/131
f 149/121/132 151/124/132 165/124/132 166/121/132
f 155/126/133 153/128/133 168/128/133 167/126/133
f 153/128/134 149/130/134 166/130/134 168/128/134
g Flower_Cube.010
v -0.029895 -0.199721 -0.028822
v -0.031367 -0.116659 -0.009493
v -0.027557 -0.199721 0.031133
v -0.030530 -0.116659 0.011977
v -0.088568 -0.187383 -0.026534
v -0.052378 -0.112240 -0.008674
v -0.086230 -0.187383 0.033420
v -0.051541 -0.112240 0.012796
v -0.029352 -0.103963 -0.009571
v -0.028515 -0.103963 0.011899
v -0.041299 -0.086700 0.012397
v -0.042136 -0.086700 -0.009073
v -0.013849 -0.094824 -0.010176
v -0.013012 -0.094824 0.011294
v -0.012748 -0.073340 0.011284
v -0.013585 -0.073340 -0.010186
v -0.034130 -0.117751 0.008935
v -0.034720 -0.117751 -0.006180
v -0.048922 -0.114641 0.009512
v -0.049511 -0.114641 -0.005603
vn 0.9989 0.0268 -0.0389
vn 0.0855 0.2268 0.9702
vn -0.9036 0.4268 0.0352
vn 0.0097 0.2268 -0.9739
vn -0.0936 -0.2672 -0.9591
vn 0.9869 -0.1569 -0.0385
vn -0.0390 -0.0000 -0.9992
vn 0.0390 -0.0000 0.9992
vn -0.9273 0.3725 0.0362
vn 0.9992 -0.0123 -0.0390
vn -0.4233 0.9059 0.0165
vn 0.5071 -0.8616 -0.0198
vn -0.2055 -0.9786 0.0080
vn -0.9968 -0.0694 0.0389
vn 0.8846 -0.4650 -0.0345
vn -0.0186 -0.2672 0.9635
vt 0.375000 0.000000
vt 0.625000 0.000000
vt 0.625000 0.250000
vt 0.375000 0.250000
vt 0.625000 0.500000
vt 0.375000 0.500000
vt 0.625000 0.750000
vt 0.375000 0.750000
vt 0.625000 1.000000
vt 0.375000 1.000000
vt 0.875000 0.500000
vt 0.875000 0.750000
vt 0.125000 0.500000
vt 0.125000 0.750000
s 0
g Flower_Flower
usemtl Flower
f 169/135/135 170/136/135 172/137/135 171/138/135
f 171/138/136 172/137/136 176/139/136 175/140/136
f 175/140/137 176/139/137 174/141/137 173/142/137
f 173/142/138 174/141/138 170/143/138 169/144/138
f 171/138/139 175/140/139 187/140/139 185/138/139
f 172/137/140 170/136/140 177/136/140 178/137/140
f 177/143/141 180/141/141 184/141/141 181/143/141
f 170/143/141 174/141/141 180/141/141 177/143/141
f 176/139/142 172/137/142 178/137/142 179/139/142
f 174/141/143 176/139/143 179/139/143 180/141/143
f 183/139/144 182/145/144 181/146/144 184/141/144
f 179/139/142 178/137/142 182/137/142 183/139/142
f 180/141/145 179/139/145 183/139/145 184/141/145
f 178/137/146 177/136/146 181/136/146 182/137/146
f 185/147/147 187/140/147 188/142/147 186/148/147
f 169/135/148 171/138/148 185/138/148 186/135/148
f 175/140/149 173/142/149 188/142/149 187/140/149
f 173/142/150 169/144/150 186/144/150 188/142/150
