# Blender 4.3.2
# www.blender.org
mtllib flower_4.mtl
o flower_4
v -0.138243 0.379977 0.014051
v 0.012760 0.495153 -0.067353
v -0.066155 0.364012 0.001233
v 0.006926 0.419753 -0.038164
v 0.002796 0.256754 0.101333
v 0.153800 0.371930 0.019929
v 0.002103 0.304376 0.043475
v 0.075184 0.360117 0.004078
v -0.103313 0.294010 0.074407
v -0.103313 0.463268 -0.044109
v -0.050000 0.322700 0.030242
v -0.050000 0.404615 -0.027116
v 0.103313 0.294010 0.074407
v 0.103313 0.463268 -0.044109
v 0.050000 0.322700 0.030242
v 0.050000 0.404615 -0.027116
v -0.031982 0.381860 0.021083
v 0.006126 0.410927 0.000540
v 0.041719 0.379830 0.022567
v 0.003611 0.350763 0.043110
v -0.023166 0.360166 0.036315
v -0.023166 0.402880 0.006406
v 0.028978 0.402880 0.006406
v 0.028978 0.360166 0.036315
v -0.138243 0.379977 0.014051
v 0.012760 0.495153 -0.067353
v 0.153800 0.371930 0.019929
v 0.002796 0.256754 0.101333
v -0.103313 0.294010 0.074407
v -0.103313 0.463268 -0.044109
v 0.103313 0.463268 -0.044109
v 0.103313 0.294010 0.074407
v -0.031982 0.381860 0.021083
v 0.006126 0.410927 0.000540
v 0.041719 0.379830 0.022567
v 0.003611 0.350763 0.043110
v -0.023166 0.360166 0.036315
v -0.023166 0.402880 0.006406
v 0.028978 0.402880 0.006406
v 0.028978 0.360166 0.036315
v -0.317334 0.423597 0.053970
v 0.023933 0.683894 -0.130002
v 0.342681 0.405410 0.067255
v 0.001414 0.145113 0.251226
v -0.238391 0.238566 0.202187
v -0.238391 0.621087 -0.065658
v 0.228581 0.621087 -0.065658
v 0.228581 0.238566 0.202187
v -0.077183 0.398112 0.042318
v 0.008940 0.463801 -0.004110
v 0.089380 0.393522 0.045670
v 0.003257 0.327833 0.092098
v -0.057261 0.349362 0.076432
v -0.057261 0.445896 0.008838
v 0.060586 0.445896 0.008838
v 0.060586 0.349362 0.076432
v -0.035000 -0.500000 0.035000
v -0.035000 0.184391 0.035000
v -0.035000 -0.500000 -0.035000
v -0.035000 0.184391 -0.035000
v 0.035000 -0.500000 0.035000
v 0.035000 0.184391 0.035000
v 0.035000 -0.500000 -0.035000
v 0.035000 0.184391 -0.035000
v -0.035000 0.333512 0.019720
v -0.035000 0.391344 -0.019720
v 0.035000 0.391344 -0.019720
v 0.035000 0.333512 0.019720
v 0.087425 -0.085054 -0.162580
v 0.077405 -0.067479 -0.188914
v 0.084642 -0.077598 -0.156546
v 0.074623 -0.060023 -0.182879
v 0.041458 -0.086454 -0.182042
v 0.066404 -0.067815 -0.193571
v 0.038676 -0.078998 -0.176007
v 0.063622 -0.060359 -0.187536
v 0.060457 -0.136463 -0.082870
v 0.063239 -0.143919 -0.088905
v 0.005655 -0.138133 -0.106072
v 0.008437 -0.145589 -0.112107
v 0.033415 -0.168938 -0.039201
v 0.036197 -0.176394 -0.045235
v -0.005215 -0.170115 -0.055556
v -0.002433 -0.177571 -0.061590
v 0.010704 -0.186030 -0.013656
v 0.013486 -0.193486 -0.019691
v -0.006884 -0.186566 -0.021102
v -0.004102 -0.194022 -0.027137
v -0.037638 -0.044521 0.180717
v -0.020551 -0.026947 0.203120
v -0.036685 -0.037066 0.174141
v -0.019597 -0.019491 0.196543
v 0.011963 -0.045922 0.186319
v -0.008680 -0.027282 0.204460
v 0.012917 -0.038466 0.179743
v -0.007727 -0.019826 0.197884
v -0.034426 -0.095931 0.096631
v -0.035379 -0.103387 0.103207
v 0.024710 -0.097601 0.103309
v 0.023757 -0.105057 0.109885
v -0.020902 -0.128406 0.047078
v -0.021855 -0.135862 0.053654
v 0.020782 -0.129583 0.051786
v 0.019829 -0.137039 0.058362
v -0.006384 -0.145498 0.016134
v -0.007337 -0.152954 0.022710
v 0.012595 -0.146034 0.018278
v 0.011642 -0.153490 0.024854
v 0.154577 0.128933 0.100903
v 0.181665 0.146508 0.093154
v 0.148800 0.136389 0.097619
v 0.175888 0.153964 0.089870
v 0.177868 0.127533 0.056753
v 0.187239 0.146172 0.082588
v 0.172091 0.134989 0.053469
v 0.181462 0.153628 0.079304
v 0.077442 0.077524 0.067271
v 0.083219 0.070068 0.070555
v 0.105210 0.075854 0.014634
v 0.110987 0.068398 0.017918
v 0.036224 0.045049 0.036620
v 0.042001 0.037593 0.039904
v 0.055798 0.043872 -0.000482
v 0.061574 0.036416 0.002802
v 0.012699 0.027957 0.011824
v 0.018475 0.020501 0.015108
v 0.021610 0.027421 -0.005068
v 0.027387 0.019965 -0.001784
v -0.112429 0.064635 -0.146407
v -0.140556 0.082209 -0.148067
v -0.108066 0.072091 -0.141395
v -0.136193 0.089665 -0.143055
v -0.149029 0.063234 -0.112464
v -0.149314 0.081874 -0.139944
v -0.144666 0.070690 -0.107452
v -0.144952 0.089330 -0.134932
v -0.050789 0.013226 -0.089124
v -0.055152 0.005770 -0.094136
v -0.094424 0.011556 -0.048656
v -0.098787 0.004100 -0.053668
v -0.022050 -0.019249 -0.046551
v -0.026413 -0.026705 -0.051564
v -0.052808 -0.020426 -0.018026
v -0.057171 -0.027882 -0.023039
v -0.008065 -0.036342 -0.015363
v -0.012428 -0.043797 -0.020375
v -0.022069 -0.036877 -0.002375
v -0.026432 -0.044333 -0.007387
v 0.020626 0.316777 -0.183439
v 0.001524 0.334351 -0.204151
v 0.020290 0.324233 -0.176803
v 0.001188 0.341807 -0.197514
v -0.029282 0.315376 -0.184392
v -0.010419 0.334016 -0.204379
v -0.029618 0.322832 -0.177756
v -0.010755 0.341472 -0.197742
v 0.025267 0.265368 -0.099419
v 0.025603 0.257912 -0.106056
v -0.034234 0.263698 -0.100555
v -0.033898 0.256242 -0.107192
v 0.016422 0.232893 -0.048822
v 0.016758 0.225437 -0.055458
v -0.025519 0.231716 -0.049622
v -0.025183 0.224260 -0.056259
v 0.004852 0.215800 -0.016659
v 0.005188 0.208344 -0.023295
v -0.014244 0.215264 -0.017024
v -0.013908 0.207809 -0.023660
vn -1.0000 -0.0000 -0.0000
vn -0.0000 -0.0000 -1.0000
vn 1.0000 -0.0000 -0.0000
vn -0.0000 -0.0000 1.0000
vn -0.0000 -1.0000 -0.0000
vn -0.0000 0.5634 0.8262
vn -0.0000 0.1019 0.9948
vn -0.0000 0.0736 -0.9973
vn -0.2363 -0.3348 -0.9122
vn 0.0005 -0.5776 -0.8163
vn 0.2373 -0.7487 -0.6190
vn 0.5984 0.7879 0.1455
vn 0.5984 0.7879 0.1454
vn -0.2732 -0.7443 -0.6094
vn 0.2365 -0.3666 -0.8998
vn -0.3470 -0.5379 -0.7683
vn -0.0000 -0.5736 -0.8191
vn 0.3470 -0.5379 -0.7683
vn 0.5983 0.7880 0.1454
vn -0.0000 -0.8386 -0.5448
vn -0.0000 -0.2783 -0.9605
vn -0.0005 0.5776 0.8163
vn -0.0000 0.5736 0.8191
vn 0.5983 0.7880 0.1455
vn 0.5983 0.7879 0.1455
vn -0.0000 -0.9174 -0.3980
vn -0.6448 0.4384 0.6261
vn 0.5028 -0.4958 -0.7081
vn 0.6161 0.4518 0.6453
vn -0.4748 -0.5048 -0.7209
vn -0.4575 0.1020 0.8833
vn 0.2830 -0.3172 -0.9051
vn 0.4653 0.8004 0.3780
vn 0.0940 0.4895 0.8669
vn -0.0000 0.3913 0.9203
vn -0.2287 0.5584 0.7974
vn 0.1057 0.6525 0.7504
vn 0.2129 0.5604 0.8004
vn -0.0000 0.7503 0.6611
vn -0.0968 0.4991 0.8611
vn -0.0946 0.6543 0.7503
vn -0.0000 0.9656 0.2600
vn -0.0000 -0.1353 -0.9908
vn -0.2747 -0.2882 -0.9173
vn -0.0000 -0.0564 0.9984
vn 0.4408 0.0553 0.8959
vn 0.2800 -0.7712 -0.5718
vn -0.4214 0.8225 0.3820
vn -0.3121 -0.7605 -0.5693
vn 0.9118 0.4032 -0.0778
vn -0.2786 0.7465 0.6042
vn -0.5984 0.3572 -0.7172
vn 0.2786 -0.7465 -0.6042
vn -0.9058 0.0049 -0.4236
vn 0.2739 0.6648 -0.6950
vn -0.9507 -0.1251 -0.2838
vn 0.2572 -0.7944 -0.5503
vn -0.2572 0.7944 0.5503
vn 0.9329 0.0609 0.3549
vn 0.7915 -0.1779 0.5847
vn 0.8705 -0.0696 0.4873
vn 0.2308 -0.8438 -0.4845
vn -0.2308 0.8438 0.4845
vn -0.2740 -0.6648 0.6950
vn 0.2023 -0.8875 -0.4140
vn -0.2023 0.8875 0.4140
vn -0.9602 -0.2312 -0.1569
vn -0.8521 0.4033 0.3336
vn 0.0954 0.7465 -0.6585
vn 0.7774 0.3572 0.5177
vn -0.0954 -0.7465 0.6584
vn 0.9888 0.0048 0.1488
vn -0.0653 0.6648 0.7442
vn 0.9921 -0.1251 0.0020
vn -0.0903 -0.7944 0.6007
vn 0.0903 0.7944 -0.6007
vn -0.9953 0.0609 -0.0752
vn -0.9250 -0.1779 -0.3357
vn -0.9730 -0.0696 -0.2199
vn -0.0837 -0.8438 0.5301
vn 0.0837 0.8438 -0.5301
vn 0.0653 -0.6647 -0.7442
vn -0.0764 -0.8875 0.4544
vn 0.0764 0.8875 -0.4544
vn 0.9652 -0.2312 -0.1223
vn 0.0002 0.4032 0.9151
vn -0.5784 0.7465 -0.3288
vn 0.7654 0.3572 -0.5353
vn 0.5784 -0.7465 0.3288
vn 0.4989 0.0049 -0.8666
vn 0.6693 0.6648 0.3319
vn 0.3634 -0.1251 -0.9232
vn 0.5265 -0.7944 0.3029
vn -0.5265 0.7944 -0.3029
vn -0.4327 0.0609 0.8995
vn -0.6497 -0.1779 0.7391
vn -0.5594 -0.0696 0.8260
vn 0.4632 -0.8438 0.2711
vn -0.4632 0.8438 -0.2711
vn -0.6693 -0.6647 -0.3320
vn 0.3953 -0.8875 0.2367
vn -0.3953 0.8875 -0.2367
vn 0.2378 -0.2313 -0.9434
vn 0.3029 0.4032 -0.8635
vn 0.4368 0.7465 0.5018
vn -0.8995 0.3572 0.2516
vn -0.4368 -0.7465 -0.5018
vn -0.7578 0.0049 0.6525
vn -0.5215 0.6647 -0.5349
vn -0.6487 -0.1251 0.7507
vn -0.3964 -0.7944 -0.4602
vn 0.3964 0.7944 0.4602
vn 0.7062 0.0609 -0.7053
vn 0.8578 -0.1779 -0.4821
vn 0.8014 -0.0696 -0.5941
vn -0.3472 -0.8438 -0.4092
vn 0.3472 0.8438 0.4092
vn 0.5215 -0.6648 0.5349
vn -0.2946 -0.8875 -0.3543
vn 0.2946 0.8875 0.3543
vn -0.5369 -0.2313 0.8113
vn 0.8173 0.4032 -0.4116
vn -0.0336 0.7465 0.6645
vn -0.8223 0.3572 -0.4429
vn 0.0336 -0.7466 -0.6645
vn -0.9984 0.0048 -0.0560
vn -0.0044 0.6648 -0.7470
vn -0.9880 -0.1251 0.0905
vn 0.0339 -0.7944 -0.6065
vn -0.0339 0.7944 0.6065
vn 0.9980 0.0609 -0.0179
vn 0.9523 -0.1779 0.2480
vn 0.9893 -0.0696 0.1283
vn 0.0339 -0.8438 -0.5356
vn -0.0339 0.8438 0.5356
vn 0.0044 -0.6647 0.7471
vn 0.0337 -0.8875 -0.4595
vn -0.0337 0.8875 0.4596
vn -0.9496 -0.2313 0.2117
vt 0.275105 0.386412
vt 0.394055 0.386412
vt 0.394055 0.560217
vt 0.275105 0.560217
vt 0.603829 0.386412
vt 0.484879 0.386412
vt 0.484879 0.212608
vt 0.603829 0.212608
vt 0.430025 0.386412
vt 0.548975 0.386412
vt 0.548975 0.560217
vt 0.430025 0.560217
vt 0.722779 0.386412
vt 0.722779 0.212608
vt 0.448909 0.212608
vt 0.448909 0.386412
vt 0.275105 0.212608
vt 0.584944 0.424352
vt 0.574893 0.522277
vt 0.584944 0.560217
vt 0.584944 0.386412
vt 0.680359 0.386412
vt 0.680359 0.560217
vt 0.419973 0.424352
vt 0.430025 0.522277
vt 0.724895 0.386412
vt 0.724895 0.560217
vt 0.686272 0.530942
vt 0.686272 0.407661
vt 0.718274 0.442051
vt 0.718274 0.501715
vt 0.778406 0.442049
vt 0.778406 0.501713
vt 0.810520 0.407656
vt 0.810520 0.530937
vt 0.407409 0.406556
vt 0.810510 0.654227
vt 0.686272 0.654227
vt 0.720860 0.622395
vt 0.780987 0.622395
vt 0.720862 0.562729
vt 0.780989 0.562729
vt 0.686275 0.530942
vt 0.810513 0.530942
vt 0.686272 0.685227
vt 0.717503 0.654462
vt 0.717503 0.685462
vt 0.687117 0.127932
vt 0.718253 0.127939
vt 0.718253 0.159051
vt 0.687117 0.159044
vt 0.335436 0.604504
vt 0.335436 0.481219
vt 0.407409 0.685179
vt 0.550166 0.526865
vt 0.519029 0.526858
vt 0.501897 0.507962
vt 0.572266 0.507979
vt 0.211199 0.481222
vt 0.126633 0.406563
vt 0.519029 0.557970
vt 0.550166 0.557977
vt 0.572266 0.578293
vt 0.501897 0.578276
vt 0.211199 0.604507
vt 0.126633 0.685186
vt 0.561133 0.260460
vt 0.529902 0.260225
vt 0.510896 0.238887
vt 0.581478 0.239419
vt 0.329727 0.210038
vt 0.205479 0.210043
vt 0.126633 0.127942
vt 0.407432 0.127932
vt 0.529902 0.291225
vt 0.561133 0.291460
vt 0.581478 0.309479
vt 0.510896 0.308946
vt 0.687117 0.130042
vt 0.687117 0.407656
vt 0.686272 0.407723
vt 0.686272 0.686345
vt 0.407432 0.407656
vt 0.407432 0.405546
vt 0.407432 0.686278
vt 0.205479 0.333324
vt 0.126633 0.406556
vt 0.329727 0.333320
vt 0.407432 0.406546
vt 0.375000 0.000000
vt 0.625000 0.000000
vt 0.625000 0.250000
vt 0.375000 0.250000
vt 0.625000 0.500000
vt 0.375000 0.500000
vt 0.625000 0.750000
vt 0.375000 0.750000
vt 0.625000 1.000000
vt 0.375000 1.000000
vt 0.875000 0.500000
vt 0.875000 0.750000
vt 0.125000 0.500000
vt 0.125000 0.750000
s 1
g flower_4_Stem
usemtl Stem
f 57/1/1 58/2/1 60/3/1 59/4/1
f 59/5/2 60/6/2 64/7/2 63/8/2
f 63/9/3 64/10/3 62/11/3 61/12/3
f 61/13/4 62/5/4 58/8/4 57/14/4
f 59/15/5 63/16/5 61/1/5 57/17/5
f 62/11/3 64/10/3 67/18/3 68/19/3
f 67/20/6 66/21/6 65/22/6 68/23/6
f 60/3/1 58/2/1 65/24/1 66/25/1
f 58/26/7 62/27/7 68/23/7 65/22/7
f 64/7/8 60/6/8 66/16/8 67/15/8
g flower_4_Flower
usemtl Flower
f 1/28/9 2/29/9 4/30/9 3/31/9
f 3/31/10 4/30/10 8/32/10 7/33/10
f 7/33/11 8/32/11 6/34/11 5/35/11
s 0
f 17/36/12 18/36/4 34/36/13 33/36/4
s 1
f 3/31/14 7/33/14 5/35/14 1/28/14
f 8/32/15 4/30/15 2/29/15 6/34/15
f 9/37/16 10/38/16 12/39/16 11/40/16
f 11/40/17 12/39/17 16/41/17 15/42/17
f 15/42/18 16/41/18 14/43/18 13/44/18
s 0
f 5/36/12 6/36/4 27/36/19 28/36/4
s 1
f 11/40/20 15/42/20 13/44/20 9/37/20
f 16/41/21 12/39/21 10/38/21 14/43/21
f 20/45/22 19/38/22 18/46/22 17/47/22
f 24/48/23 23/49/23 22/50/23 21/51/23
s 0
f 22/36/24 23/36/4 39/36/24 38/36/4
f 2/36/19 1/36/4 25/36/25 26/36/4
f 14/36/24 10/36/4 30/36/24 31/36/4
f 24/36/24 21/36/4 37/36/24 40/36/4
f 9/36/24 13/36/4 32/36/24 29/36/4
f 23/36/12 24/36/4 40/36/25 39/36/4
s 1
f 29/52/26 32/53/26 48/36/26 45/54/26
f 39/55/27 40/56/27 56/57/27 55/58/27
f 32/53/28 31/59/28 47/60/28 48/36/28
f 37/61/29 38/62/29 54/63/29 53/64/29
f 30/65/30 29/52/30 45/54/30 46/66/30
f 34/67/31 35/68/31 51/69/31 50/70/31
f 27/71/32 26/72/32 42/73/32 43/74/32
f 36/75/33 33/76/33 49/77/33 52/78/33
s 0
f 1/36/25 5/36/4 28/36/12 25/36/4
f 19/36/13 20/36/4 36/36/12 35/36/4
f 6/36/12 2/36/4 26/36/25 27/36/4
f 20/36/12 17/36/4 33/36/25 36/36/4
f 18/36/25 19/36/4 35/36/12 34/36/4
f 10/36/12 9/36/4 29/36/25 30/36/4
f 21/36/25 22/36/4 38/36/12 37/36/4
f 13/36/25 14/36/4 31/36/12 32/36/4
s 1
f 42/79/34 41/80/34 49/77/34 50/70/34
f 47/81/35 46/82/35 54/63/35 55/58/35
f 48/83/36 47/81/36 55/58/36 56/57/36
f 41/80/37 44/84/37 52/78/37 49/77/37
f 46/82/38 45/85/38 53/64/38 54/63/38
f 45/85/39 48/83/39 56/57/39 53/64/39
f 43/74/40 42/79/40 50/70/40 51/69/40
f 44/84/41 43/74/41 51/69/41 52/78/41
f 40/56/42 37/61/42 53/64/42 56/57/42
f 31/59/43 30/65/43 46/66/43 47/60/43
f 26/72/44 25/86/44 41/87/44 42/73/44
f 38/62/45 39/55/45 55/58/45 54/63/45
f 33/76/46 34/67/46 50/70/46 49/77/46
f 28/88/47 27/71/47 43/74/47 44/89/47
f 35/68/48 36/75/48 52/78/48 51/69/48
f 25/86/49 28/88/49 44/89/49 41/87/49
g flower_4_Leaf
usemtl Leaf
f 69/90/50 70/91/50 72/92/50 71/93/50
f 71/93/51 72/92/51 76/94/51 75/95/51
f 75/95/52 76/94/52 74/96/52 73/97/52
f 73/97/53 74/96/53 70/98/53 69/99/53
f 75/95/54 73/97/54 80/97/54 79/95/54
f 76/94/55 72/100/55 70/101/55 74/96/55
f 79/95/56 80/97/56 84/97/56 83/95/56
f 73/97/57 69/99/57 78/99/57 80/97/57
f 71/93/58 75/95/58 79/95/58 77/93/58
f 69/90/59 71/93/59 77/93/59 78/90/59
f 82/90/60 81/93/60 85/93/60 86/90/60
f 78/90/61 77/93/61 81/93/61 82/90/61
f 80/97/62 78/99/62 82/99/62 84/97/62
f 77/93/63 79/95/63 83/95/63 81/93/63
f 85/102/64 87/95/64 88/97/64 86/103/64
f 84/97/65 82/99/65 86/99/65 88/97/65
f 81/93/66 83/95/66 87/95/66 85/93/66
f 83/95/67 84/97/67 88/97/67 87/95/67
f 89/90/68 90/91/68 92/92/68 91/93/68
f 91/93/69 92/92/69 96/94/69 95/95/69
f 95/95/70 96/94/70 94/96/70 93/97/70
f 93/97/71 94/96/71 90/98/71 89/99/71
f 95/95/72 93/97/72 100/97/72 99/95/72
f 96/94/73 92/100/73 90/101/73 94/96/73
f 99/95/74 100/97/74 104/97/74 103/95/74
f 93/97/75 89/99/75 98/99/75 100/97/75
f 91/93/76 95/95/76 99/95/76 97/93/76
f 89/90/77 91/93/77 97/93/77 98/90/77
f 102/90/78 101/93/78 105/93/78 106/90/78
f 98/90/79 97/93/79 101/93/79 102/90/79
f 100/97/80 98/99/80 102/99/80 104/97/80
f 97/93/81 99/95/81 103/95/81 101/93/81
f 105/102/82 107/95/82 108/97/82 106/103/82
f 104/97/83 102/99/83 106/99/83 108/97/83
f 101/93/84 103/95/84 107/95/84 105/93/84
f 103/95/85 104/97/85 108/97/85 107/95/85
f 109/90/86 110/91/86 112/92/86 111/93/86
f 111/93/87 112/92/87 116/94/87 115/95/87
f 115/95/88 116/94/88 114/96/88 113/97/88
f 113/97/89 114/96/89 110/98/89 109/99/89
f 115/95/90 113/97/90 120/97/90 119/95/90
f 116/94/91 112/100/91 110/101/91 114/96/91
f 119/95/92 120/97/92 124/97/92 123/95/92
f 113/97/93 109/99/93 118/99/93 120/97/93
f 111/93/94 115/95/94 119/95/94 117/93/94
f 109/90/95 111/93/95 117/93/95 118/90/95
f 122/90/96 121/93/96 125/93/96 126/90/96
f 118/90/97 117/93/97 121/93/97 122/90/97
f 120/97/98 118/99/98 122/99/98 124/97/98
f 117/93/99 119/95/99 123/95/99 121/93/99
f 125/102/100 127/95/100 128/97/100 126/103/100
f 124/97/101 122/99/101 126/99/101 128/97/101
f 121/93/102 123/95/102 127/95/102 125/93/102
f 123/95/103 124/97/103 128/97/103 127/95/103
f 129/90/104 130/91/104 132/92/104 131/93/104
f 131/93/105 132/92/105 136/94/105 135/95/105
f 135/95/106 136/94/106 134/96/106 133/97/106
f 133/97/107 134/96/107 130/98/107 129/99/107
f 135/95/108 133/97/108 140/97/108 139/95/108
f 136/94/109 132/100/109 130/101/109 134/96/109
f 139/95/110 140/97/110 144/97/110 143/95/110
f 133/97/111 129/99/111 138/99/111 140/97/111
f 131/93/112 135/95/112 139/95/112 137/93/112
f 129/90/113 131/93/113 137/93/113 138/90/113
f 142/90/114 141/93/114 145/93/114 146/90/114
f 138/90/115 137/93/115 141/93/115 142/90/115
f 140/97/116 138/99/116 142/99/116 144/97/116
f 137/93/117 139/95/117 143/95/117 141/93/117
f 145/102/118 147/95/118 148/97/118 146/103/118
f 144/97/119 142/99/119 146/99/119 148/97/119
f 141/93/120 143/95/120 147/95/120 145/93/120
f 143/95/121 144/97/121 148/97/121 147/95/121
f 149/90/122 150/91/122 152/92/122 151/93/122
f 151/93/123 152/92/123 156/94/123 155/95/123
f 155/95/124 156/94/124 154/96/124 153/97/124
f 153/97/125 154/96/125 150/98/125 149/99/125
f 155/95/126 153/97/126 160/97/126 159/95/126
f 156/94/127 152/100/127 150/101/127 154/96/127
f 159/95/128 160/97/128 164/97/128 163/95/128
f 153/97/129 149/99/129 158/99/129 160/97/129
f 151/93/130 155/95/130 159/95/130 157/93/130
f 149/90/131 151/93/131 157/93/131 158/90/131
f 162/90/132 161/93/132 165/93/132 166/90/132
f 158/90/133 157/93/133 161/93/133 162/90/133
f 160/97/134 158/99/134 162/99/134 164/97/134
f 157/93/135 159/95/135 163/95/135 161/93/135
f 165/102/136 167/95/136 168/97/136 166/103/136
f 164/97/137 162/99/137 166/99/137 168/97/137
f 161/93/138 163/95/138 167/95/138 165/93/138
f 163/95/139 164/97/139 168/97/139 167/95/139
