# Blender 4.2.3 LTS
# www.blender.org
mtllib rock.mtl
o Cube
v -0.262206 -0.524440 0.205067
v -0.270167 -0.428018 0.211140
v -0.309361 -0.573272 -0.291085
v -0.320872 -0.435189 -0.309976
v 0.391033 -0.555985 0.222645
v 0.381684 -0.431386 0.211884
v 0.389900 -0.618358 -0.277979
v 0.406251 -0.470960 -0.289915
v 0.065842 -0.583357 -0.265424
v 0.060859 -0.432007 -0.297339
v 0.052080 -0.573840 0.207946
v 0.052455 -0.457515 0.204789
v -0.292118 -0.578099 -0.042458
v -0.304027 -0.441863 -0.047702
v 0.407592 -0.586630 -0.000915
v 0.394927 -0.436300 -0.004722
v 0.015513 -0.321231 -0.019874
v 0.036287 -0.694702 -0.020522
v -0.087518 -0.579487 -0.299642
v -0.102642 -0.437772 0.207490
v -0.086026 -0.491488 -0.312237
v -0.113255 -0.585171 0.216303
v -0.110605 -0.665953 -0.030513
v -0.126369 -0.306919 -0.023425
v -0.301159 -0.441509 -0.143527
v 0.390513 -0.601551 -0.106577
v -0.295002 -0.581504 -0.143897
v 0.397015 -0.436973 -0.108230
v 0.041764 -0.359292 -0.129925
v 0.041156 -0.659612 -0.137902
v -0.111172 -0.337045 -0.150272
v -0.108720 -0.715453 -0.134615
v -0.322120 -0.582712 0.088402
v 0.386632 -0.395841 0.091675
v 0.017281 -0.325449 0.084424
v 0.042149 -0.674645 0.085458
v -0.354451 -0.394017 0.100548
v 0.433824 -0.563366 0.081996
v -0.116110 -0.704837 0.082125
v -0.127091 -0.367412 0.079975
v 0.207354 -0.423284 -0.382491
v 0.173751 -0.589689 0.224063
v 0.212609 -0.616601 -0.358446
v 0.167510 -0.451325 0.215309
v 0.164404 -0.318511 -0.009871
v 0.201956 -0.691182 -0.008853
v 0.187527 -0.687484 -0.107730
v 0.180604 -0.333549 -0.127062
v 0.171107 -0.312457 0.089690
v 0.186808 -0.685286 0.096063
v 0.344527 -0.425840 -0.351718
v 0.294231 -0.599054 0.240751
v 0.292555 -0.355385 -0.006664
v 0.290280 -0.354241 -0.110428
v 0.330204 -0.308598 0.091217
v 0.341755 -0.640443 -0.322154
v 0.310516 -0.405706 0.251333
v 0.334207 -0.664234 0.004375
v 0.332337 -0.673168 -0.101124
v 0.307325 -0.710854 0.096784
v -0.235048 -0.556658 -0.299009
v -0.201041 -0.450509 0.204627
v -0.222579 -0.662733 -0.038728
v -0.228916 -0.364795 -0.322851
v -0.202778 -0.568665 0.212662
v -0.240980 -0.375424 -0.028847
v -0.212459 -0.658809 -0.134873
v -0.234572 -0.381615 -0.145786
v -0.224867 -0.674741 0.085937
v -0.266944 -0.356470 0.090850
v -0.336308 -0.411629 -0.252340
v 0.397935 -0.621990 -0.221492
v -0.321690 -0.592083 -0.241682
v 0.418441 -0.436598 -0.215933
v 0.053907 -0.385649 -0.252076
v 0.058832 -0.626933 -0.208064
v -0.092536 -0.382820 -0.285632
v -0.100656 -0.688544 -0.224806
v 0.178170 -0.300301 -0.314988
v 0.185990 -0.685935 -0.268791
v 0.338571 -0.304591 -0.276072
v 0.311463 -0.717469 -0.219628
v -0.237906 -0.344336 -0.289408
v -0.221894 -0.649965 -0.234070
v -0.292085 -0.552222 0.166526
v 0.384794 -0.387001 0.154533
v 0.038236 -0.373727 0.174175
v 0.035463 -0.669166 0.167060
v -0.113996 -0.670918 0.164691
v -0.120526 -0.399952 0.159724
v -0.310500 -0.401093 0.177641
v 0.415670 -0.560574 0.154292
v 0.170875 -0.376800 0.173221
v 0.182357 -0.661773 0.168428
v 0.339151 -0.283085 0.174105
v 0.294076 -0.680345 0.171398
v -0.212836 -0.648318 0.159922
v -0.216145 -0.423381 0.142297
vn -0.9640 -0.1019 -0.2455
vn 0.6763 -0.1191 -0.7270
vn 0.9570 0.1381 0.2550
vn -0.0037 0.0090 1.0000
vn 0.5665 -0.6503 0.5062
vn 0.3249 0.8917 0.3150
vn -0.0403 0.4147 0.9091
vn 0.0359 -0.4573 0.8886
vn -0.1099 0.0439 0.9930
vn 0.1907 -0.1768 -0.9656
vn 0.0892 -0.9937 0.0674
vn -0.0848 0.9666 -0.2417
vn -0.6938 0.7185 -0.0500
vn 0.7503 -0.6610 0.0073
vn 0.9972 0.0183 -0.0728
vn -0.9583 -0.1250 -0.2568
vn 0.1392 0.9578 -0.2514
vn -0.2693 -0.9424 0.1983
vn -0.0319 -0.1282 -0.9912
vn -0.1457 -0.5211 0.8410
vn -0.0426 0.5333 0.8449
vn 0.0356 0.0438 0.9984
vn -0.3781 -0.9102 -0.1691
vn 0.1260 0.9591 -0.2536
vn 0.9878 -0.0777 0.1350
vn 0.7520 -0.6451 0.1356
vn -0.5392 0.7898 0.2923
vn -0.3874 0.9219 0.0084
vn 0.3516 -0.8945 -0.2760
vn -0.9979 -0.0652 0.0011
vn -0.1000 0.9498 0.2964
vn -0.1417 -0.9669 -0.2120
vn -0.8811 -0.1620 0.4444
vn 0.0085 -0.9963 -0.0858
vn -0.0515 0.9987 -0.0069
vn -0.5196 0.7825 -0.3432
vn 0.7411 -0.6658 -0.0859
vn 0.9691 0.1855 -0.1629
vn -0.0314 -0.9922 0.1207
vn 0.1142 0.9530 -0.2807
vn 0.0419 0.9715 0.2332
vn -0.3150 -0.9354 -0.1605
vn -0.0534 -0.9833 -0.1740
vn 0.2386 0.9700 -0.0460
vn -0.1962 0.0005 0.9806
vn -0.3290 0.5275 0.7833
vn -0.0720 -0.4956 0.8656
vn -0.5225 -0.1517 -0.8391
vn 0.7060 0.3581 0.6110
vn 0.3248 -0.0066 0.9458
vn 0.6163 0.7875 0.0012
vn 0.6768 0.6740 0.2960
vn 0.6737 0.6307 -0.3850
vn 0.0163 -0.9799 -0.1988
vn -0.0952 -0.9829 0.1579
vn 0.1463 -0.9891 0.0137
vn -0.1405 -0.6301 0.7637
vn 0.2306 -0.1254 -0.9649
vn -0.2149 0.9644 0.1539
vn -0.7200 -0.6807 -0.1353
vn -0.0227 0.9992 -0.0317
vn -0.5983 -0.7927 0.1167
vn -0.4727 -0.4619 0.7505
vn -0.0563 -0.1291 -0.9900
vn -0.7275 -0.6855 -0.0284
vn -0.4223 0.8904 -0.1701
vn -0.2084 0.8138 0.5425
vn -0.0332 0.0648 0.9973
vn -0.1682 -0.7044 -0.6895
vn 0.2901 0.4319 -0.8540
vn 0.0277 -0.7992 -0.6004
vn 0.8274 0.3716 -0.4210
vn -0.5345 -0.6068 -0.5883
vn 0.2065 0.5167 -0.8309
vn 0.2377 -0.6537 -0.7185
vn -0.5421 0.3826 -0.7482
vn -0.5944 0.6500 -0.4735
vn 0.6803 -0.6877 -0.2536
vn 0.9857 -0.1116 -0.1265
vn 0.0672 0.4244 -0.9030
vn -0.1029 -0.5653 -0.8184
vn -0.9580 -0.0531 0.2818
vn -0.0587 0.7830 0.6192
vn -0.6527 -0.6325 0.4171
vn -0.1818 -0.9299 0.3199
vn 0.8650 0.4773 -0.1547
vn -0.0185 -0.9828 0.1837
vn -0.2794 0.9317 0.2320
vn -0.7099 -0.1238 0.6933
vn -0.2227 0.8654 0.4488
vn -0.2304 -0.9008 0.3680
vn 0.0961 -0.9673 0.2348
vn -0.0372 0.8359 0.5477
vn 0.0436 0.8794 0.4740
vn 0.7174 -0.6306 0.2963
vn 0.9680 0.2179 0.1244
vt 0.375000 0.220753
vt 0.625000 0.220753
vt 0.625000 0.250000
vt 0.375000 0.250000
vt 0.375000 0.467292
vt 0.625000 0.467292
vt 0.625000 0.500000
vt 0.375000 0.500000
vt 0.375000 0.718750
vt 0.625000 0.718750
vt 0.625000 0.750000
vt 0.375000 0.750000
vt 0.375000 0.968750
vt 0.625000 0.968750
vt 0.625000 1.000000
vt 0.375000 1.000000
vt 0.342292 0.718750
vt 0.342292 0.750000
vt 0.843750 0.718750
vt 0.875000 0.718750
vt 0.875000 0.750000
vt 0.843750 0.750000
vt 0.690417 0.718750
vt 0.750000 0.718750
vt 0.750000 0.750000
vt 0.690417 0.750000
vt 0.187500 0.718750
vt 0.250000 0.718750
vt 0.250000 0.750000
vt 0.187500 0.750000
vt 0.375000 0.815417
vt 0.625000 0.815417
vt 0.625000 0.875000
vt 0.375000 0.875000
vt 0.375000 0.312500
vt 0.625000 0.312500
vt 0.625000 0.375000
vt 0.375000 0.375000
vt 0.187500 0.562500
vt 0.250000 0.562500
vt 0.250000 0.625000
vt 0.187500 0.625000
vt 0.690417 0.562500
vt 0.750000 0.562500
vt 0.750000 0.625000
vt 0.690417 0.625000
vt 0.843750 0.562500
vt 0.875000 0.562500
vt 0.875000 0.625000
vt 0.843750 0.625000
vt 0.342292 0.562500
vt 0.375000 0.562500
vt 0.375000 0.625000
vt 0.342292 0.625000
vt 0.625000 0.562500
vt 0.625000 0.625000
vt 0.375000 0.062500
vt 0.625000 0.062500
vt 0.625000 0.125000
vt 0.375000 0.125000
vt 0.812500 0.562500
vt 0.812500 0.625000
vt 0.156250 0.562500
vt 0.156250 0.625000
vt 0.375000 0.281250
vt 0.625000 0.281250
vt 0.156250 0.718750
vt 0.156250 0.750000
vt 0.812500 0.718750
vt 0.812500 0.750000
vt 0.625000 0.937500
vt 0.375000 0.937500
vt 0.156250 0.529247
vt 0.187500 0.529247
vt 0.750000 0.529247
vt 0.812500 0.529247
vt 0.375000 0.529247
vt 0.625000 0.529247
vt 0.342292 0.529247
vt 0.843750 0.529247
vt 0.875000 0.529247
vt 0.690417 0.529247
vt 0.250000 0.529247
vt 0.625000 0.187500
vt 0.375000 0.187500
vt 0.812500 0.687500
vt 0.750000 0.687500
vt 0.187500 0.687500
vt 0.156250 0.687500
vt 0.375000 0.031250
vt 0.625000 0.031250
vt 0.250000 0.687500
vt 0.690417 0.687500
vt 0.875000 0.687500
vt 0.843750 0.687500
vt 0.375000 0.687500
vt 0.342292 0.687500
vt 0.625000 0.687500
vt 0.309583 0.625000
vt 0.309583 0.687500
vt 0.657708 0.625000
vt 0.657708 0.687500
vt 0.657708 0.529247
vt 0.657708 0.562500
vt 0.309583 0.529247
vt 0.309583 0.562500
vt 0.375000 0.782708
vt 0.625000 0.782708
vt 0.657708 0.718750
vt 0.657708 0.750000
vt 0.309583 0.718750
vt 0.309583 0.750000
vt 0.625000 0.434583
vt 0.375000 0.434583
vt 0.125000 0.625000
vt 0.125000 0.687500
vt 0.125000 0.529247
vt 0.125000 0.562500
vt 0.125000 0.718750
vt 0.125000 0.750000
vt 0.125000 0.500000
vt 0.156250 0.500000
vt 0.812500 0.500000
vt 0.843750 0.500000
vt 0.309583 0.500000
vt 0.342292 0.500000
vt 0.657708 0.500000
vt 0.250000 0.500000
vt 0.690417 0.500000
vt 0.187500 0.500000
vt 0.750000 0.500000
vt 0.875000 0.500000
vt 0.375000 0.000000
vt 0.625000 0.000000
s 0
f 73/1/1 71/2/1 4/3/1 3/4/1
f 56/5/2 51/6/2 8/7/2 7/8/2
f 92/9/3 86/10/3 6/11/3 5/12/3
f 65/13/4 62/14/4 2/15/4 1/16/4
f 96/17/5 92/9/5 5/12/5 52/18/5
f 98/19/6 91/20/6 2/21/6 62/22/6
f 93/23/7 87/24/7 12/25/7 44/26/7
f 89/27/8 88/28/8 11/29/8 22/30/8
f 42/31/9 44/32/9 12/33/9 11/34/9
f 19/35/10 21/36/10 10/37/10 9/38/10
f 32/39/11 30/40/11 18/41/11 23/42/11
f 48/43/12 29/44/12 17/45/12 45/46/12
f 68/47/13 25/48/13 14/49/13 66/50/13
f 59/51/14 26/52/14 15/53/14 58/54/14
f 26/52/15 28/55/15 16/56/15 15/53/15
f 33/57/16 37/58/16 14/59/16 13/60/16
f 29/44/17 31/61/17 24/62/17 17/45/17
f 67/63/18 32/39/18 23/42/18 63/64/18
f 61/65/19 64/66/19 21/36/19 19/35/19
f 97/67/20 89/27/20 22/30/20 65/68/20
f 87/24/21 90/69/21 20/70/21 12/25/21
f 11/34/22 12/33/22 20/71/22 22/72/22
f 84/73/23 78/74/23 32/39/23 67/63/23
f 75/75/24 77/76/24 31/61/24 29/44/24
f 72/77/25 74/78/25 28/55/25 26/52/25
f 82/79/26 72/77/26 26/52/26 59/51/26
f 83/80/27 71/81/27 25/48/27 68/47/27
f 79/82/28 75/75/28 29/44/28 48/43/28
f 78/74/29 76/83/29 30/40/29 32/39/29
f 13/60/30 14/59/30 25/84/30 27/85/30
f 17/45/31 24/62/31 40/86/31 35/87/31
f 63/64/32 23/42/32 39/88/32 69/89/32
f 85/90/33 91/91/33 37/58/33 33/57/33
f 23/42/34 18/41/34 36/92/34 39/88/34
f 45/46/35 17/45/35 35/87/35 49/93/35
f 66/50/36 14/49/36 37/94/36 70/95/36
f 58/54/37 15/53/37 38/96/37 60/97/37
f 15/53/38 16/56/38 34/98/38 38/96/38
f 18/41/39 46/99/39 50/100/39 36/92/39
f 53/101/40 45/46/40 49/93/40 55/102/40
f 81/103/41 79/82/41 48/43/41 54/104/41
f 76/83/42 80/105/42 47/106/42 30/40/42
f 30/40/43 47/106/43 46/99/43 18/41/43
f 54/104/44 48/43/44 45/46/44 53/101/44
f 52/107/45 57/108/45 44/32/45 42/31/45
f 95/109/46 93/23/46 44/26/46 57/110/46
f 88/28/47 94/111/47 42/112/47 11/29/47
f 9/38/48 10/37/48 41/113/48 43/114/48
f 86/10/49 95/109/49 57/110/49 6/11/49
f 5/12/50 6/11/50 57/108/50 52/107/50
f 28/55/51 54/104/51 53/101/51 16/56/51
f 74/78/52 81/103/52 54/104/52 28/55/52
f 16/56/53 53/101/53 55/102/53 34/98/53
f 46/99/54 58/54/54 60/97/54 50/100/54
f 80/105/55 82/79/55 59/51/55 47/106/55
f 47/106/56 59/51/56 58/54/56 46/99/56
f 94/111/57 96/17/57 52/18/57 42/112/57
f 43/114/58 41/113/58 51/6/58 56/5/58
f 24/62/59 66/50/59 70/95/59 40/86/59
f 13/115/60 63/64/60 69/89/60 33/116/60
f 77/76/61 83/80/61 68/47/61 31/61/61
f 73/117/62 84/73/62 67/63/62 27/118/62
f 85/119/63 97/67/63 65/68/63 1/120/63
f 3/4/64 4/3/64 64/66/64 61/65/64
f 27/118/65 67/63/65 63/64/65 13/115/65
f 31/61/66 68/47/66 66/50/66 24/62/66
f 90/69/67 98/19/67 62/22/67 20/70/67
f 22/72/68 20/71/68 62/14/68 65/13/68
f 3/121/69 61/122/69 84/73/69 73/117/69
f 21/123/70 64/124/70 83/80/70 77/76/70
f 43/125/71 56/126/71 82/79/71 80/105/71
f 8/7/72 51/127/72 81/103/72 74/78/72
f 9/128/73 43/125/73 80/105/73 76/83/73
f 51/127/74 41/129/74 79/82/74 81/103/74
f 19/130/75 9/128/75 76/83/75 78/74/75
f 41/129/76 10/131/76 75/75/76 79/82/76
f 64/124/77 4/132/77 71/81/77 83/80/77
f 56/126/78 7/8/78 72/77/78 82/79/78
f 7/8/79 8/7/79 74/78/79 72/77/79
f 10/131/80 21/123/80 77/76/80 75/75/80
f 61/122/81 19/130/81 78/74/81 84/73/81
f 27/85/82 25/84/82 71/2/82 73/1/82
f 40/86/83 70/95/83 98/19/83 90/69/83
f 33/116/84 69/89/84 97/67/84 85/119/84
f 50/100/85 60/97/85 96/17/85 94/111/85
f 34/98/86 55/102/86 95/109/86 86/10/86
f 36/92/87 50/100/87 94/111/87 88/28/87
f 55/102/88 49/93/88 93/23/88 95/109/88
f 1/133/89 2/134/89 91/91/89 85/90/89
f 35/87/90 40/86/90 90/69/90 87/24/90
f 69/89/91 39/88/91 89/27/91 97/67/91
f 39/88/92 36/92/92 88/28/92 89/27/92
f 49/93/93 35/87/93 87/24/93 93/23/93
f 70/95/94 37/94/94 91/20/94 98/19/94
f 60/97/95 38/96/95 92/9/95 96/17/95
f 38/96/96 34/98/96 86/10/96 92/9/96
