g leaf
v -0.187500 -0.250000 0.062500
v -0.187500 -0.375000 -0.062500
v -0.062500 -0.375000 0.062500
v -0.187500 -0.000000 -0.062500
v -0.062500 -0.000000 0.062500
v -0.312500 -0.375000 0.187500
v -0.312500 -0.250000 0.187500
v -0.312500 -0.375000 0.062500
v -0.312500 -0.250000 0.062500
v -0.187500 -0.375000 0.187500
v -0.187500 -0.375000 0.062500
v 0.062500 -0.375000 0.062500
v -0.062500 -0.000000 0.187500
v 0.062500 -0.125000 0.187500
v 0.062500 -0.000000 0.187500
v 0.062500 -0.125000 0.062500
v -0.187500 -0.375000 0.312500
v -0.187500 -0.250000 0.312500
v -0.187500 -0.250000 0.187500
v -0.062500 -0.375000 0.312500
v -0.062500 -0.250000 0.312500
v -0.062500 -0.250000 0.187500
v 0.187500 -0.250000 0.062500
v 0.062500 -0.375000 -0.062500
v 0.187500 -0.125000 0.062500
v 0.187500 -0.000000 0.062500
v 0.062500 -0.125000 -0.062500
v 0.062500 -0.000000 -0.062500
v 0.312500 -0.375000 0.187500
v 0.312500 -0.250000 0.187500
v 0.312500 -0.375000 0.062500
v 0.312500 -0.250000 0.062500
v 0.187500 -0.250000 0.187500
v 0.187500 -0.375000 0.062500
v 0.062500 -0.250000 0.187500
v -0.062500 -0.375000 0.187500
v -0.062500 -0.250000 0.062500
v 0.062500 -0.000000 0.062500
v -0.062500 -0.125000 0.187500
v 0.187500 -0.375000 0.312500
v 0.187500 -0.250000 0.312500
v 0.187500 -0.375000 0.187500
v 0.062500 -0.375000 0.312500
v 0.062500 -0.250000 0.312500
v 0.062500 -0.375000 0.187500
v -0.187500 -0.250000 -0.062500
v -0.062500 -0.375000 -0.062500
v -0.062500 -0.250000 -0.062500
v -0.187500 -0.125000 -0.062500
v -0.187500 -0.125000 0.062500
v -0.187500 -0.000000 0.062500
v -0.062500 -0.125000 -0.062500
v -0.062500 -0.125000 0.062500
v -0.312500 -0.375000 -0.187500
v -0.312500 -0.250000 -0.187500
v -0.312500 -0.375000 -0.062500
v -0.312500 -0.250000 -0.062500
v -0.187500 -0.375000 -0.187500
v -0.187500 -0.250000 -0.187500
v -0.062500 -0.375000 -0.187500
v -0.062500 -0.250000 -0.187500
v 0.062500 -0.250000 -0.187500
v 0.062500 -0.250000 -0.062500
v 0.062500 -0.125000 -0.187500
v -0.187500 -0.375000 -0.312500
v -0.187500 -0.250000 -0.312500
v -0.062500 -0.375000 -0.312500
v -0.062500 -0.250000 -0.312500
v 0.187500 -0.375000 -0.062500
v 0.187500 -0.250000 -0.062500
v 0.062500 -0.250000 0.062500
v 0.187500 -0.125000 -0.062500
v 0.187500 -0.000000 -0.062500
v 0.312500 -0.375000 -0.187500
v 0.312500 -0.250000 -0.187500
v 0.312500 -0.375000 -0.062500
v 0.312500 -0.250000 -0.062500
v 0.062500 -0.375000 -0.187500
v 0.062500 -0.000000 -0.187500
v -0.062500 -0.125000 -0.187500
v -0.062500 -0.000000 -0.187500
v -0.062500 -0.000000 -0.062500
v 0.187500 -0.375000 -0.312500
v 0.187500 -0.250000 -0.312500
v 0.187500 -0.375000 -0.187500
v 0.187500 -0.250000 -0.187500
v 0.062500 -0.375000 -0.312500
v 0.062500 -0.250000 -0.312500
vn -1.0000 -0.0000 -0.0000
vn -0.0000 -0.0000 -1.0000
vn 1.0000 -0.0000 -0.0000
vn -0.0000 -0.0000 1.0000
vn -0.0000 -1.0000 -0.0000
vn -0.0000 1.0000 -0.0000
vt 0.207013 0.732529
vt 0.754232 0.760433
vt 0.762696 0.179823
vt 0.125000 0.500000
vt 0.125000 0.750000
vt 0.375000 0.750000
vt 0.375000 0.500000
vt 0.296924 0.295374
s 0
f 11/1/1 1/1/1 46/1/1 2/1/1
f 2/1/2 46/1/2 48/1/2 47/1/2
f 47/1/3 48/1/3 37/1/3 3/1/3
f 3/1/4 37/1/4 1/1/4 11/1/4
f 2/1/5 47/1/5 3/1/5 11/1/5
f 48/1/6 46/1/6 1/1/6 37/1/6
f 50/1/1 51/1/1 4/1/1 49/1/1
f 49/1/2 4/1/2 82/1/2 52/1/2
f 52/1/3 82/1/3 5/1/3 53/1/3
f 53/1/4 5/1/4 51/1/4 50/1/4
f 82/1/6 4/1/6 51/1/6 5/1/6
f 6/1/1 7/1/1 9/1/1 8/1/1
f 8/1/2 9/1/2 1/1/2 11/1/2
f 11/1/3 1/1/3 19/1/3 10/1/3
f 10/1/4 19/1/4 7/1/4 6/1/4
f 8/1/5 11/1/5 10/1/5 6/1/5
f 1/1/6 9/1/6 7/1/6 19/1/6
f 36/2/1 22/2/1 37/2/1 3/2/1
f 3/2/2 37/2/2 71/2/2 12/2/2
f 12/2/3 71/2/3 35/2/3 45/2/3
f 45/2/4 35/2/4 22/2/4 36/2/4
f 3/2/5 12/2/5 45/2/5 36/2/5
f 71/2/6 37/2/6 22/2/6 35/2/6
f 39/2/1 13/2/1 5/2/1 53/2/1
f 53/2/2 5/2/2 38/2/2 16/2/2
f 16/2/3 38/2/3 15/2/3 14/2/3
f 14/2/4 15/2/4 13/2/4 39/2/4
f 53/2/5 16/2/5 14/2/5 39/2/5
f 38/2/6 5/2/6 13/2/6 15/2/6
f 17/1/1 18/1/1 19/1/1 10/1/1
f 10/1/2 19/1/2 22/1/2 36/1/2
f 36/1/3 22/1/3 21/1/3 20/1/3
f 20/1/4 21/1/4 18/1/4 17/1/4
f 10/1/5 36/1/5 20/1/5 17/1/5
f 22/1/6 19/1/6 18/1/6 21/1/6
f 34/3/3 69/3/3 70/3/3 23/3/3
f 69/3/2 24/3/2 63/3/2 70/3/2
f 24/3/1 12/3/1 71/3/1 63/3/1
f 12/3/4 34/3/4 23/3/4 71/3/4
f 69/3/5 34/3/5 12/3/5 24/3/5
f 63/3/6 71/3/6 23/3/6 70/3/6
f 25/3/3 72/3/3 73/3/3 26/3/3
f 72/3/2 27/3/2 28/3/2 73/3/2
f 27/3/1 16/3/1 38/3/1 28/3/1
f 16/3/4 25/3/4 26/3/4 38/3/4
f 72/3/5 25/3/5 16/3/5 27/3/5
f 28/3/6 38/3/6 26/3/6 73/3/6
f 29/2/3 31/2/3 32/2/3 30/2/3
f 31/2/2 34/2/2 23/2/2 32/2/2
f 34/2/1 42/2/1 33/2/1 23/2/1
f 42/2/4 29/2/4 30/2/4 33/2/4
f 31/2/5 29/2/5 42/2/5 34/2/5
f 23/2/6 33/2/6 30/2/6 32/2/6
f 40/2/3 42/2/3 33/2/3 41/2/3
f 42/2/2 45/2/2 35/2/2 33/2/2
f 45/2/1 43/2/1 44/2/1 35/2/1
f 43/2/4 40/2/4 41/2/4 44/2/4
f 42/2/5 40/2/5 43/2/5 45/2/5
f 35/2/6 44/2/6 41/2/6 33/2/6
f 50/4/5 49/5/5 52/6/5 53/7/5
f 54/8/1 56/8/1 57/8/1 55/8/1
f 56/8/4 2/8/4 46/8/4 57/8/4
f 2/8/3 58/8/3 59/8/3 46/8/3
f 58/8/2 54/8/2 55/8/2 59/8/2
f 56/8/5 54/8/5 58/8/5 2/8/5
f 46/8/6 59/8/6 55/8/6 57/8/6
f 60/8/1 47/8/1 48/8/1 61/8/1
f 47/8/4 24/8/4 63/8/4 48/8/4
f 24/8/3 78/8/3 62/8/3 63/8/3
f 78/8/2 60/8/2 61/8/2 62/8/2
f 47/8/5 60/8/5 78/8/5 24/8/5
f 63/8/6 62/8/6 61/8/6 48/8/6
f 80/8/1 52/8/1 82/8/1 81/8/1
f 52/8/4 27/8/4 28/8/4 82/8/4
f 27/8/3 64/8/3 79/8/3 28/8/3
f 64/8/2 80/8/2 81/8/2 79/8/2
f 52/8/5 80/8/5 64/8/5 27/8/5
f 28/8/6 79/8/6 81/8/6 82/8/6
f 65/8/1 58/8/1 59/8/1 66/8/1
f 58/8/4 60/8/4 61/8/4 59/8/4
f 60/8/3 67/8/3 68/8/3 61/8/3
f 67/8/2 65/8/2 66/8/2 68/8/2
f 58/8/5 65/8/5 67/8/5 60/8/5
f 61/8/6 68/8/6 66/8/6 59/8/6
f 74/3/3 75/3/3 77/3/3 76/3/3
f 76/3/4 77/3/4 70/3/4 69/3/4
f 69/3/1 70/3/1 86/3/1 85/3/1
f 85/3/2 86/3/2 75/3/2 74/3/2
f 76/3/5 69/3/5 85/3/5 74/3/5
f 70/3/6 77/3/6 75/3/6 86/3/6
f 83/3/3 84/3/3 86/3/3 85/3/3
f 85/3/4 86/3/4 62/3/4 78/3/4
f 78/3/1 62/3/1 88/3/1 87/3/1
f 87/3/2 88/3/2 84/3/2 83/3/2
f 85/3/5 78/3/5 87/3/5 83/3/5
f 62/3/6 86/3/6 84/3/6 88/3/6
g wood
v -0.062500 -0.500000 0.062500
v -0.062500 0.125000 0.062500
v -0.062500 -0.500000 -0.062500
v -0.062500 0.125000 -0.062500
v 0.062500 -0.500000 0.062500
v 0.062500 0.125000 0.062500
v 0.062500 -0.500000 -0.062500
v 0.062500 0.125000 -0.062500
vn -1.0000 -0.0000 -0.0000
vn -0.0000 -0.0000 -1.0000
vn 1.0000 -0.0000 -0.0000
vn -0.0000 -0.0000 1.0000
vn -0.0000 -1.0000 -0.0000
vn -0.0000 1.0000 -0.0000
vt 0.103716 0.000000
vt 0.353716 0.000000
vt 0.353716 1.000000
vt 0.103716 1.000000
vt 0.627682 0.000000
vt 0.877682 0.000000
vt 0.877682 1.000000
vt 0.627682 1.000000
vt 0.094415 0.000000
vt 0.344415 0.000000
vt 0.344415 1.000000
vt 0.094415 1.000000
vt 0.636983 0.000000
vt 0.886983 0.000000
vt 0.886983 1.000000
vt 0.636983 1.000000
vt 0.073844 0.081447
vt 0.323844 0.081447
vt 0.323844 0.331447
vt 0.073844 0.331447
vt 0.217027 0.789050
s 0
f 89/9/7 90/10/7 92/11/7 91/12/7
f 91/13/8 92/14/8 96/15/8 95/16/8
f 95/17/9 96/18/9 94/19/9 93/20/9
f 93/21/10 94/22/10 90/23/10 89/24/10
f 91/25/11 95/26/11 93/27/11 89/28/11
f 96/29/12 92/29/12 90/29/12 94/29/12
