# Blender 3.6.2
# www.blender.org
g pork
v -0.416347 -0.428574 -0.324166
v -0.063812 0.303359 -0.324166
v -0.416347 -0.428573 -0.424166
v -0.063812 0.303359 -0.424166
v -0.326253 -0.471967 -0.324166
v 0.026282 0.259965 -0.324166
v -0.326253 -0.471967 -0.424166
v 0.026282 0.259965 -0.424166
v -0.416347 -0.461956 0.469727
v -0.063812 0.269976 0.469727
v -0.416347 -0.461956 0.369727
v -0.063812 0.269977 0.369727
v -0.326253 -0.505350 0.469727
v 0.026282 0.226582 0.469727
v -0.326253 -0.505350 0.369727
v 0.026282 0.226583 0.369727
v 0.327929 -0.465708 -0.324166
v -0.057001 0.249718 -0.324166
v 0.327929 -0.465708 -0.424166
v -0.057001 0.249718 -0.424166
v 0.415992 -0.418327 -0.324166
v 0.031061 0.297100 -0.324166
v 0.415992 -0.418327 -0.424166
v 0.031061 0.297100 -0.424166
v 0.327929 -0.499091 0.469727
v -0.057001 0.216336 0.469727
v 0.327929 -0.499090 0.369727
v -0.057001 0.216336 0.369727
v 0.415992 -0.451709 0.469727
v 0.031061 0.263717 0.469727
v 0.415992 -0.451709 0.369727
v 0.031061 0.263717 0.369727
v -0.038971 0.255724 -0.507480
v -0.057150 0.232836 0.494177
v -0.038971 0.355684 -0.504003
v -0.057150 0.332796 0.497654
v 0.061004 0.255661 -0.504721
v 0.042825 0.232773 0.496937
v 0.061004 0.355621 -0.501244
v 0.042825 0.332733 0.500414
vn -0.9009 0.4339 -0.0000
vn -0.0000 -0.0000 -1.0000
vn 0.9009 -0.4339 -0.0000
vn -0.0000 -0.0000 1.0000
vn -0.4339 -0.9009 -0.0000
vn 0.4339 0.9009 -0.0000
vn -0.8806 -0.4738 -0.0000
vn 0.8806 0.4738 -0.0000
vn 0.4738 -0.8806 -0.0000
vn -0.4738 0.8806 -0.0000
vn -0.9998 0.0006 -0.0181
vn -0.0000 0.9997 0.0228
vn 0.9998 -0.0006 0.0181
vn -0.0000 -0.9997 -0.0228
vn 0.0276 0.0347 -0.9990
vn -0.0276 -0.0347 0.9990
vt 0.666437 0.379798
vt 0.916437 0.379798
vt 0.916437 0.629798
vt 0.666437 0.629798
vt 0.635433 0.073317
vt 0.885433 0.073317
vt 0.885433 0.930915
vt 0.635433 0.930915
vt 0.667987 0.374434
vt 0.917987 0.374434
vt 0.917987 0.624434
vt 0.667987 0.624434
vt 0.671088 0.376403
vt 0.921088 0.376403
vt 0.921088 0.626403
vt 0.671088 0.626403
vt 0.072293 0.645718
vt 0.322293 0.645718
vt 0.322293 0.895718
vt 0.072293 0.895718
vt 0.674606 0.659670
vt 0.924606 0.659670
vt 0.924606 0.909670
vt 0.674606 0.909670
s 0
f 1/1/1 2/2/1 4/3/1 3/4/1
f 3/5/2 4/6/2 8/7/2 7/8/2
f 7/9/3 8/10/3 6/11/3 5/12/3
f 5/13/4 6/14/4 2/15/4 1/16/4
f 3/17/5 7/18/5 5/19/5 1/20/5
f 8/21/6 4/22/6 2/23/6 6/24/6
f 9/1/1 10/2/1 12/3/1 11/4/1
f 11/5/2 12/6/2 16/7/2 15/8/2
f 15/9/3 16/10/3 14/11/3 13/12/3
f 13/13/4 14/14/4 10/15/4 9/16/4
f 11/17/5 15/18/5 13/19/5 9/20/5
f 16/21/6 12/22/6 10/23/6 14/24/6
f 17/1/7 18/2/7 20/3/7 19/4/7
f 19/5/2 20/6/2 24/7/2 23/8/2
f 23/9/8 24/10/8 22/11/8 21/12/8
f 21/13/4 22/14/4 18/15/4 17/16/4
f 19/17/9 23/18/9 21/19/9 17/20/9
f 24/21/10 20/22/10 18/23/10 22/24/10
f 25/1/7 26/2/7 28/3/7 27/4/7
f 27/5/2 28/6/2 32/7/2 31/8/2
f 31/9/8 32/10/8 30/11/8 29/12/8
f 29/13/4 30/14/4 26/15/4 25/16/4
f 27/17/9 31/18/9 29/19/9 25/20/9
f 32/21/10 28/22/10 26/23/10 30/24/10
f 33/1/11 34/2/11 36/3/11 35/4/11
f 35/5/12 36/6/12 40/7/12 39/8/12
f 39/9/13 40/10/13 38/11/13 37/12/13
f 37/13/14 38/14/14 34/15/14 33/16/14
f 35/17/15 39/18/15 37/19/15 33/20/15
f 40/21/16 36/22/16 34/23/16 38/24/16
g pork.001
v -0.079737 0.219424 0.264291
v -0.066960 0.343831 0.252007
v -0.085998 0.216077 -0.177564
v -0.067513 0.345629 -0.163283
v 0.135385 0.211332 -0.188296
v 0.132991 0.342292 -0.163508
v 0.132919 0.224884 0.258137
v 0.134294 0.358682 0.273875
v 0.234546 0.351991 -0.173226
v 0.234441 0.233924 0.250230
v 0.237446 0.221781 -0.175335
v 0.031717 0.212207 -0.181809
v 0.032668 0.358987 0.268312
v 0.033616 0.353844 -0.172689
v 0.033834 0.233557 0.250958
v -0.069450 0.284557 0.254383
v -0.075657 0.285442 -0.170308
v 0.233506 0.361734 0.273875
v 0.133773 0.292428 0.270047
v 0.133840 0.280836 -0.178273
v 0.261552 0.284988 -0.207826
v 0.033051 0.292326 -0.174708
v 0.033330 0.294943 0.266977
v -0.098246 0.201471 0.044258
v -0.070980 0.348760 0.045859
v 0.133039 0.378677 0.045834
v 0.132974 0.232571 0.045843
v 0.246982 0.360054 0.045542
v 0.234200 0.222661 0.045672
v 0.033712 0.219870 0.045856
v 0.030191 0.380640 0.045859
v -0.073457 0.284363 0.045670
v -0.092374 0.208763 0.154754
v 0.132991 0.359734 0.152549
v 0.132991 0.231113 0.152007
v 0.238252 0.359276 0.151980
v 0.220701 0.225938 0.151911
v 0.033928 0.206489 0.151976
v 0.031311 0.361914 0.154646
v -0.075349 0.351701 0.151981
v -0.073467 0.288944 0.152235
v -0.071529 0.350189 -0.050739
v -0.077785 0.281424 -0.051628
v -0.097005 0.202989 -0.053384
v 0.132991 0.343934 -0.050739
v 0.132904 0.208382 -0.050576
v 0.234614 0.361554 -0.052552
v 0.234431 0.221114 -0.050716
v 0.031506 0.199651 -0.051585
v 0.030710 0.377518 -0.051023
v 0.257023 0.305143 0.045594
v 0.263327 0.295072 -0.040842
v 0.246086 0.296549 0.282636
v 0.246454 0.299131 0.151955
vn -0.9933 0.1126 -0.0267
vn -0.1426 0.0105 0.9897
vn -0.1269 0.9903 0.0558
vn 0.0762 -0.9920 0.1008
vn 0.0433 0.1352 -0.9899
vn 0.0207 -0.9998 0.0072
vn -0.1787 0.3189 -0.9308
vn -0.0711 0.0790 -0.9943
vn 0.0603 -0.9829 0.1742
vn 0.0119 0.9998 0.0168
vn -0.0432 -0.0396 0.9983
vn -0.0619 -0.2111 0.9755
vn -0.0393 0.0986 -0.9944
vn -0.0612 -0.1565 -0.9858
vn -0.0419 0.1135 -0.9926
vn 0.0090 -0.0489 0.9988
vn -0.0127 0.9999 -0.0060
vn -0.9794 0.1983 -0.0390
vn -0.9658 0.2589 0.0119
vn 0.1679 0.9675 -0.1890
vn 0.0562 -0.9939 0.0950
vn 0.0140 -0.9911 0.1323
vn 0.1025 -0.9699 0.2210
vn 0.0029 0.9857 -0.1685
vn -0.2795 0.9601 -0.0084
vn -0.9998 0.0047 -0.0207
vn -0.9981 0.0063 0.0616
vn -0.9768 0.2023 0.0708
vn 0.0217 0.9849 0.1720
vn 0.0622 -0.9976 -0.0298
vn -0.0796 -0.9968 0.0035
vn 0.1845 -0.9804 -0.0687
vn 0.0867 0.9917 0.0953
vn -0.1989 0.9776 0.0688
vn -0.1765 0.9766 -0.1229
vn -0.1358 0.9896 -0.0475
vn 0.0367 -0.9977 -0.0574
vn 0.1138 -0.9934 -0.0113
vn -0.0301 -0.9944 -0.1016
vn 0.2218 0.9697 -0.1020
vn -0.9647 0.2629 0.0134
vn -0.9976 0.0652 0.0246
vn 0.9659 -0.2539 -0.0504
vn -0.0009 -0.3222 0.9467
vn 0.9204 0.3897 -0.0325
vn 0.9529 0.2998 -0.0452
vn 0.9833 0.1559 0.0941
vn 0.9471 -0.3165 0.0540
vn -0.0605 0.0319 0.9977
vn 0.9495 -0.2962 0.1037
vn 0.9861 0.1649 0.0200
vn 0.9335 -0.3582 0.0155
vt 0.500000 0.184167
vt 0.625000 0.184167
vt 0.625000 0.250000
vt 0.500000 0.250000
vt 0.500000 0.938238
vt 0.625000 0.938238
vt 0.625000 1.000000
vt 0.500000 1.000000
vt 0.813238 0.690000
vt 0.875000 0.690000
vt 0.875000 0.750000
vt 0.813238 0.750000
vt 0.186762 0.690000
vt 0.248525 0.690000
vt 0.248525 0.750000
vt 0.186762 0.750000
vt 0.500000 0.311762
vt 0.625000 0.311762
vt 0.625000 0.373525
vt 0.500000 0.373525
vt 0.311762 0.690000
vt 0.311762 0.750000
vt 0.625000 0.436762
vt 0.500000 0.436762
vt 0.125000 0.690000
vt 0.125000 0.750000
vt 0.751475 0.690000
vt 0.751475 0.750000
vt 0.500000 0.876475
vt 0.625000 0.876475
vt 0.375000 0.876475
vt 0.375000 0.938238
vt 0.375000 0.250000
vt 0.375000 0.311762
vt 0.375000 0.373525
vt 0.375000 0.436762
vt 0.375000 1.000000
vt 0.688238 0.690000
vt 0.000000 0.000000
vt 0.375000 0.184167
vt 0.375000 0.060000
vt 0.500000 0.060000
vt 0.500000 0.125000
vt 0.375000 0.125000
vt 0.751475 0.565833
vt 0.813238 0.565833
vt 0.813238 0.625000
vt 0.751475 0.625000
vt 0.125000 0.565833
vt 0.186762 0.565833
vt 0.186762 0.625000
vt 0.125000 0.625000
vt 0.248525 0.565833
vt 0.311762 0.565833
vt 0.311762 0.625000
vt 0.248525 0.625000
vt 0.688238 0.565833
vt 0.688238 0.625000
vt 0.875000 0.565833
vt 0.875000 0.625000
vt 0.625000 0.060000
vt 0.625000 0.125000
vt 0.500000 0.000000
vt 0.625000 0.000000
vt 0.375000 0.000000
vt 0.813238 0.500000
vt 0.875000 0.500000
vt 0.688238 0.500000
vt 0.751475 0.500000
vt 0.186762 0.500000
vt 0.248525 0.500000
vt 0.311762 0.500000
vt 0.125000 0.500000
vt 0.551863 0.690000
vt 0.099652 0.239731
vt 0.510022 0.565833
vt 0.537774 0.625000
s 0
f 83/25/17 82/26/17 44/27/17 57/28/17
f 63/29/18 53/30/18 42/31/18 56/32/18
f 79/33/19 80/34/19 42/35/19 53/36/19
f 78/37/20 75/38/20 47/39/20 55/40/20
f 62/41/21 54/42/21 46/43/21 60/44/21
f 75/38/22 77/45/22 50/46/22 47/39/22
f 60/44/23 46/43/23 49/47/23 61/48/23
f 57/28/24 44/27/24 54/42/24 62/41/24
f 73/49/25 78/37/25 55/40/25 41/50/25
f 74/51/26 79/33/26 53/36/26 48/52/26
f 59/53/27 48/54/27 53/30/27 63/29/27
f 47/55/28 59/53/28 63/29/28 55/56/28
f 43/57/29 57/28/29 62/41/29 52/58/29
f 45/59/30 60/44/30 61/48/30 51/60/30
f 52/58/31 62/41/31 60/44/31 45/59/31
f 55/56/32 63/29/32 56/32/32 41/61/32
f 76/62/33 74/51/33 48/52/33 58/63/33
f 84/64/34 83/25/34 57/28/34 43/57/34
f 73/65/35 81/66/35 72/67/35 64/68/35
f 85/69/36 90/70/36 71/71/36 66/72/36
f 84/73/37 89/74/37 70/75/37 64/76/37
f 86/77/38 88/78/38 69/79/38 67/80/38
f 89/74/39 86/77/39 67/80/39 70/75/39
f 87/81/40 85/69/40 66/72/40 68/82/40
f 90/70/41 82/83/41 65/84/41 71/71/41
f 81/66/42 80/85/42 65/86/42 72/67/42
f 56/87/43 42/88/43 80/85/43 81/66/43
f 41/89/44 56/87/44 81/66/44 73/65/44
f 66/72/45 71/71/45 79/33/45 74/51/45
f 64/76/46 70/75/46 78/37/46 73/49/46
f 67/80/47 69/79/47 77/45/47 75/38/47
f 70/75/48 67/80/48 75/38/48 78/37/48
f 68/82/49 66/72/49 74/51/49 76/62/49
f 71/71/50 65/84/50 80/34/50 79/33/50
f 54/90/51 44/91/51 82/83/51 90/70/51
f 49/92/52 46/93/52 85/69/52 87/81/52
f 52/94/53 45/95/53 86/77/53 89/74/53
f 45/95/54 51/96/54 88/78/54 86/77/54
f 43/97/55 52/94/55 89/74/55 84/73/55
f 46/93/56 54/90/56 90/70/56 85/69/56
f 64/68/57 72/67/57 83/25/57 84/64/57
f 72/67/58 65/86/58 82/26/58 83/25/58
f 50/46/59 77/45/59 94/98/59 93/99/59
f 50/46/60 93/99/60 59/53/60 47/55/60
f 49/92/61 87/81/61 92/100/61 61/48/61
f 87/81/62 68/82/62 91/101/62 92/100/62
f 76/62/63 94/98/63 91/101/63 68/82/63
f 92/100/64 91/101/64 69/79/64 88/78/64
f 59/53/65 93/99/65 58/63/65 48/52/65
f 91/101/66 94/98/66 77/45/66 69/79/66
f 93/99/67 94/98/67 76/62/67 58/63/67
f 61/48/68 92/100/68 88/78/68 51/96/68
g pork.002
v 0.090058 0.276799 0.097120
v 0.080424 0.370164 0.106892
v 0.089829 0.277722 -0.252020
v 0.086734 0.367362 -0.256432
v 0.090635 0.276916 -0.077327
v 0.053486 0.394292 -0.078130
v 0.090633 0.276918 0.014177
v 0.062121 0.387523 0.016262
v 0.175446 0.277401 -0.252154
v 0.173425 0.383563 0.118524
v 0.175034 0.379848 -0.271681
v 0.175261 0.276879 0.096744
v 0.175449 0.276914 -0.077327
v 0.173448 0.383437 -0.077041
v 0.175449 0.276920 0.014177
v 0.171748 0.407966 0.020954
v 0.070742 0.381253 -0.163873
v 0.090636 0.276914 -0.164269
v 0.172385 0.375119 -0.164494
v 0.175449 0.276917 -0.164269
v 0.085549 0.321782 0.101691
v 0.087164 0.323490 -0.255583
v 0.073388 0.334693 -0.077582
v 0.076346 0.333010 0.015085
v 0.174978 0.331271 -0.265946
v 0.173285 0.334125 0.111930
v 0.080804 0.329131 -0.163984
vn -0.9881 -0.1088 -0.1084
vn -0.1018 -0.1242 0.9870
vn -0.1784 0.9564 0.2312
vn 0.9997 0.0247 -0.0073
vn 0.9997 0.0228 -0.0002
vn 0.0762 0.9904 -0.1150
vn -0.9570 -0.2865 0.0464
vn -0.9742 -0.1907 0.1204
vn 0.9997 0.0238 0.0059
vn -0.0393 0.9951 -0.0904
vn -0.0000 -1.0000 -0.0000
vn -0.1356 -0.0709 -0.9882
vn 0.0005 -1.0000 -0.0010
vn -0.0019 -1.0000 -0.0073
vn -0.0375 0.9981 -0.0493
vn 0.9998 0.0182 0.0125
vn -0.9599 -0.2579 -0.1097
vn -0.9705 -0.2389 -0.0339
vn -0.0521 -0.1730 -0.9836
vn -0.9821 -0.1847 0.0376
vn -0.9636 -0.2669 0.0130
vn -0.0421 -0.1922 0.9805
vn -0.9915 -0.1274 -0.0273
vt 0.500000 0.187500
vt 0.625000 0.187500
vt 0.625000 0.250000
vt 0.500000 0.250000
vt 0.500000 0.937500
vt 0.625000 0.937500
vt 0.625000 1.000000
vt 0.500000 1.000000
vt 0.812500 0.690779
vt 0.875000 0.690779
vt 0.875000 0.750000
vt 0.812500 0.750000
vt 0.187500 0.562500
vt 0.812500 0.562500
vt 0.812500 0.625000
vt 0.187500 0.625000
vt 0.187500 0.690779
vt 0.187500 0.750000
vt 0.875000 0.562500
vt 0.875000 0.625000
vt 0.500000 0.059221
vt 0.625000 0.059221
vt 0.625000 0.125000
vt 0.500000 0.125000
vt 0.500000 0.000000
vt 0.625000 0.000000
vt 0.125000 0.625000
vt 0.125000 0.690779
vt 0.125000 0.562500
vt 0.625000 0.312500
vt 0.500000 0.312500
vt 0.125000 0.750000
vt 0.125000 0.500000
vt 0.187500 0.500000
vt 0.812500 0.500000
vt 0.875000 0.500000
vt 0.375000 0.125000
vt 0.375000 0.187500
vt 0.375000 0.250000
vt 0.375000 0.312500
vt 0.375000 0.000000
vt 0.375000 0.059221
vt 0.375000 0.937500
vt 0.375000 1.000000
s 0
f 121/102/69 111/103/69 98/104/69 116/105/69
f 120/106/70 104/107/70 96/108/70 115/109/70
f 110/110/71 102/111/71 96/112/71 104/113/71
f 114/114/72 113/115/72 108/116/72 107/117/72
f 109/118/73 110/110/73 104/107/73 120/106/73 106/119/73
f 113/115/74 111/120/74 100/121/74 108/116/74
f 118/122/75 102/123/75 100/124/75 117/125/75
f 115/126/76 96/127/76 102/123/76 118/122/76
f 110/110/77 109/118/77 107/117/77 108/116/77
f 108/116/78 100/121/78 102/111/78 110/110/78
f 99/128/79 107/117/79 109/118/79 101/129/79
f 112/130/79 114/114/79 107/117/79 99/128/79
f 116/105/80 98/104/80 105/131/80 119/132/80
f 101/129/81 109/118/81 106/119/81 95/133/81
f 97/134/82 103/135/82 114/114/82 112/130/82
f 105/136/83 98/137/83 111/120/83 113/115/83
f 113/115/84 114/114/84 103/135/84 119/132/84 105/131/84
f 117/125/85 100/124/85 111/103/85 121/102/85
f 99/138/86 117/125/86 121/102/86 112/139/86
f 97/140/87 116/105/87 119/132/87 103/141/87
f 95/142/88 115/126/88 118/122/88 101/143/88
f 101/143/89 118/122/89 117/125/89 99/138/89
f 106/144/90 120/106/90 115/109/90 95/145/90
f 112/139/91 121/102/91 116/105/91 97/140/91
g pork.003
v -0.272394 0.218735 0.236620
v -0.274791 0.396094 0.252174
v -0.267766 0.226505 -0.260666
v -0.267691 0.384208 -0.259598
v 0.039385 0.224681 0.239650
v 0.046651 0.389008 0.246844
v 0.031720 0.231565 -0.251958
v 0.031359 0.376599 -0.248649
v -0.274854 0.308277 0.254790
v -0.286449 0.307693 -0.273975
v 0.031491 0.304838 -0.250657
v 0.048526 0.302310 0.256864
v -0.282626 0.207884 -0.009870
v -0.274493 0.390716 -0.011008
v 0.036858 0.229463 -0.011309
v 0.040744 0.386937 -0.011149
v 0.041542 0.306512 -0.011172
v -0.308813 0.300851 -0.010477
v -0.111510 0.216819 -0.282315
v -0.113371 0.393846 -0.267598
v -0.113010 0.227640 0.240550
v -0.113063 0.405365 0.268206
v -0.112996 0.308577 0.304374
v -0.111485 0.299059 -0.288922
v -0.112078 0.402553 -0.010551
v -0.113008 0.218542 -0.011148
v -0.040762 0.377051 -0.250681
v -0.037072 0.224646 0.254093
v -0.039530 0.300670 -0.271396
v -0.037123 0.393940 -0.011009
v -0.039135 0.221143 -0.269996
v -0.037551 0.396888 0.260209
v -0.037616 0.302561 0.298450
v -0.040678 0.218118 -0.011329
v -0.282472 0.209608 0.109690
v 0.031368 0.376606 0.107571
v 0.036619 0.303583 0.107127
v -0.261893 0.381637 0.108145
v 0.037466 0.226020 0.106757
v -0.267431 0.298791 0.108376
v -0.112815 0.387258 0.106435
v -0.113159 0.224213 0.107156
v -0.040819 0.376602 0.107570
v -0.040661 0.213600 0.106682
v -0.186184 0.225507 -0.264509
v -0.189856 0.416104 0.277951
v -0.189856 0.310103 0.293384
v -0.189588 0.213223 -0.010655
v -0.187628 0.405020 -0.268801
v -0.187955 0.223645 0.241484
v -0.191119 0.306933 -0.263653
v -0.189693 0.407521 -0.011127
v -0.190495 0.228618 0.107876
v -0.185161 0.393444 0.106270
v -0.282127 0.402536 -0.133051
v 0.039001 0.223579 -0.130361
v -0.323301 0.305317 -0.135775
v -0.282380 0.224631 -0.130845
v 0.031459 0.376946 -0.129908
v 0.032784 0.304224 -0.129969
v -0.112916 0.218530 -0.131674
v -0.113116 0.422155 -0.132545
v -0.040476 0.389098 -0.129854
v -0.038074 0.211934 -0.130308
v -0.187112 0.229555 -0.129875
v -0.189479 0.445389 -0.135477
vn -0.9203 0.3370 -0.1986
vn 0.1515 0.1512 -0.9768
vn 0.9947 0.0387 -0.0951
vn -0.3626 0.0865 0.9279
vn 0.0833 -0.9960 0.0329
vn -0.1738 0.9769 -0.1245
vn -0.2176 -0.3657 0.9050
vn 0.9976 -0.0477 -0.0492
vn 0.2636 0.0005 -0.9646
vn -0.9160 -0.3577 -0.1816
vn -0.9835 -0.0584 0.1713
vn 0.9996 0.0098 -0.0281
vn -0.3099 0.9302 0.1969
vn 0.1469 -0.9877 0.0530
vn 0.9970 0.0139 -0.0764
vn -0.9491 0.2200 0.2256
vn -0.0388 -0.9969 -0.0683
vn 0.2706 0.9612 0.0540
vn -0.2728 -0.0420 -0.9612
vn -0.0749 -0.5615 0.8241
vn 0.1221 0.9851 -0.1215
vn -0.0028 -1.0000 -0.0058
vn 0.1199 0.3602 0.9251
vn -0.1438 0.0839 -0.9860
vn 0.3081 0.2479 0.9185
vn 0.0403 0.9927 -0.1137
vn 0.3028 -0.3652 0.8803
vn 0.1265 0.9896 -0.0685
vn -0.0478 -0.9985 0.0253
vn 0.2042 -0.0479 -0.9778
vn -0.0957 -0.9940 0.0525
vn 0.2486 0.2353 -0.9396
vn -0.0760 -0.9971 0.0048
vn 0.0464 0.9919 0.1182
vn 0.0066 -0.9960 0.0886
vn 0.1281 0.9820 0.1385
vn -0.9969 0.0315 -0.0723
vn -0.9976 0.0698 0.0049
vn 0.9995 -0.0249 0.0176
vn -0.1721 0.9791 0.1083
vn 0.1509 -0.9880 -0.0337
vn 0.9973 0.0391 0.0624
vn 0.0730 0.9897 0.1228
vn 0.1311 -0.9888 0.0715
vn 0.0003 0.0527 -0.9986
vn 0.1342 -0.9909 0.0093
vn 0.0358 -0.0711 -0.9968
vn 0.0541 -0.9893 -0.1356
vn 0.1707 0.9597 0.2233
vn -0.0452 -0.5684 0.8215
vn 0.1044 0.9874 -0.1192
vn 0.0118 0.2466 0.9690
vn 0.2224 0.9448 -0.2405
vn 0.0223 -0.9997 0.0095
vn -0.0130 -0.9996 -0.0258
vn 0.0877 0.9948 -0.0516
vn 0.3388 0.9293 -0.1473
vn -0.1288 -0.9915 0.0190
vn 0.9999 0.0102 -0.0058
vn 0.1555 -0.9854 -0.0698
vn -0.3503 0.9087 -0.2272
vn 0.9985 0.0422 -0.0338
vn -0.9328 -0.3597 0.0230
vn -0.9225 0.3710 0.1069
vt 0.500000 0.187500
vt 0.625000 0.187500
vt 0.625000 0.250000
vt 0.500000 0.250000
vt 0.500000 0.437500
vt 0.625000 0.437500
vt 0.625000 0.500000
vt 0.500000 0.500000
vt 0.500000 0.687500
vt 0.625000 0.687500
vt 0.625000 0.750000
vt 0.500000 0.750000
vt 0.500000 0.937500
vt 0.625000 0.937500
vt 0.625000 1.000000
vt 0.500000 1.000000
vt 0.312500 0.687500
vt 0.375000 0.687500
vt 0.375000 0.750000
vt 0.312500 0.750000
vt 0.812500 0.687500
vt 0.875000 0.687500
vt 0.875000 0.750000
vt 0.812500 0.750000
vt 0.375000 0.937500
vt 0.375000 1.000000
vt 0.375000 0.437500
vt 0.375000 0.500000
vt 0.375000 0.187500
vt 0.375000 0.250000
vt 0.375000 0.062500
vt 0.500000 0.062500
vt 0.500000 0.125000
vt 0.375000 0.125000
vt 0.375000 0.562500
vt 0.500000 0.562500
vt 0.500000 0.625000
vt 0.375000 0.625000
vt 0.812500 0.562500
vt 0.875000 0.562500
vt 0.875000 0.625000
vt 0.812500 0.625000
vt 0.312500 0.562500
vt 0.312500 0.625000
vt 0.625000 0.562500
vt 0.625000 0.625000
vt 0.625000 0.062500
vt 0.625000 0.125000
vt 0.187500 0.562500
vt 0.250000 0.562500
vt 0.250000 0.625000
vt 0.187500 0.625000
vt 0.687500 0.562500
vt 0.750000 0.562500
vt 0.750000 0.625000
vt 0.687500 0.625000
vt 0.375000 0.312500
vt 0.500000 0.312500
vt 0.500000 0.375000
vt 0.375000 0.375000
vt 0.375000 0.812500
vt 0.500000 0.812500
vt 0.500000 0.875000
vt 0.375000 0.875000
vt 0.687500 0.687500
vt 0.750000 0.687500
vt 0.750000 0.750000
vt 0.687500 0.750000
vt 0.187500 0.687500
vt 0.250000 0.687500
vt 0.250000 0.750000
vt 0.187500 0.750000
vt 0.625000 0.812500
vt 0.625000 0.875000
vt 0.625000 0.312500
vt 0.625000 0.375000
vt 0.500000 0.000000
vt 0.625000 0.000000
vt 0.375000 0.000000
vt 0.125000 0.625000
vt 0.125000 0.687500
vt 0.125000 0.750000
vt 0.125000 0.562500
vt 0.750000 0.500000
vt 0.812500 0.500000
vt 0.125000 0.500000
vt 0.187500 0.500000
vt 0.250000 0.500000
vt 0.312500 0.500000
vt 0.687500 0.500000
vt 0.875000 0.500000
s 0
f 178/146/92 176/147/92 125/148/92 131/149/92
f 150/150/93 148/151/93 129/152/93 132/153/93
f 158/154/94 157/155/94 127/156/94 133/157/94
f 168/158/95 167/159/95 123/160/95 130/161/95
f 165/162/96 160/163/96 126/164/96 149/165/96
f 175/166/97 159/167/97 123/168/97 167/169/97
f 171/170/98 168/158/98 130/161/98 122/171/98
f 160/163/99 158/154/99 133/157/99 126/164/99
f 152/172/100 150/150/100 132/153/100 128/173/100
f 179/174/101 178/146/101 131/149/101 124/175/101
f 156/176/102 161/177/102 139/178/102 134/179/102
f 177/180/103 181/181/103 138/182/103 136/183/103
f 187/184/104 176/185/104 135/186/104 173/187/104
f 185/188/105 177/180/105 136/183/105 155/189/105
f 181/181/106 180/190/106 137/191/106 138/182/106
f 161/177/107 159/192/107 135/193/107 139/178/107
f 186/194/108 182/195/108 147/196/108 169/197/108
f 184/198/109 183/199/109 146/200/109 151/201/109
f 166/202/110 172/203/110 145/204/110 140/205/110
f 149/206/111 154/207/111 144/208/111 142/209/111
f 164/210/112 162/211/112 143/212/112 153/213/112
f 174/214/113 163/215/113 142/216/113 171/217/113
f 154/207/114 153/218/114 143/219/114 144/208/114
f 172/203/115 170/220/115 141/221/115 145/204/115
f 133/157/116 127/156/116 153/218/116 154/207/116
f 157/155/117 164/210/117 153/213/117 127/156/117
f 126/164/118 133/157/118 154/207/118 149/206/118
f 180/190/119 184/198/119 151/201/119 137/191/119
f 182/195/120 185/188/120 155/189/120 147/196/120
f 140/205/121 145/204/121 150/150/121 152/172/121
f 163/215/122 165/162/122 149/165/122 142/216/122
f 145/204/123 141/221/123 148/151/123 150/150/123
f 147/196/124 155/189/124 165/162/124 163/215/124
f 137/191/125 151/201/125 164/210/125 157/155/125
f 169/197/126 147/196/126 163/215/126 174/214/126
f 151/201/127 146/200/127 162/211/127 164/210/127
f 130/222/128 123/223/128 159/192/128 161/177/128
f 122/224/129 130/222/129 161/177/129 156/176/129
f 136/183/130 138/182/130 158/154/130 160/163/130
f 173/187/131 135/186/131 159/167/131 175/166/131
f 155/189/132 136/183/132 160/163/132 165/162/132
f 138/182/133 137/191/133 157/155/133 158/154/133
f 146/200/134 173/187/134 175/166/134 162/211/134
f 134/225/135 169/197/135 174/214/135 156/226/135
f 131/149/136 125/148/136 170/220/136 172/203/136
f 156/226/137 174/214/137 171/217/137 122/227/137
f 124/175/138 131/149/138 172/203/138 166/202/138
f 179/228/139 186/194/139 169/197/139 134/225/139
f 183/199/140 187/184/140 173/187/140 146/200/140
f 142/209/141 144/208/141 168/158/141 171/170/141
f 162/211/142 175/166/142 167/169/142 143/212/142
f 144/208/143 143/219/143 167/159/143 168/158/143
f 141/229/144 170/230/144 187/184/144 183/199/144
f 124/231/145 166/232/145 186/194/145 179/228/145
f 140/233/146 152/234/146 185/188/146 182/195/146
f 129/152/147 148/235/147 184/198/147 180/190/147
f 148/235/148 141/229/148 183/199/148 184/198/148
f 166/232/149 140/233/149 182/195/149 186/194/149
f 132/153/150 129/152/150 180/190/150 181/181/150
f 152/234/151 128/173/151 177/180/151 185/188/151
f 170/230/152 125/236/152 176/185/152 187/184/152
f 128/173/153 132/153/153 181/181/153 177/180/153
f 134/179/154 139/178/154 178/146/154 179/174/154
f 139/178/155 135/193/155 176/147/155 178/146/155
