g mold
v 0.250000 -0.500000 -0.250000
v 0.250000 -0.500000 0.187500
v 0.250000 -0.250000 0.187500
v 0.250000 -0.250000 -0.250000
v -0.312500 -0.500000 -0.250000
v -0.312500 -0.500000 0.187500
v -0.312500 -0.250000 0.187500
v -0.312500 -0.250000 -0.250000
v 0.125000 -0.375000 -0.125000
v 0.125000 -0.375000 0.062500
v 0.125000 -0.250000 0.062500
v 0.125000 -0.250000 -0.125000
v -0.187500 -0.375000 -0.125000
v -0.187500 -0.375000 0.062500
v -0.187500 -0.250000 0.062500
v -0.187500 -0.250000 -0.125000
vn 1.0000 -0.0000 -0.0000
vn -1.0000 -0.0000 -0.0000
vn -0.0000 -0.0000 -1.0000
vn -0.0000 -0.0000 1.0000
vn -0.0000 -1.0000 -0.0000
vn -0.0000 1.0000 -0.0000
vt 0.000000 0.000000
vt 0.000000 0.474609
vt 1.000000 0.474609
vt 1.000000 0.000000
vt 0.000000 0.544922
vt 1.000000 0.544922
vt 1.000000 1.000000
vt 0.000000 1.000000
vt 0.451172 1.000000
vt 0.451172 0.000000
vt 0.531250 0.000000
vt 0.531250 1.000000
vt 0.116353 0.001638
vt 0.893993 0.001638
vt 0.893994 1.001462
vt 0.116353 1.001462
vt 0.647987 0.251250
vt 0.348129 0.251250
vt 0.348129 0.751014
vt 0.647987 0.751014
vt 1.000000 0.472656
vt 0.000000 0.472656
vt 0.000000 0.531250
vt 1.000000 0.531250
vt 0.549949 1.005011
vt 0.549948 -0.005012
vt 0.953958 -0.005012
vt 0.953958 1.005012
vt 0.451005 -0.005012
vt 0.451005 1.005012
vt 0.046996 1.005012
vt 0.046996 -0.005012
vt 0.647151 0.750944
vt 0.347292 0.750944
vt 0.147387 0.950850
vt 0.847056 0.950849
vt 0.847056 0.051274
vt 0.647151 0.251180
vt 0.147387 0.051275
vt 0.347292 0.251180
s 0
f 1/1/1 4/2/1 3/3/1 2/4/1
f 5/5/2 6/6/2 7/7/2 8/8/2
f 1/1/3 5/8/3 8/9/3 4/10/3
f 2/11/4 3/4/4 7/7/4 6/12/4
f 1/13/5 2/14/5 6/15/5 5/16/5
f 10/17/6 9/18/6 13/19/6 14/20/6
f 9/1/2 10/4/2 11/21/2 12/22/2
f 13/23/1 16/8/1 15/7/1 14/24/1
f 15/25/3 11/26/3 10/27/3 14/28/3
f 12/29/4 16/30/4 13/31/4 9/32/4
f 15/33/6 16/34/6 8/35/6 7/36/6 3/37/6 11/38/6
f 4/39/6 8/35/6 16/34/6 12/40/6 11/38/6 3/37/6
