# Blender 4.2.3 LTS
# www.blender.org
mtllib axe.mtl
o Cube
v -0.068958 -0.800949 -0.072379
v -0.725456 0.963319 -0.072379
v 0.026285 -0.765508 -0.113962
v -0.630213 0.998760 -0.113962
v -0.031364 -0.786960 0.025650
v -0.687862 0.977308 0.025650
v 0.063879 -0.751519 -0.015933
v -0.592619 1.012749 -0.015933
v -0.826717 0.228291 0.125447
v -1.039392 0.797440 0.163056
v -0.024101 0.547126 -0.228572
v -0.253852 1.084324 -0.201458
v -0.773737 0.433694 0.017388
v -1.008132 0.354473 0.195486
v 0.048038 0.753277 -0.281772
v -0.247156 0.629639 -0.212515
v -0.203395 0.512035 -0.212515
v -0.378440 0.982452 -0.212515
v -0.161074 0.527783 -0.102161
v -0.336120 0.998200 -0.102161
v -0.729976 0.316090 0.017388
v -0.862701 0.802255 0.127743
v -0.905021 0.786507 0.017388
v -0.687655 0.331838 0.127743
v -1.071901 0.456633 0.205192
v 0.033479 0.867954 -0.289730
v -0.204835 0.645387 -0.102161
v -0.731416 0.449442 0.127743
v -0.248597 0.762991 -0.102161
v -0.290917 0.747243 -0.212515
v -0.817498 0.551298 0.017388
v -0.775178 0.567046 0.127743
v -1.086258 0.569592 0.196017
v -0.014235 0.947831 -0.266675
v -0.292358 0.880595 -0.102161
v -0.334679 0.864847 -0.212515
v -0.861260 0.668903 0.017388
v -0.818939 0.684650 0.127743
v -0.468126 0.547415 0.012791
v -0.641731 0.884479 -0.097563
v -0.424365 0.429810 0.012791
v -0.466685 0.414062 -0.097563
v -0.599410 0.900227 0.012791
v -0.511887 0.665019 0.012791
v -0.554208 0.649271 -0.097563
v -0.510447 0.531667 -0.097563
v -0.555649 0.782623 0.012791
v -0.597969 0.766875 -0.097563
v -0.599771 0.498428 0.070267
v -0.598330 0.365076 -0.040088
v -0.731056 0.851241 0.070267
v -0.643533 0.616032 0.070267
v -0.687294 0.733636 0.070267
v -0.773376 0.835493 -0.040088
v -0.556010 0.380824 0.070267
v -0.685853 0.600285 -0.040088
v -0.642092 0.482680 -0.040088
v -0.729615 0.717889 -0.040088
v -0.510086 0.933465 -0.155039
v -0.292719 0.478796 -0.044685
v -0.422563 0.698257 -0.155039
v -0.378801 0.580653 -0.155039
v -0.466324 0.815861 -0.155039
v -0.336481 0.596401 -0.044685
v -0.335040 0.463049 -0.155039
v -0.467765 0.949213 -0.044685
v -0.380242 0.714005 -0.044685
v -0.424004 0.831609 -0.044685
vn -0.3549 -0.1321 -0.9255
vn 0.8674 0.3228 -0.3787
vn 0.3549 0.1321 0.9255
vn -0.8674 -0.3228 0.3787
vn 0.3487 -0.9372 -0.0000
vn -0.3487 0.9372 -0.0000
vn -0.1370 0.1001 -0.9855
vn 0.1994 -0.0960 0.9752
vn 0.2028 0.0912 0.9750
vn 0.5945 -0.7959 -0.1144
vn -0.0513 0.9912 -0.1218
vn -0.6344 0.7612 0.1347
vn 0.1972 -0.9783 0.0640
vn 0.4706 0.3131 0.8249
vn -0.6596 -0.0655 -0.7488
vn -0.5317 -0.2241 -0.8168
vn 0.5152 0.1582 0.8423
vn 0.5996 0.0783 0.7964
vn 0.2226 0.0660 0.9727
vn -0.1261 -0.1501 -0.9806
vn -0.1981 -0.0832 -0.9767
vn -0.5450 -0.2759 -0.7917
vn -0.5534 -0.1719 -0.8150
vn 0.4984 0.1308 0.8570
vn 0.2142 0.0927 0.9724
vn -0.2054 0.0191 -0.9785
vt 0.375000 0.000000
vt 0.625000 0.000000
vt 0.625000 0.250000
vt 0.375000 0.250000
vt 0.625000 0.500000
vt 0.375000 0.500000
vt 0.625000 0.750000
vt 0.375000 0.750000
vt 0.625000 1.000000
vt 0.375000 1.000000
vt 0.125000 0.500000
vt 0.125000 0.750000
vt 0.875000 0.500000
vt 0.875000 0.750000
vt 0.562500 0.191051
vt 0.625000 0.191051
vt 0.562500 0.250000
vt 0.375000 0.699200
vt 0.437500 0.699200
vt 0.437500 0.750000
vt 0.562500 0.699200
vt 0.625000 0.699200
vt 0.562500 0.750000
vt 0.375000 0.155988
vt 0.437500 0.155988
vt 0.437500 0.191051
vt 0.375000 0.191051
vt 0.125000 0.699200
vt 0.875000 0.699200
vt 0.875000 0.558949
vt 0.625000 0.558949
vt 0.375000 0.558949
vt 0.125000 0.558949
vt 0.562500 0.500000
vt 0.562500 0.558949
vt 0.562500 0.155988
vt 0.625000 0.155988
vt 0.562500 0.000000
vt 0.625000 0.050800
vt 0.562500 0.050800
vt 0.625000 0.664137
vt 0.875000 0.664137
vt 0.125000 0.664137
vt 0.375000 0.664137
vt 0.562500 0.664137
vt 0.437500 0.664137
vt 0.500000 0.664137
vt 0.500000 0.699200
vt 0.437500 0.000000
vt 0.500000 0.000000
vt 0.500000 0.050800
vt 0.437500 0.050800
vt 0.500000 0.155988
vt 0.500000 0.191051
vt 0.437500 0.500000
vt 0.500000 0.500000
vt 0.500000 0.558949
vt 0.437500 0.558949
vt 0.500000 0.750000
vt 0.437500 0.250000
vt 0.500000 0.250000
vt 0.375000 0.050800
vt 0.500000 0.085863
vt 0.562500 0.085863
vt 0.562500 0.120926
vt 0.500000 0.120926
vt 0.500000 0.594012
vt 0.562500 0.594012
vt 0.562500 0.629074
vt 0.500000 0.629074
vt 0.375000 0.594012
vt 0.437500 0.594012
vt 0.437500 0.629074
vt 0.375000 0.629074
vt 0.437500 0.085863
vt 0.437500 0.120926
vt 0.625000 0.594012
vt 0.625000 0.629074
vt 0.125000 0.594012
vt 0.125000 0.629074
vt 0.875000 0.594012
vt 0.875000 0.629074
vt 0.625000 0.085863
vt 0.625000 0.120926
vt 0.375000 0.085863
vt 0.375000 0.120926
s 0
f 1/1/1 2/2/1 4/3/1 3/4/1
f 3/4/2 4/3/2 8/5/2 7/6/2
f 7/6/3 8/5/3 6/7/3 5/8/3
f 5/8/4 6/7/4 2/9/4 1/10/4
f 3/11/5 7/6/5 5/8/5 1/12/5
f 8/5/6 4/13/6 2/14/6 6/7/6
f 36/15/7 18/16/7 12/3/7 34/17/7
f 24/18/8 28/19/8 14/20/8 9/8/8
f 38/21/9 22/22/9 10/7/9 33/23/9
f 65/24/1 62/25/1 16/26/1 17/27/1
f 21/28/10 24/18/10 9/12/10
f 22/22/11 23/29/11 10/7/11
f 12/13/12 18/30/12 20/31/12
f 11/6/13 19/32/13 17/33/13
f 34/34/14 12/5/14 20/31/14 35/35/14
f 63/36/1 59/37/1 18/16/1 36/15/1
f 33/38/15 10/2/15 23/39/15 37/40/15
f 51/41/6 54/42/6 23/29/6 22/22/6
f 50/43/5 55/44/5 24/18/5 21/28/5
f 53/45/3 51/41/3 22/22/3 38/21/3
f 49/46/3 52/47/3 32/48/3 28/19/3
f 14/49/16 25/50/16 31/51/16 13/52/16
f 62/25/1 61/53/1 30/54/1 16/26/1
f 15/55/17 26/56/17 29/57/17 27/58/17
f 11/6/18 15/55/18 27/58/18 19/32/18
f 28/19/19 32/48/19 25/59/19 14/20/19
f 17/27/20 16/26/20 15/60/20 11/4/20
f 16/26/21 30/54/21 26/61/21 15/60/21
f 9/1/22 14/49/22 13/52/22 21/62/22
f 55/44/3 49/46/3 28/19/3 24/18/3
f 52/47/3 53/45/3 38/21/3 32/48/3
f 25/50/23 33/38/23 37/40/23 31/51/23
f 61/53/1 63/36/1 36/15/1 30/54/1
f 26/56/24 34/34/24 35/35/24 29/57/24
f 32/48/25 38/21/25 33/23/25 25/59/25
f 30/54/26 36/15/26 34/17/26 26/61/26
f 56/63/1 58/64/1 48/65/1 45/66/1
f 67/67/3 68/68/3 47/69/3 44/70/3
f 60/71/3 64/72/3 39/73/3 41/74/3
f 57/75/1 56/63/1 45/66/1 46/76/1
f 64/72/3 67/67/3 44/70/3 39/73/3
f 68/68/3 66/77/3 43/78/3 47/69/3
f 65/79/5 60/71/5 41/74/5 42/80/5
f 66/77/6 59/81/6 40/82/6 43/78/6
f 58/64/1 54/83/1 40/84/1 48/65/1
f 50/85/1 57/75/1 46/76/1 42/86/1
f 21/62/1 13/52/1 57/75/1 50/85/1
f 37/40/1 23/39/1 54/83/1 58/64/1
f 13/52/1 31/51/1 56/63/1 57/75/1
f 31/51/1 37/40/1 58/64/1 56/63/1
f 44/70/3 47/69/3 53/45/3 52/47/3
f 41/74/3 39/73/3 49/46/3 55/44/3
f 39/73/3 44/70/3 52/47/3 49/46/3
f 47/69/3 43/78/3 51/41/3 53/45/3
f 42/80/5 41/74/5 55/44/5 50/43/5
f 43/78/6 40/82/6 54/42/6 51/41/6
f 20/31/6 18/30/6 59/81/6 66/77/6
f 17/33/5 19/32/5 60/71/5 65/79/5
f 35/35/3 20/31/3 66/77/3 68/68/3
f 27/58/3 29/57/3 67/67/3 64/72/3
f 19/32/3 27/58/3 64/72/3 60/71/3
f 29/57/3 35/35/3 68/68/3 67/67/3
f 45/66/1 48/65/1 63/36/1 61/53/1
f 46/76/1 45/66/1 61/53/1 62/25/1
f 48/65/1 40/84/1 59/37/1 63/36/1
f 42/86/1 46/76/1 62/25/1 65/24/1
