# Blender 4.2.3 LTS
# www.blender.org
mtllib pick.mtl
o Cube
v 0.371369 -0.880670 -0.010876
v -0.186604 0.217401 -0.010876
v 0.371369 -0.880670 -0.097254
v -0.186604 0.217401 -0.097254
v 0.442017 -0.844771 -0.010876
v -0.115956 0.253300 -0.010876
v 0.442017 -0.844771 -0.097254
v -0.115956 0.253300 -0.097254
vn -0.8915 -0.4530 -0.0000
vn -0.0000 -0.0000 -1.0000
vn 0.8915 0.4530 -0.0000
vn -0.0000 -0.0000 1.0000
vn 0.4530 -0.8915 -0.0000
vn -0.4530 0.8915 -0.0000
vt 0.375000 0.000000
vt 0.625000 0.000000
vt 0.625000 0.250000
vt 0.375000 0.250000
vt 0.625000 0.500000
vt 0.375000 0.500000
vt 0.625000 0.750000
vt 0.375000 0.750000
vt 0.625000 1.000000
vt 0.375000 1.000000
vt 0.125000 0.500000
vt 0.125000 0.750000
vt 0.875000 0.500000
vt 0.875000 0.750000
s 0
f 1/1/1 2/2/1 4/3/1 3/4/1
f 3/4/2 4/3/2 8/5/2 7/6/2
f 7/6/3 8/5/3 6/7/3 5/8/3
f 5/8/4 6/7/4 2/9/4 1/10/4
f 3/11/5 7/6/5 5/8/5 1/12/5
f 8/5/6 4/13/6 2/14/6 6/7/6
o Cube.001
v 0.593919 0.586623 0.014456
v -0.897240 -0.184476 -0.054065
v 0.593919 0.586623 -0.122587
v 0.088048 0.280422 0.014456
v 0.088048 0.280422 -0.122587
v 0.051218 0.350593 -0.122587
v 0.051218 0.350593 0.014456
v -0.395388 0.030431 0.014456
v -0.395388 0.030431 -0.122587
v -0.432218 0.100601 -0.122587
v -0.432218 0.100601 0.014456
vn 0.3937 -0.9193 -0.0000
vn -0.1106 -0.0581 -0.9922
vn -0.5226 0.8525 -0.0000
vn -0.1106 -0.0581 0.9922
vn -0.0000 -0.0000 1.0000
vn -0.3988 0.9170 -0.0000
vn -0.0000 -0.0000 -1.0000
vn 0.5178 -0.8555 -0.0000
vn -0.4593 0.8883 -0.0000
vn 0.4593 -0.8883 -0.0000
vt 0.543950 0.000000
vt 0.625000 0.250000
vt 0.543950 0.250000
vt 0.625000 0.500000
vt 0.543950 0.500000
vt 0.625000 0.750000
vt 0.543950 0.750000
vt 0.625000 1.000000
vt 0.543950 1.000000
vt 0.375000 0.750000
vt 0.462899 0.750000
vt 0.462899 1.000000
vt 0.375000 0.500000
vt 0.462899 0.500000
vt 0.375000 0.250000
vt 0.462899 0.250000
vt 0.375000 0.000000
vt 0.462899 0.000000
s 0
f 16/15/7 10/16/7 17/17/7
f 17/17/8 10/18/8 18/19/8
f 18/19/9 10/20/9 19/21/9
f 19/21/10 10/22/10 16/23/10
f 9/24/11 15/25/11 12/26/11
f 11/27/12 14/28/12 15/25/12 9/24/12
f 11/29/13 13/30/13 14/28/13
f 9/31/14 12/32/14 13/30/14 11/29/14
f 15/25/11 19/21/11 16/23/11 12/26/11
f 14/28/15 18/19/15 19/21/15 15/25/15
f 13/30/13 17/17/13 18/19/13 14/28/13
f 12/32/16 16/15/16 17/17/16 13/30/16
