# Blender 4.2.3 LTS
# www.blender.org
mtllib sword.mtl
o Cube
v 0.218458 -0.352778 0.132738
v 0.218458 -0.300490 0.132738
v -0.141293 -0.352778 0.131338
v -0.141293 -0.300490 0.131338
v 0.219676 -0.352778 -0.180204
v 0.219676 -0.300490 -0.180204
v -0.140076 -0.352778 -0.181604
v -0.140076 -0.300490 -0.181604
vn -0.0039 -0.0000 1.0000
vn -1.0000 -0.0000 -0.0039
vn 0.0039 -0.0000 -1.0000
vn 1.0000 -0.0000 0.0039
vn -0.0000 -1.0000 -0.0000
vn -0.0000 1.0000 -0.0000
vt 0.375000 0.000000
vt 0.625000 0.000000
vt 0.625000 0.250000
vt 0.375000 0.250000
vt 0.625000 0.500000
vt 0.375000 0.500000
vt 0.625000 0.750000
vt 0.375000 0.750000
vt 0.625000 1.000000
vt 0.375000 1.000000
vt 0.125000 0.500000
vt 0.125000 0.750000
vt 0.875000 0.500000
vt 0.875000 0.750000
s 0
f 1/1/1 2/2/1 4/3/1 3/4/1
f 3/4/2 4/3/2 8/5/2 7/6/2
f 7/6/3 8/5/3 6/7/3 5/8/3
f 5/8/4 6/7/4 2/9/4 1/10/4
f 3/11/5 7/6/5 5/8/5 1/12/5
f 8/5/6 4/13/6 2/14/6 6/7/6
o Cube.001
v 0.112779 -0.300490 0.033649
v 0.112779 0.035246 0.033649
v -0.061033 -0.300490 0.032972
v -0.061033 0.035246 0.032972
v 0.113310 -0.300490 -0.102741
v 0.113310 0.035246 -0.102741
v -0.060502 -0.300490 -0.103418
v -0.060502 0.035246 -0.103418
vn -0.0039 -0.0000 1.0000
vn -1.0000 -0.0000 -0.0039
vn 0.0039 -0.0000 -1.0000
vn 1.0000 -0.0000 0.0039
vn -0.0000 -1.0000 -0.0000
vn -0.0000 1.0000 -0.0000
vt 0.375000 0.000000
vt 0.625000 0.000000
vt 0.625000 0.250000
vt 0.375000 0.250000
vt 0.625000 0.500000
vt 0.375000 0.500000
vt 0.625000 0.750000
vt 0.375000 0.750000
vt 0.625000 1.000000
vt 0.375000 1.000000
vt 0.125000 0.500000
vt 0.125000 0.750000
vt 0.875000 0.500000
vt 0.875000 0.750000
s 0
f 9/15/7 10/16/7 12/17/7 11/18/7
f 11/18/8 12/17/8 16/19/8 15/20/8
f 15/20/9 16/19/9 14/21/9 13/22/9
f 13/22/10 14/21/10 10/23/10 9/24/10
f 11/25/11 15/20/11 13/22/11 9/26/11
f 16/19/12 12/27/12 10/28/12 14/21/12
o Cube.002
v 0.264148 0.035246 0.168197
v 0.264148 0.121056 0.168197
v -0.200851 0.035246 0.166387
v -0.200851 0.121056 0.166387
v 0.265643 0.035246 -0.216127
v 0.265643 0.121056 -0.216127
v -0.199356 0.035246 -0.217936
v -0.199356 0.121056 -0.217936
vn -0.0039 -0.0000 1.0000
vn -1.0000 -0.0000 -0.0039
vn 0.0039 -0.0000 -1.0000
vn 1.0000 -0.0000 0.0039
vn -0.0000 -1.0000 -0.0000
vn -0.0000 1.0000 -0.0000
vt 0.375000 0.000000
vt 0.625000 0.000000
vt 0.625000 0.250000
vt 0.375000 0.250000
vt 0.625000 0.500000
vt 0.375000 0.500000
vt 0.625000 0.750000
vt 0.375000 0.750000
vt 0.625000 1.000000
vt 0.375000 1.000000
vt 0.125000 0.500000
vt 0.125000 0.750000
vt 0.875000 0.500000
vt 0.875000 0.750000
s 0
f 17/29/13 18/30/13 20/31/13 19/32/13
f 19/32/14 20/31/14 24/33/14 23/34/14
f 23/34/15 24/33/15 22/35/15 21/36/15
f 21/36/16 22/35/16 18/37/16 17/38/16
f 19/39/17 23/34/17 21/36/17 17/40/17
f 24/33/18 20/41/18 18/42/18 22/35/18
o Cube.003
v -0.120926 0.108681 -0.018006
v -0.095513 1.556510 -0.015758
v 0.006680 0.105804 -0.078877
v 0.027647 1.777013 -0.037779
v 0.044082 0.136903 0.009687
v 0.173529 0.109728 -0.029293
v 0.140159 1.564287 -0.031572
v -0.099719 1.316870 -0.016130
v 0.031233 1.315260 -0.000845
v 0.145221 1.343657 -0.031227
v 0.023002 1.316863 -0.046236
vn -0.3413 0.0187 -0.9398
vn 0.2167 0.0133 -0.9761
vn 0.2740 0.0096 0.9617
vn -0.1441 0.0041 0.9896
vn 0.0158 -0.9455 0.3253
vn 0.1508 0.0558 0.9870
vn -0.0184 0.0521 0.9985
vn -0.2203 0.0151 -0.9753
vn 0.0994 0.0119 -0.9950
vt 0.375000 0.000000
vt 0.583621 0.000000
vt 0.582974 0.250000
vt 0.375000 0.250000
vt 0.587080 0.500000
vt 0.375000 0.500000
vt 0.586091 0.750000
vt 0.375000 0.750000
vt 0.583621 1.000000
vt 0.375000 1.000000
vt 0.125000 0.500000
vt 0.125000 0.750000
vt 0.625000 0.500000
vt 0.625000 0.750000
vt 0.625000 1.000000
vt 0.625000 0.000000
vt 0.625000 0.250000
s 0
f 25/43/19 32/44/19 35/45/19 27/46/19
f 27/46/20 35/45/20 34/47/20 30/48/20
f 30/48/21 34/47/21 33/49/21 29/50/21
f 29/50/22 33/49/22 32/51/22 25/52/22
f 27/53/23 30/48/23 29/50/23 25/54/23
f 33/49/24 34/47/24 31/55/24 28/56/24
f 32/51/25 33/49/25 28/56/25 26/57/25
f 35/45/26 32/44/26 26/58/26 28/59/26
f 34/47/27 35/45/27 28/59/27 31/55/27
