# Blender 4.5.3 LTS
# www.blender.org
mtllib candel.mtl
g Cube_Cube
v 0.081160 -0.595837 -0.085271
v 0.081160 -0.595837 0.085271
v -0.092698 -0.595837 -0.085271
v -0.092698 -0.595837 0.085271
v 0.081160 -0.332747 -0.085271
v -0.092698 -0.332747 0.085271
v 0.081160 -0.332747 0.085271
v -0.092698 -0.332747 -0.085271
v -0.005769 -0.595837 -0.085271
v -0.005769 -0.595837 0.085271
v -0.005769 -0.332747 -0.085271
v -0.005769 -0.332747 0.085271
v -0.092698 -0.595837 0.002537
v 0.081160 -0.595837 0.002537
v 0.081160 -0.332747 0.002537
v -0.092698 -0.332747 0.002537
v -0.005769 -0.595837 0.002537
v 0.048097 -0.174893 -0.049709
v 0.060840 -0.178926 -0.053582
v 0.051697 -0.178926 -0.063415
v 0.075881 -0.190421 -0.069761
v 0.081160 -0.200158 -0.085271
v 0.066739 -0.190421 -0.079594
v 0.048097 -0.174893 0.049709
v 0.051697 -0.178926 0.063415
v 0.060840 -0.178926 0.053582
v 0.066739 -0.190421 0.079594
v 0.081160 -0.200158 0.085271
v 0.075881 -0.190421 0.069761
v -0.059635 -0.174893 -0.049709
v -0.063236 -0.178926 -0.063415
v -0.072378 -0.178926 -0.053582
v -0.078278 -0.190421 -0.079594
v -0.092698 -0.200158 -0.085271
v -0.087420 -0.190421 -0.069761
v -0.059635 -0.174893 0.049709
v -0.072378 -0.178926 0.053582
v -0.063236 -0.178926 0.063415
v -0.087420 -0.190421 0.069761
v -0.092698 -0.200158 0.085271
v -0.078278 -0.190421 0.079594
v -0.005769 -0.174893 0.049709
v -0.005769 -0.178926 0.063415
v -0.005769 -0.189436 0.078208
v -0.005769 -0.200158 0.085271
v -0.005769 -0.174893 -0.049709
v -0.005769 -0.178926 -0.063415
v -0.005769 -0.189436 -0.078208
v -0.005769 -0.200158 -0.085271
v 0.074593 -0.189436 0.002537
v 0.081160 -0.200158 0.002537
v 0.060840 -0.178926 0.002537
v 0.048097 -0.174893 0.002537
v -0.059635 -0.174893 0.002537
v -0.072378 -0.178926 0.002537
v -0.086132 -0.189436 0.002537
v -0.092698 -0.200158 0.002537
v -0.005769 -0.174893 0.002537
vn -0.0000 -1.0000 -0.0000
vn -0.0000 -0.0000 -1.0000
vn 1.0000 -0.0000 -0.0000
vn -1.0000 -0.0000 -0.0000
vn -0.0000 -0.0000 1.0000
vn 0.2339 0.9476 -0.2174
vn 0.4097 0.8289 -0.3809
vn 0.2339 0.9476 0.2174
vn 0.4097 0.8289 0.3809
vn -0.2339 0.9476 -0.2174
vn -0.4097 0.8289 -0.3809
vn -0.2339 0.9476 0.2174
vn -0.4097 0.8289 0.3809
vn -0.0000 0.9593 0.2823
vn -0.3388 0.8866 0.3149
vn 0.0041 0.5265 0.8502
vn 0.3018 0.9534 -0.0000
vn 0.3387 0.8866 0.3149
vn 0.8668 0.4987 -0.0042
vn -0.3018 0.9534 -0.0000
vn -0.3387 0.8866 -0.3149
vn -0.8667 0.4988 0.0039
vn -0.0000 0.9593 -0.2823
vn 0.3388 0.8866 -0.3149
vn -0.0041 0.5265 -0.8502
vn -0.0041 0.5265 0.8502
vn 0.0041 0.5265 -0.8502
vn 0.8667 0.4988 0.0039
vn -0.8668 0.4987 -0.0042
vn -0.0000 1.0000 -0.0000
vn -0.0000 0.8152 -0.5792
vn 0.6072 0.7946 -0.0000
vn -0.0000 0.8152 0.5792
vn -0.6072 0.7946 -0.0000
vt 0.250000 0.628719
vt 0.375000 0.628719
vt 0.375000 0.750000
vt 0.250000 0.750000
vt 0.375000 0.375000
vt 0.500000 0.375000
vt 0.500000 0.500000
vt 0.375000 0.500000
vt 0.500000 0.628719
vt 0.500000 0.750000
vt 0.375000 0.121281
vt 0.500000 0.121281
vt 0.500000 0.250000
vt 0.375000 0.250000
vt 0.375000 0.875000
vt 0.500000 0.875000
vt 0.500000 1.000000
vt 0.375000 1.000000
vt 0.125000 0.628719
vt 0.125000 0.750000
vt 0.125000 0.500000
vt 0.250000 0.500000
vt 0.375000 0.000000
vt 0.500000 0.000000
vt 0.673405 0.552131
vt 0.651982 0.546454
vt 0.666477 0.532039
vt 0.624459 0.522201
vt 0.611232 0.500000
vt 0.638540 0.508322
vt 0.673422 0.697869
vt 0.666531 0.717961
vt 0.651982 0.703546
vt 0.638574 0.741678
vt 0.611271 0.750000
vt 0.624501 0.727843
vt 0.827457 0.553295
vt 0.832635 0.532039
vt 0.845781 0.547273
vt 0.854715 0.508569
vt 0.875000 0.500000
vt 0.867410 0.522899
vt 0.827457 0.697869
vt 0.845781 0.703546
vt 0.832635 0.717961
vt 0.867410 0.727263
vt 0.875000 0.750000
vt 0.854715 0.741431
vt 0.797543 0.697869
vt 0.792365 0.717961
vt 0.750000 0.750000
vt 0.769788 0.741158
vt 0.672988 0.680849
vt 0.651902 0.675172
vt 0.609995 0.628719
vt 0.623494 0.651456
vt 0.827457 0.580463
vt 0.845781 0.586501
vt 0.875000 0.628719
vt 0.866899 0.608362
vt 0.706039 0.552131
vt 0.711032 0.532039
vt 0.750000 0.500000
vt 0.730484 0.508842
vt 0.706076 0.697869
vt 0.711341 0.717961
vt 0.730576 0.741158
vt 0.797543 0.552528
vt 0.792365 0.532039
vt 0.769788 0.508842
vt 0.672911 0.576588
vt 0.651895 0.582265
vt 0.623482 0.605982
vt 0.827457 0.680849
vt 0.845781 0.675172
vt 0.866860 0.650249
vt 0.703533 0.576588
vt 0.562500 0.500000
vt 0.562500 0.628719
vt 0.562500 0.375000
vt 0.609995 0.375000
vt 0.703851 0.680849
vt 0.562500 0.750000
vt 0.609995 0.875000
vt 0.562500 0.875000
vt 0.797543 0.577521
vt 0.562500 0.250000
vt 0.609995 0.250000
vt 0.562500 0.121281
vt 0.609995 0.121281
vt 0.797543 0.680849
vt 0.562500 0.000000
vt 0.609995 0.000000
vt 0.609995 1.000000
vt 0.562500 1.000000
s 0
g off
g Cube_Material
usemtl Material
f 17/1/1 14/2/1 2/3/1 10/4/1
f 9/5/2 11/6/2 5/7/2 1/8/2
f 14/2/3 15/9/3 7/10/3 2/3/3
f 13/11/4 16/12/4 8/13/4 3/14/4
f 10/15/5 12/16/5 6/17/5 4/18/5
f 2/3/5 7/10/5 12/16/5 10/15/5
f 3/14/2 8/13/2 11/6/2 9/5/2
f 13/19/1 17/1/1 10/4/1 4/20/1
f 3/21/1 9/22/1 17/1/1 13/19/1
f 4/23/4 6/24/4 16/12/4 13/11/4
f 1/8/3 5/7/3 15/9/3 14/2/3
f 9/22/1 1/8/1 14/2/1 17/1/1
f 18/25/6 19/26/6 20/27/6
f 21/28/7 22/29/7 23/30/7
f 24/31/8 25/32/8 26/33/8
f 27/34/9 28/35/9 29/36/9
f 30/37/10 31/38/10 32/39/10
f 33/40/11 34/41/11 35/42/11
f 36/43/12 37/44/12 38/45/12
f 39/46/13 40/47/13 41/48/13
f 42/49/14 36/43/14 38/45/14 43/50/14
f 37/44/15 39/46/15 41/48/15 38/45/15
f 40/47/16 45/51/16 44/52/16 41/48/16
f 53/53/17 24/31/17 26/33/17 52/54/17
f 25/32/18 27/34/18 29/36/18 26/33/18
f 28/35/19 51/55/19 50/56/19 29/36/19
f 54/57/20 30/37/20 32/39/20 55/58/20
f 31/38/21 33/40/21 35/42/21 32/39/21
f 34/41/22 57/59/22 56/60/22 35/42/22
f 46/61/23 18/25/23 20/27/23 47/62/23
f 19/26/24 21/28/24 23/30/24 20/27/24
f 22/29/25 49/63/25 48/64/25 23/30/25
f 24/31/14 42/65/14 43/66/14 25/32/14
f 45/51/26 28/35/26 27/34/26 44/67/26
f 30/37/23 46/68/23 47/69/23 31/38/23
f 49/63/27 34/41/27 33/40/27 48/70/27
f 18/25/17 53/71/17 52/72/17 19/26/17
f 51/55/28 22/29/28 21/28/28 50/73/28
f 36/43/20 54/74/20 55/75/20 37/44/20
f 57/59/29 40/47/29 39/46/29 56/76/29
f 18/25/30 46/61/30 58/77/30 53/71/30
f 47/62/31 20/27/31 23/30/31 48/64/31
f 19/26/32 52/72/32 50/73/32 21/28/32
f 5/78/3 22/29/3 51/55/3 15/79/3
f 11/80/2 49/81/2 22/29/2 5/78/2
f 53/53/30 58/82/30 42/65/30 24/31/30
f 52/54/32 26/33/32 29/36/32 50/56/32
f 25/32/33 43/66/33 44/67/33 27/34/33
f 7/83/5 28/35/5 45/84/5 12/85/5
f 15/79/3 51/55/3 28/35/3 7/83/3
f 46/68/30 30/37/30 54/57/30 58/86/30
f 55/58/34 32/39/34 35/42/34 56/60/34
f 31/38/31 47/69/31 48/70/31 33/40/31
f 8/87/2 34/88/2 49/81/2 11/80/2
f 16/89/4 57/90/4 34/88/4 8/87/4
f 58/91/30 54/74/30 36/43/30 42/49/30
f 43/50/33 38/45/33 41/48/33 44/52/33
f 37/44/34 55/75/34 56/76/34 39/46/34
f 6/92/4 40/93/4 57/90/4 16/89/4
f 12/85/5 45/84/5 40/94/5 6/95/5
g Cube_2_Cube.001
v 0.003084 -0.174893 -0.006987
v 0.003084 -0.144022 0.003203
v 0.003084 -0.174893 0.003203
v -0.005304 -0.144022 -0.006987
v -0.005304 -0.174893 -0.006987
v 0.003084 -0.144022 -0.006987
v -0.005304 -0.144022 0.003203
v -0.005304 -0.174893 0.003203
vn 1.0000 -0.0000 -0.0000
vn -0.0000 1.0000 -0.0000
vn -0.0000 -0.0000 -1.0000
vn -0.0000 -0.0000 1.0000
vn -1.0000 -0.0000 -0.0000
vn -0.0000 -1.0000 -0.0000
vt 0.375000 0.000000
vt 0.625000 0.000000
vt 0.625000 0.250000
vt 0.375000 0.250000
vt 0.625000 0.500000
vt 0.375000 0.500000
vt 0.625000 0.750000
vt 0.375000 0.750000
vt 0.625000 1.000000
vt 0.375000 1.000000
vt 0.125000 0.500000
vt 0.125000 0.750000
vt 0.875000 0.500000
vt 0.875000 0.750000
s 0
g off
g Cube_2_Material.001
usemtl Material.001
f 59/96/35 64/97/35 60/98/35 61/99/35
f 64/99/36 62/98/36 65/100/36 60/101/36
f 63/101/37 62/100/37 64/102/37 59/103/37
f 61/103/38 60/102/38 65/104/38 66/105/38
f 66/106/39 65/101/39 62/103/39 63/107/39
f 63/100/40 59/108/40 61/109/40 66/102/40
