# Blender 5.0.1
# www.blender.org
o Bottom
v 0.518677 -0.003573 -0.376248
v 0.479984 -0.003573 -0.414942
v 0.479984 -0.500094 -0.414942
v 0.518677 -0.500094 -0.376248
v -0.479984 -0.500094 0.414942
v -0.518677 -0.500094 0.376248
v -0.518677 -0.003573 0.376248
v -0.479984 -0.003573 0.414942
v -0.500000 0.000000 0.362700
v -0.462700 0.000000 0.400000
v -0.462700 -0.500000 0.400000
v -0.500000 -0.500000 0.362700
v -0.462700 0.000000 -0.400000
v -0.500000 0.000000 -0.362700
v -0.500000 -0.500000 -0.362700
v -0.462700 -0.500000 -0.400000
v 0.462700 0.000000 0.400000
v 0.500000 0.000000 0.362700
v 0.500000 -0.500000 0.362700
v 0.462700 -0.500000 0.400000
v 0.500000 0.000000 -0.362700
v 0.462700 0.000000 -0.400000
v 0.462700 -0.500000 -0.400000
v 0.500000 -0.500000 -0.362700
v -0.518677 -0.003573 -0.376248
v -0.479984 -0.003573 -0.414942
v -0.479984 -0.500094 -0.414942
v -0.518677 -0.500094 -0.376248
v 0.518677 -0.003573 0.376248
v 0.479984 -0.003573 0.414942
v 0.479984 -0.500094 0.414942
v 0.518677 -0.500094 0.376248
vn 0.0029 -1.0000 -0.0029
vn 0.7071 -0.0000 0.7071
vn -0.7071 -0.0000 -0.7071
vn 0.7071 -0.0000 -0.7071
vn -0.7071 -0.0000 0.7071
vn 0.6540 -0.0000 -0.7565
vn -0.5872 -0.0000 -0.8095
vn -0.1095 0.9879 -0.1095
vn 0.5872 -0.0000 -0.8095
vn -0.1095 0.9879 0.1095
vn -0.0000 -0.0000 1.0000
vn -1.0000 -0.0000 -0.0000
vn -0.0000 1.0000 -0.0000
vn -0.0000 -1.0000 -0.0000
vn -0.0000 -0.0000 -1.0000
vn 1.0000 -0.0000 -0.0000
vn 0.0029 -1.0000 0.0029
vn 0.6540 -0.0000 0.7565
vn -0.5872 -0.0000 0.8095
vn -0.0029 -1.0000 0.0029
vn 0.1095 0.9879 0.1095
vn -0.6540 -0.0000 -0.7565
vn -0.6540 -0.0000 0.7565
vn 0.1095 0.9879 -0.1095
vn -0.0029 -1.0000 -0.0029
vn 0.5872 -0.0000 0.8095
vt 0.754224 0.988375
vt 0.791010 0.951589
vt 0.805746 0.968634
vt 0.767586 1.006794
vt 1.731803 -0.016257
vt 1.731803 0.473418
vt 1.677995 0.473418
vt 1.677995 -0.016257
vt 1.731803 0.963092
vt 1.677995 0.963092
vt 1.624187 0.473418
vt 1.624187 -0.016257
vt 1.624187 0.963092
vt 1.777016 -0.016257
vt 1.777016 0.476849
vt 1.754484 0.476942
vt 1.754484 -0.012733
vt 0.996383 1.006794
vt 0.996383 1.499900
vt 0.973702 1.499993
vt 0.973702 1.010318
vt 0.857268 0.002162
vt 0.820482 0.038948
vt 0.805746 0.021903
vt 0.843906 -0.016257
vt 1.731803 0.476849
vt 1.609451 0.038948
vt 1.572665 0.002162
vt 1.586027 -0.016257
vt 1.624187 0.021903
vt 0.480411 1.722264
vt -0.012695 1.722264
vt -0.012695 1.029326
vt 0.480411 1.029326
vt 1.461949 1.006794
vt 1.461949 1.499900
vt 1.609451 0.951589
vt 1.572665 0.988375
vt 0.857268 0.988375
vt 0.820482 0.951588
vt 0.754224 0.002162
vt 0.791010 0.038948
vt 0.038826 0.988375
vt 0.002040 0.951588
vt 0.002040 0.038948
vt 0.038826 0.002162
vt 0.973609 1.722264
vt 0.480503 1.722264
vt 0.480503 1.029326
vt 0.973609 1.029326
vt 1.484630 1.499900
vt 1.484630 1.006794
vt 1.950196 1.006794
vt 1.950196 1.499900
vt 0.025465 1.006794
vt -0.012695 0.968634
vt -0.009171 1.006794
vt 0.480503 1.006794
vt 1.731803 0.970048
vt 1.731803 0.476941
vt 1.754484 0.480465
vt 1.754484 0.970140
vt -0.012695 0.021903
vt 0.025465 -0.016257
vt 1.624187 0.968634
vt 1.586027 1.006794
vt 0.484028 1.006794
vt 0.973702 1.006794
vt 1.777016 0.476941
vt 1.777016 0.970048
vt 0.843906 1.006794
vt 0.767586 -0.016257
vt 0.805746 0.021903
vt 1.461949 1.499993
vt 1.461949 1.010318
s 0
g Bottom_Frame
f 12/1/1 11/2/1 5/3/1 6/4/1
f 30/5/2 31/6/2 32/7/2 29/8/2
f 26/6/3 27/9/3 28/10/3 25/7/3
f 3/11/4 2/12/4 1/8/4 4/7/4
f 7/7/5 6/10/5 5/13/5 8/11/5
f 13/14/6 16/15/6 27/16/6 26/17/6
f 9/18/7 12/19/7 6/20/7 7/21/7
f 14/22/8 13/23/8 26/24/8 25/25/8
f 19/26/9 18/5/9 29/17/9 32/16/9
f 10/27/10 9/28/10 7/29/10 8/30/10
g Bottom_Panel
f 20/31/11 17/32/11 10/33/11 11/34/11
f 12/19/12 9/18/12 14/35/12 15/36/12
g Bottom_Frame
f 9/28/13 10/27/13 17/37/13 18/38/13 21/39/13 22/40/13 13/23/13 14/22/13
g Bottom_Panel
f 19/41/14 20/42/14 11/2/14 12/1/14 15/43/14 16/44/14 23/45/14 24/46/14
f 16/47/15 13/48/15 22/49/15 23/50/15
f 24/51/16 21/52/16 18/53/16 19/54/16
g Bottom_Frame
f 16/44/17 15/43/17 28/55/17 27/56/17
f 11/34/18 10/33/18 8/57/18 5/58/18
f 15/59/19 14/60/19 25/61/19 28/62/19
f 24/46/20 23/45/20 3/63/20 4/64/20
f 18/38/21 17/37/21 30/65/21 29/66/21
f 23/50/22 22/49/22 2/67/22 3/68/22
f 17/69/23 20/70/23 31/62/23 30/61/23
f 22/40/24 21/39/24 1/71/24 2/3/24
f 20/42/25 19/41/25 32/72/25 31/73/25
f 21/52/26 24/51/26 4/74/26 1/75/26
o Bottom.001
v 0.114933 0.005040 -0.400001
v 0.086805 0.098702 -0.381269
v -0.086805 0.098702 -0.381269
v -0.114933 0.005040 -0.400001
v 0.114933 0.008778 -0.418690
v 0.086805 0.102439 -0.399957
v -0.086805 0.102439 -0.399957
v -0.114933 0.008778 -0.418690
v 0.107646 -0.085097 -0.402153
v -0.107646 -0.085097 -0.402153
v 0.107646 -0.081596 -0.419656
v -0.107646 -0.081596 -0.419656
v -0.414422 0.200000 0.360000
v -0.458507 0.165973 0.331077
v -0.464401 0.000000 0.400000
v -0.500000 0.000000 0.364272
v -0.458507 0.165973 -0.331077
v -0.414441 0.200000 -0.324926
v -0.412947 0.189666 -0.362170
v -0.500000 0.000000 -0.364272
v -0.460370 0.000519 -0.400000
v -0.464926 0.000000 -0.400000
v 0.458507 0.165973 0.331077
v 0.414422 0.200000 0.360000
v 0.500000 0.000000 0.364272
v 0.464401 0.000000 0.400000
v 0.412947 0.189666 -0.362170
v 0.414441 0.200000 -0.324926
v 0.458507 0.165973 -0.331077
v 0.460369 0.000519 -0.400000
v 0.500000 0.000000 -0.364272
v 0.464926 0.000000 -0.400000
v -0.439588 0.216100 -0.372457
v -0.488087 0.175574 -0.350322
v -0.427779 0.217474 -0.333277
v -0.515662 -0.002827 -0.375674
v -0.474790 -0.002293 -0.412521
v 0.488087 0.175574 -0.350322
v 0.439588 0.216100 -0.372457
v 0.427779 0.217474 -0.333277
v 0.474790 -0.002293 -0.412521
v 0.515662 -0.002827 -0.375674
v -0.441158 0.205997 0.367492
v -0.488087 0.175574 0.354551
v -0.515662 -0.002827 0.375691
v -0.478948 -0.002827 0.412538
v 0.488087 0.175574 0.354551
v 0.441158 0.205997 0.367492
v 0.478948 -0.002827 0.412538
v 0.515662 -0.002827 0.375691
vn -0.9957 0.0906 0.0181
vn -0.5990 0.7852 0.1570
vn -0.4819 0.7482 -0.4561
vn -0.7241 0.1485 -0.6735
vn 0.4819 0.7482 -0.4561
vn 0.7241 0.1485 -0.6735
vn 0.5990 0.7852 0.1570
vn 0.9957 0.0906 0.0181
vn 0.6372 -0.7557 -0.1512
vn 0.5598 -0.5319 -0.6354
vn -0.6372 -0.7557 -0.1512
vn -0.5598 -0.5319 -0.6354
vn -0.0000 -0.0239 0.9997
vn -0.5110 0.0603 -0.8575
vn -0.1124 0.9875 -0.1104
vn 0.6109 -0.0024 -0.7917
vn 0.1124 0.9875 -0.1104
vn 0.4404 0.0913 0.8932
vn -0.1034 -0.9893 -0.1031
vn 0.3087 -0.9512 -0.0000
vn 0.1034 -0.9893 -0.1031
vn -0.4404 0.0913 0.8932
vn -0.5051 0.8629 0.0120
vn -0.6109 -0.0024 -0.7917
vn -0.0000 0.1961 0.9806
vn -0.9701 0.2425 -0.0000
vn -0.0000 1.0000 -0.0000
vn -0.0000 -1.0000 -0.0000
vn -0.0026 0.1968 -0.9804
vn -0.0000 0.2055 -0.9787
vn -0.0000 -0.0002 -1.0000
vn 0.9701 0.2425 -0.0000
vn 0.0026 0.1968 -0.9804
vn -0.5924 0.7914 0.1508
vn 0.5924 0.7914 0.1508
vn -0.5583 0.2305 0.7970
vn 0.6060 0.2218 -0.7639
vn -0.6060 0.2218 -0.7639
vn 0.5583 0.2305 0.7970
vn -0.0000 0.9994 -0.0350
vn -0.5594 0.8289 0.0014
vn 0.5594 0.8289 0.0014
vn -0.0000 0.4312 0.9022
vn 0.5634 -0.0274 0.8257
vn -0.1046 -0.9893 0.1017
vn -0.0000 -0.3627 -0.9319
vn 0.5110 0.0603 -0.8575
vn 0.5051 0.8629 0.0120
vn 0.1046 -0.9893 0.1017
vn -0.5634 -0.0274 0.8257
vn -0.3087 -0.9512 -0.0000
vt 0.429782 1.117150
vt 0.421832 1.019172
vt 0.440758 1.017594
vt 0.448709 1.115572
vt 0.092890 1.246689
vt -0.001481 1.218655
vt -0.001481 1.045627
vt 0.092890 1.017593
vt 0.466236 1.190621
vt 0.466236 1.017593
vt 0.484842 1.017593
vt 0.484842 1.190621
vt 0.421832 1.019172
vt 0.413881 1.117150
vt 0.394955 1.115572
vt 0.402905 1.017594
vt 0.421832 1.204569
vt 0.404105 1.203091
vt 0.466236 1.017593
vt 0.466236 1.232163
vt 0.448709 1.232163
vt 0.448709 1.017593
vt 0.439558 1.203091
vt 0.182829 1.024856
vt 0.182829 1.239426
vt 0.182829 1.246689
vt 0.182829 1.017593
vt 0.271061 1.024856
vt 0.271061 1.239426
vt 1.761740 0.044837
vt 1.571160 0.092100
vt 1.545544 0.065549
vt 1.765355 0.030465
vt 0.525557 1.017593
vt 0.525557 1.070770
vt 0.522515 1.067399
vt 0.286795 1.191315
vt 0.271061 1.023997
vt 0.301899 1.017594
vt 0.301899 1.195763
vt 0.525557 1.070770
vt 0.525557 1.017593
vt 0.528600 1.067399
vt 1.973191 0.040819
vt 1.770009 0.090631
vt 1.765355 0.063984
vt 1.978044 0.026321
vt 0.795578 0.040819
vt 0.759981 0.005340
vt 0.771429 -0.010270
vt 0.808141 0.026321
vt 1.147587 1.641766
vt 1.147587 0.982046
vt 1.177068 0.962629
vt 1.177068 1.664911
vt 0.759981 1.001984
vt 0.795578 0.966505
vt 0.808141 0.981003
vt 0.771429 1.017593
vt 1.770009 0.916693
vt 1.973191 0.966505
vt 1.978044 0.981003
vt 1.765355 0.943340
vt 1.498258 0.063129
vt 0.815640 0.063148
vt 0.808141 0.036502
vt 1.506489 0.049836
vt 0.332737 1.023997
vt 0.317003 1.191315
vt 0.301899 1.195763
vt 0.301899 1.017593
vt 0.977864 1.688664
vt 0.808141 1.655801
vt 0.808141 0.995927
vt 0.977864 0.962629
vt 0.815640 0.889211
vt 1.498258 0.889230
vt 0.034115 1.001984
vt -0.001481 0.967028
vt -0.001481 0.040296
vt 0.034115 0.005340
vt 1.761740 0.962487
vt 1.571160 0.915223
vt 1.662872 0.590175
vt 1.757244 0.618209
vt 1.662872 0.417148
vt 1.762256 0.040296
vt 1.762256 0.967028
vt 1.757244 0.389114
vt 0.977864 0.962629
vt 1.147587 0.995926
vt 1.147587 1.655801
vt 0.977864 1.688664
vt 1.523698 0.962629
vt 1.506488 0.902523
vt 1.545544 0.914293
vt 1.545544 0.038067
vt 1.523698 -0.010270
vt 1.793114 0.017213
vt 1.971947 -0.010270
vt 1.584399 0.017213
vt 1.763477 -0.010270
vt 1.545544 0.941775
vt 1.765355 0.976859
vt 1.763477 1.017593
vt 1.584398 0.990111
vt 1.971947 1.017593
vt 1.793114 0.990111
vt 0.808141 0.915857
vt 0.821200 0.962629
vt 0.821200 -0.010270
vt 1.225105 0.975922
vt 1.225104 1.802023
vt 1.206550 1.815316
vt 1.206550 0.962629
vt 0.363846 1.025380
vt 0.348007 1.187571
vt 0.332737 1.190927
vt 0.332737 1.017593
vt 0.484842 1.070773
vt 0.484842 1.017593
vt 0.503678 1.019962
vt 0.503678 1.074808
vt 0.522515 1.017594
vt 0.522515 1.070773
vt 0.503678 1.074808
vt 0.503678 1.019962
vt 0.379685 1.187571
vt 0.363846 1.025380
vt 0.394955 1.017593
vt 0.394955 1.190927
vt 1.206550 0.982046
vt 1.206550 1.641766
vt 1.177068 1.664911
vt 1.177068 0.962629
s 1
g Bottom.001_Lock
f 36/76/27 35/77/28 39/78/29 40/79/30
f 40/80/30 39/81/29 38/82/31 37/83/32
f 35/84/28 34/85/33 38/86/31 39/87/29
f 34/88/33 33/89/34 37/90/32 38/91/31
f 37/90/32 33/89/34 41/92/35 43/93/36
f 41/94/35 42/95/37 44/96/38 43/97/36
f 36/76/27 40/79/30 44/98/38 42/92/37
f 40/80/30 37/83/32 43/99/36 44/100/38
s 0
g Bottom.001_Frame
f 33/101/39 36/102/39 42/103/39 41/104/39
f 62/105/40 59/106/40 71/107/40 73/108/40
f 52/109/41 53/110/41 54/111/41
f 57/112/42 55/113/42 79/114/42 82/115/42
f 62/116/43 63/117/43 64/118/43
f 47/119/44 45/120/44 75/121/44 78/122/44
f 58/123/45 57/124/45 82/125/45 81/126/45
f 55/127/46 61/128/46 70/129/46 79/130/46
f 48/131/47 47/132/47 78/133/47 77/134/47
f 56/135/48 58/136/48 81/137/48 80/138/48
f 60/139/49 56/140/49 80/141/49 72/142/49
f 46/143/50 48/144/50 77/145/50 76/146/50
g Bottom.001_Panel
f 58/136/51 56/135/51 45/120/51 47/119/51
f 48/147/52 46/148/52 49/149/52 52/150/52
f 45/151/53 56/140/53 60/139/53 50/152/53
g Bottom.001_Frame
f 57/124/54 58/123/54 47/132/54 48/131/54 52/153/54 54/154/54 64/155/54 63/156/54
g Bottom.001_Panel
f 53/157/55 51/158/55 35/159/55 36/160/55
f 51/158/56 59/106/56 34/161/56 35/159/56
g Bottom.001_Frame
f 62/105/57 64/162/57 54/163/57 53/157/57 36/160/57 33/164/57
g Bottom.001_Panel
f 63/165/58 61/166/58 55/167/58 57/168/58
f 59/106/59 62/105/59 33/164/59 34/161/59
g Bottom.001_Frame
f 66/169/60 67/170/60 65/171/60
f 71/172/61 72/142/61 70/173/61
f 76/174/62 77/175/62 78/122/62 75/121/62
f 73/108/63 71/107/63 70/176/63 74/177/63
f 65/178/64 69/179/64 68/180/64 66/181/64
f 80/138/65 81/137/65 82/182/65 79/183/65
f 67/170/66 72/142/66 71/172/66 65/171/66
f 75/184/67 67/170/67 66/169/67 76/185/67
f 72/142/68 80/141/68 79/186/68 70/173/68
f 50/187/69 60/188/69 72/189/69 67/190/69
f 61/191/70 63/192/70 74/193/70 70/194/70
f 63/195/71 62/196/71 73/197/71 74/198/71
f 59/106/72 51/158/72 65/178/72 71/107/72
f 51/158/73 53/157/73 69/179/73 65/178/73
f 45/151/74 50/152/74 67/170/74 75/184/74
f 53/199/75 52/200/75 68/201/75 69/202/75
f 52/203/76 49/204/76 66/205/76 68/206/76
f 49/207/77 46/208/77 76/209/77 66/210/77
