# Blender 4.2.3 LTS
# www.blender.org
mtllib crystal_roof.mtl
g crystal_roof_crystal_roof
v 0.197713 0.512033 0.209711
v 0.225181 -0.339030 0.260611
v 0.197713 0.512033 0.311510
v 0.252650 0.512033 0.209711
v 0.252650 0.512033 0.311510
v 0.197713 -0.167195 0.209711
v 0.197713 -0.167195 0.311510
v 0.252650 -0.167195 0.311510
v 0.252650 -0.167195 0.209711
v 0.236080 0.512033 0.014112
v 0.236080 0.265084 0.014112
v 0.236080 0.512033 0.106508
v 0.236080 0.265084 0.106508
v 0.307708 0.512033 0.014112
v 0.307708 0.265084 0.014112
v 0.307708 0.512033 0.106508
v 0.307708 0.265084 0.106508
v 0.307190 0.512033 0.184290
v 0.351827 -0.954826 0.234221
v 0.307190 0.512033 0.284152
v 0.396464 0.512033 0.184290
v 0.396464 0.512033 0.284152
v 0.307190 -0.686427 0.184290
v 0.307190 -0.686427 0.284152
v 0.396464 -0.686427 0.284152
v 0.396464 -0.686427 0.184290
v -0.097826 0.512033 -0.091987
v -0.041056 0.110289 -0.024177
v -0.097826 0.512033 0.043634
v 0.015714 0.512033 -0.091987
v 0.015714 0.512033 0.043634
v -0.097826 0.209022 -0.091987
v -0.097826 0.209022 0.043634
v 0.015714 0.209022 0.043634
v 0.015714 0.209022 -0.091987
v -0.282534 0.529066 0.246560
v -0.282534 0.356221 0.246560
v -0.282534 0.529066 0.342537
v -0.282534 0.356221 0.342537
v -0.030060 0.529066 0.246560
v -0.030060 0.356221 0.246560
v -0.030060 0.529066 0.342537
v -0.030060 0.356221 0.342537
v -0.156297 0.230728 0.294549
v -0.354326 0.512033 -0.111263
v -0.292766 -0.511522 -0.111263
v -0.354326 0.512033 0.067987
v -0.292766 -0.765706 0.067987
v -0.231206 0.512033 -0.111263
v -0.231206 0.512033 0.067987
v -0.354326 -0.135454 -0.111263
v -0.354326 -0.135454 0.067987
v -0.231206 -0.135454 0.067987
v -0.231206 -0.135454 -0.111263
v -0.354326 0.512033 -0.021638
v -0.354326 -0.421912 -0.021638
v -0.231206 0.512033 -0.021638
v -0.231206 -0.421912 -0.021638
v -0.231206 -0.250960 -0.021638
v -0.354326 -0.135454 -0.021638
v 0.048896 0.512033 -0.341225
v 0.048896 0.215962 -0.341225
v 0.048896 0.512033 -0.208351
v 0.048896 0.215962 -0.208351
v 0.220243 0.512033 -0.341225
v 0.220243 0.215962 -0.341225
v 0.220243 0.512033 -0.208351
v 0.220243 0.215962 -0.208351
vn -0.9875 -0.1578 -0.0000
vn -0.0000 -0.2840 0.9588
vn 0.9875 -0.1579 -0.0000
vn -0.0000 -0.2840 -0.9588
vn -0.0000 1.0000 -0.0000
vn -0.0000 -0.0000 -1.0000
vn 1.0000 -0.0000 -0.0000
vn -0.0000 -0.0000 1.0000
vn -1.0000 -0.0000 -0.0000
vn -0.0000 -1.0000 -0.0000
vn -0.9865 -0.1641 -0.0000
vn -0.0000 -0.1829 0.9831
vn 0.9865 -0.1641 -0.0000
vn -0.0000 -0.1829 -0.9831
vn -0.8669 -0.4985 -0.0000
vn -0.0000 -0.5661 0.8243
vn 0.8669 -0.4985 -0.0000
vn -0.0000 -0.5661 -0.8243
vn -0.7050 -0.7092 -0.0000
vn -0.0000 -0.3572 -0.9340
vn -0.0000 -0.3572 0.9340
vn 0.7050 -0.7092 -0.0000
vn -0.9756 -0.0655 0.2094
vn 0.9357 -0.1053 -0.3366
vn -0.0000 -0.7072 0.7070
vn -0.0000 -0.2523 -0.9677
vn 0.9685 -0.0744 0.2378
vn -0.9548 -0.0887 -0.2836
vt 0.574524 0.000000
vt 0.625000 0.250000
vt 0.574524 0.250000
vt 0.625000 0.500000
vt 0.574524 0.500000
vt 0.625000 0.750000
vt 0.574524 0.750000
vt 0.625000 1.000000
vt 0.574524 1.000000
vt 0.125000 0.500000
vt 0.375000 0.500000
vt 0.375000 0.750000
vt 0.125000 0.750000
vt 0.375000 1.000000
vt 0.375000 0.250000
vt 0.375000 0.000000
vt 0.625000 0.000000
vt 0.875000 0.500000
vt 0.875000 0.750000
vt 0.579256 0.000000
vt 0.579256 0.250000
vt 0.579256 0.500000
vt 0.579256 0.750000
vt 0.579256 1.000000
vt 0.563560 0.000000
vt 0.563560 0.250000
vt 0.563560 0.500000
vt 0.563560 0.750000
vt 0.563560 1.000000
vt 0.548320 0.125000
vt 0.625000 0.125000
vt 0.548320 0.250000
vt 0.548320 0.500000
vt 0.548320 0.625000
vt 0.625000 0.625000
vt 0.548320 0.750000
vt 0.548320 1.000000
vt 0.125000 0.625000
vt 0.375000 0.625000
vt 0.875000 0.625000
vt 0.375000 0.125000
vt 0.548320 0.000000
s 0
f 6/1/1 2/2/1 7/3/1
f 7/3/2 2/4/2 8/5/2
f 8/5/3 2/6/3 9/7/3
f 9/7/4 2/8/4 6/9/4
f 3/10/5 5/11/5 4/12/5 1/13/5
f 4/12/6 9/7/6 6/9/6 1/14/6
f 5/11/7 8/5/7 9/7/7 4/12/7
f 3/15/8 7/3/8 8/5/8 5/11/8
f 1/16/9 6/1/9 7/3/9 3/15/9
f 10/16/9 11/17/9 13/2/9 12/15/9
f 12/15/8 13/2/8 17/4/8 16/11/8
f 16/11/7 17/4/7 15/6/7 14/12/7
f 14/12/6 15/6/6 11/8/6 10/14/6
f 12/10/5 16/11/5 14/12/5 10/13/5
f 17/4/10 13/18/10 11/19/10 15/6/10
f 23/20/11 19/2/11 24/21/11
f 24/21/12 19/4/12 25/22/12
f 25/22/13 19/6/13 26/23/13
f 26/23/14 19/8/14 23/24/14
f 20/10/5 22/11/5 21/12/5 18/13/5
f 21/12/6 26/23/6 23/24/6 18/14/6
f 22/11/7 25/22/7 26/23/7 21/12/7
f 20/15/8 24/21/8 25/22/8 22/11/8
f 18/16/9 23/20/9 24/21/9 20/15/9
f 32/25/15 28/2/15 33/26/15
f 33/26/16 28/4/16 34/27/16
f 34/27/17 28/6/17 35/28/17
f 35/28/18 28/8/18 32/29/18
f 29/10/5 31/11/5 30/12/5 27/13/5
f 30/12/6 35/28/6 32/29/6 27/14/6
f 31/11/7 34/27/7 35/28/7 30/12/7
f 29/15/8 33/26/8 34/27/8 31/11/8
f 27/16/9 32/25/9 33/26/9 29/15/9
f 36/16/9 37/17/9 39/2/9 38/15/9
f 38/15/8 39/2/8 43/4/8 42/11/8
f 42/11/7 43/4/7 41/6/7 40/12/7
f 40/12/6 41/6/6 37/8/6 36/14/6
f 38/10/5 42/11/5 40/12/5 36/13/5
f 39/2/19 37/17/19 44/2/19
f 37/8/20 41/6/20 44/8/20
f 43/4/21 39/2/21 44/4/21
f 41/6/22 43/4/22 44/6/22
f 60/30/23 56/31/23 48/2/23 52/32/23
f 52/32/8 48/4/8 53/33/8
f 59/34/24 58/35/24 46/6/24 54/36/24
f 54/36/6 46/8/6 51/37/6
f 55/38/5 57/39/5 49/12/5 45/13/5
f 58/35/25 56/40/25 46/6/25
f 49/12/6 54/36/6 51/37/6 45/14/6
f 57/39/7 59/34/7 54/36/7 49/12/7
f 47/15/8 52/32/8 53/33/8 50/11/8
f 55/41/9 60/30/9 52/32/9 47/15/9
f 45/16/9 51/42/9 60/30/9 55/41/9
f 50/11/7 53/33/7 59/34/7 57/39/7
f 48/18/26 56/40/26 58/35/26
f 47/10/5 50/11/5 57/39/5 55/38/5
f 53/33/27 48/4/27 58/35/27 59/34/27
f 51/42/28 46/17/28 56/31/28 60/30/28
f 61/16/9 62/17/9 64/2/9 63/15/9
f 63/15/8 64/2/8 68/4/8 67/11/8
f 67/11/7 68/4/7 66/6/7 65/12/7
f 65/12/6 66/6/6 62/8/6 61/14/6
f 63/10/5 67/11/5 65/12/5 61/13/5
f 68/4/10 64/18/10 62/19/10 66/6/10
