# Blender 4.5.3 LTS
# www.blender.org
mtllib leaves.mtl
g Cube_Cube
v 1.000000 1.000000 -1.000000
v 1.000000 -1.000000 -1.000000
v 1.000000 1.000000 1.000000
v 1.000000 -1.000000 1.000000
v -1.000000 1.000000 -1.000000
v -1.000000 -1.000000 -1.000000
v -1.000000 1.000000 1.000000
v -1.000000 -1.000000 1.000000
vn -0.0000 1.0000 -0.0000
vn -0.0000 -0.0000 1.0000
vn -1.0000 -0.0000 -0.0000
vn -0.0000 -1.0000 -0.0000
vn 1.0000 -0.0000 -0.0000
vn -0.0000 -0.0000 -1.0000
vt 0.625000 0.500000
vt 0.875000 0.500000
vt 0.875000 0.750000
vt 0.625000 0.750000
vt 0.375000 0.750000
vt 0.625000 1.000000
vt 0.375000 1.000000
vt 0.375000 0.000000
vt 0.625000 0.000000
vt 0.625000 0.250000
vt 0.375000 0.250000
vt 0.125000 0.500000
vt 0.375000 0.500000
vt 0.125000 0.750000
s 0
g off
g Cube_Material
usemtl Material
f 1/1/1 5/2/1 7/3/1 3/4/1
f 4/5/2 3/4/2 7/6/2 8/7/2
f 8/8/3 7/9/3 5/10/3 6/11/3
f 6/12/4 2/13/4 4/5/4 8/14/4
f 2/13/5 1/1/5 3/4/5 4/5/5
f 6/11/6 5/10/6 1/1/6 2/13/6
g Cube.001_Cube.001
v -1.249112 -1.305392 0.770194
v -1.228583 1.442042 1.423119
v 1.312502 -1.309287 0.835865
v 1.395706 1.096263 -0.959445
vn -0.4111 -0.1894 -0.8917
vt 0.375000 0.250000
vt 0.625000 0.250000
vt 0.625000 0.500000
vt 0.375000 0.500000
s 0
g off
f 9/15/7 10/16/7 12/17/7 11/18/7
g Cube.002_Cube.002
v -0.532349 -1.305392 1.348630
v -1.185273 1.442042 1.328101
v -0.598020 -1.309287 -1.212984
v 1.197291 1.096263 -1.296188
vn 0.8917 -0.1894 0.4111
vt 0.375000 0.250000
vt 0.625000 0.250000
vt 0.625000 0.500000
vt 0.375000 0.500000
s 0
g off
f 13/19/8 15/22/8 16/21/8 14/20/8
g Cube.003_Cube.003
v -1.249112 1.608545 0.770194
v -1.228583 -1.138889 1.423119
v 1.312502 1.612440 0.835865
v 1.395706 -0.793111 -0.959445
vn -0.4111 0.1894 -0.8917
vt 0.375000 0.250000
vt 0.625000 0.250000
vt 0.625000 0.500000
vt 0.375000 0.500000
s 0
g off
f 17/23/9 19/26/9 20/25/9 18/24/9
g Cube.004_Cube.004
v -1.249112 1.608545 -0.078383
v -1.228583 -1.138889 -0.731308
v 1.312502 1.612440 -0.144054
v 1.395706 -0.793111 1.651257
vn -0.4111 0.1894 0.8917
vt 0.375000 0.250000
vt 0.625000 0.250000
vt 0.625000 0.500000
vt 0.375000 0.500000
s 0
g off
f 21/27/10 22/28/10 24/29/10 23/30/10
g Cube.005_Cube.005
v 0.316229 -1.305392 1.348630
v 0.969153 1.442042 1.328101
v 0.381899 -1.309287 -1.212984
v -1.413411 1.096263 -1.296188
vn -0.8917 -0.1894 0.4111
vt 0.375000 0.250000
vt 0.625000 0.250000
vt 0.625000 0.500000
vt 0.375000 0.500000
s 0
g off
f 25/31/11 26/32/11 28/33/11 27/34/11
g Cube.006_Cube.006
v 0.316229 1.608545 1.348630
v 0.969153 -1.138889 1.328101
v 0.381899 1.612440 -1.212984
v -1.413411 -0.793111 -1.296188
vn -0.8917 0.1894 0.4111
vt 0.375000 0.250000
vt 0.625000 0.250000
vt 0.625000 0.500000
vt 0.375000 0.500000
s 0
g off
f 29/35/12 31/38/12 32/37/12 30/36/12
