g ore
v 0.125000 -0.250000 -0.125000
v 0.125000 -0.250000 0.062500
v 0.125000 -0.125000 0.062500
v 0.125000 -0.125000 -0.125000
v -0.187500 -0.250000 -0.125000
v -0.187500 -0.250000 0.062500
v -0.187500 -0.125000 0.062500
v -0.187500 -0.125000 -0.125000
vn 1.0000 -0.0000 -0.0000
vn -1.0000 -0.0000 -0.0000
vn -0.0000 -0.0000 -1.0000
vn -0.0000 -0.0000 1.0000
vn -0.0000 -1.0000 -0.0000
vn -0.0000 1.0000 -0.0000
vt 0.437500 0.562500
vt 0.562500 0.562500
vt 0.562500 0.375000
vt 0.437500 0.375000
vt 0.437500 0.312500
vt 0.437500 0.625000
vt 0.562500 0.625000
vt 0.562500 0.312500
vt 0.000000 0.000000
vt 0.625000 0.625000
vt 0.625000 0.312500
s 0
f 1/1/1 4/2/1 3/3/1 2/4/1
f 5/1/2 6/4/2 7/3/2 8/2/2
f 1/5/3 5/6/3 8/7/3 4/8/3
f 2/5/4 3/8/4 7/7/4 6/6/4
f 1/9/5 2/9/5 6/9/5 5/9/5
f 4/5/6 8/6/6 7/10/6 3/11/6
g stone
v 0.250000 -0.500000 -0.250000
v 0.250000 -0.500000 0.187500
v 0.250000 -0.250000 0.187500
v 0.250000 -0.250000 -0.250000
v -0.312500 -0.500000 -0.250000
v -0.312500 -0.500000 0.187500
v -0.312500 -0.250000 0.187500
v -0.312500 -0.250000 -0.250000
vn 1.0000 -0.0000 -0.0000
vn -1.0000 -0.0000 -0.0000
vn -0.0000 -0.0000 -1.0000
vn -0.0000 -0.0000 1.0000
vn -0.0000 -1.0000 -0.0000
vn -0.0000 1.0000 -0.0000
vt 0.750000 0.687500
vt 0.750000 0.437500
vt 0.312500 0.437500
vt 0.312500 0.687500
vt 0.250000 0.625000
vt 0.812500 0.625000
vt 0.812500 0.375000
vt 0.250000 0.375000
vt 0.750000 0.375000
vt 0.750000 0.812500
vt 0.187500 0.812500
vt 0.187500 0.375000
vt 0.750000 0.250000
vt 0.187500 0.250000
vt 0.187500 0.687500
s 0
f 9/12/7 12/13/7 11/14/7 10/15/7
f 13/12/8 14/15/8 15/14/8 16/13/8
f 9/16/9 13/17/9 16/18/9 12/19/9
f 10/16/10 11/19/10 15/18/10 14/17/10
f 9/20/11 10/21/11 14/22/11 13/23/11
f 12/24/12 16/25/12 15/26/12 11/12/12
