# Blender 5.0.1
# www.blender.org
o Cube
v 0.000000 0.050000 -0.500000
v 0.000000 -0.034461 0.500000
v 0.000000 -0.050000 0.500000
v -1.500000 0.050000 -0.224014
v -1.500000 -0.034461 1.098915
v -1.500000 -0.050000 1.098915
v -1.691702 -0.050000 0.973743
v -1.691702 -0.034461 0.973743
v -1.943909 0.050000 -0.061078
v 0.000000 -0.050000 0.500000
v -1.427048 -0.034461 1.069787
v -1.427048 -0.050000 1.069787
v -1.427048 0.050000 -0.237436
v -1.500000 -0.050000 1.037847
v 0.000000 -0.030563 0.453839
v -1.500000 -0.030563 1.037847
v -1.703344 -0.047343 0.925974
v -1.703344 -0.030563 0.925974
v -1.427048 -0.050000 1.009444
v -1.427048 -0.030563 1.009444
v -1.500000 0.045990 -0.161208
v -1.931935 0.045990 -0.011950
v -1.500000 -0.050000 -0.161208
v 0.000000 0.045990 -0.452525
v -1.931935 0.004824 -0.011950
v -1.427048 -0.050000 -0.175376
v -1.427048 0.045990 -0.175376
v -1.422781 -0.000360 1.058362
v -1.494497 -0.000360 1.086996
v 0.000000 -0.011143 0.445824
v 0.000000 -0.014976 0.491202
v -1.484603 0.078728 -0.151768
v -1.494497 0.082670 -0.213509
v -1.422781 0.082670 -0.226704
v 0.000000 0.068054 -0.491848
v -1.919111 0.056548 -0.025986
v -1.930882 0.060489 -0.055381
v -1.682949 -0.022540 0.968120
v -1.432676 0.003473 0.999042
v -1.484603 0.003473 1.026964
v -1.694394 -0.018708 0.937064
v -1.432676 0.078728 -0.165696
v 0.000000 0.064112 -0.445178
v -1.445662 -0.092025 -0.161208
v -1.445662 -0.092025 1.037847
v -1.424688 -0.093359 -0.175376
v -1.424688 -0.093359 1.009444
v -1.427048 -0.015761 -0.237436
v -1.500000 -0.015761 -0.224014
v -1.500000 0.050000 -0.224014
v -1.427048 0.050000 -0.237436
v -1.441601 -0.007946 -0.267818
v -1.497214 -0.007946 -0.257586
v -1.497214 0.042185 -0.257586
v -1.441601 0.042185 -0.267818
v -1.434370 -0.030793 1.084520
v -1.491627 -0.030793 1.107381
v -1.431021 -0.004028 1.075553
v -1.487308 -0.004028 1.098027
v -0.150504 -0.036858 -0.460806
v 0.000000 -0.023628 -0.500000
v -1.500000 -0.050000 -0.196787
v -1.499495 -0.023564 -0.224199
v -1.943909 0.034124 -0.061078
v -1.937819 0.006167 -0.036090
v -1.427048 -0.023628 -0.237436
v -1.427048 -0.050000 -0.210253
v 1.500000 0.050000 -0.224014
v 1.500000 -0.034461 1.098915
v 1.500000 -0.050000 1.098915
v 1.691702 -0.050000 0.973743
v 1.691702 -0.034461 0.973743
v 1.943909 0.050000 -0.061078
v 1.427048 -0.034461 1.069787
v 1.427048 -0.050000 1.069787
v 1.427048 0.050000 -0.237436
v 1.500000 -0.050000 1.037847
v 1.500000 -0.030563 1.037847
v 1.703344 -0.047343 0.925974
v 1.703344 -0.030563 0.925974
v 1.427048 -0.050000 1.009444
v 1.427048 -0.030563 1.009444
v 1.500000 0.045990 -0.161208
v 1.931935 0.045990 -0.011950
v 1.500000 -0.050000 -0.161208
v 1.931935 0.004824 -0.011950
v 1.427048 -0.050000 -0.175376
v 1.427048 0.045990 -0.175376
v 1.422781 -0.000360 1.058362
v 1.494497 -0.000360 1.086996
v 1.484603 0.078728 -0.151768
v 1.494497 0.082670 -0.213509
v 1.422781 0.082670 -0.226704
v 1.919111 0.056548 -0.025986
v 1.930882 0.060489 -0.055381
v 1.682949 -0.022540 0.968120
v 1.432676 0.003473 0.999042
v 1.484603 0.003473 1.026964
v 1.694394 -0.018708 0.937064
v 1.432676 0.078728 -0.165696
v 1.445662 -0.092025 -0.161208
v 1.445662 -0.092025 1.037847
v 1.424688 -0.093359 -0.175376
v 1.424688 -0.093359 1.009444
v 1.427048 -0.015761 -0.237436
v 1.500000 -0.015761 -0.224014
v 1.500000 0.050000 -0.224014
v 1.427048 0.050000 -0.237436
v 1.441601 -0.007946 -0.267818
v 1.497214 -0.007946 -0.257586
v 1.497214 0.042185 -0.257586
v 1.441601 0.042185 -0.267818
v 1.434370 -0.030793 1.084520
v 1.491627 -0.030793 1.107381
v 1.431021 -0.004028 1.075553
v 1.487308 -0.004028 1.098027
v 0.150504 -0.036858 -0.460806
v 1.500000 -0.050000 -0.196787
v 1.499495 -0.023564 -0.224199
v 1.943909 0.034124 -0.061078
v 1.937819 0.006167 -0.036090
v 1.427048 -0.023628 -0.237436
v 1.427048 -0.050000 -0.210253
vn -0.5033 0.4395 0.7440
vn 0.3708 -0.0000 0.9287
vn 0.0085 -0.9996 -0.0253
vn 1.0000 -0.0000 -0.0000
vn -0.5467 -0.0000 0.8373
vn -0.0000 -1.0000 -0.0000
vn 0.1812 -0.2941 0.9384
vn 0.0213 0.9971 0.0730
vn -0.6118 -0.7910 -0.0000
vn 0.3542 0.3054 0.8839
vn -0.9716 -0.0000 0.2368
vn -0.0910 -0.9957 -0.0146
vn -0.3161 0.4494 -0.8356
vn -0.3417 -0.3381 -0.8769
vn -0.1684 0.3563 -0.9191
vn 0.0042 0.9975 0.0710
vn 0.0293 0.9975 0.0641
vn -0.0210 0.9956 0.0911
vn 0.0375 0.9969 0.0694
vn -0.1544 0.9843 0.0855
vn 0.0258 0.9976 0.0641
vn 0.0141 0.9978 0.0641
vn 0.0246 0.9969 0.0752
vn 0.4371 -0.2280 -0.8700
vn 0.3034 -0.0971 0.9479
vn -0.1710 0.3276 -0.9292
vn 0.1014 0.9619 0.2538
vn -0.7989 0.5291 0.2859
vn -0.5616 0.7888 0.2497
vn -0.9075 0.4191 0.0268
vn 0.9860 0.1663 0.0107
vn -0.0635 -0.9980 -0.0000
vn -0.2860 -0.1899 -0.9392
vn 0.9985 0.0544 -0.0000
vn 0.4925 0.3270 0.8066
vn -0.0423 0.9723 -0.2298
vn -0.0000 1.0000 -0.0000
vn -0.1810 -0.0000 -0.9835
vn -0.0423 -0.9723 -0.2298
vn 0.9019 -0.0000 -0.4320
vn -0.9966 -0.0000 -0.0827
vn 0.3585 0.2559 0.8978
vn 0.8984 0.0343 0.4379
vn 0.1176 -0.9484 0.2946
vn -0.7390 0.3254 0.5899
vn 0.0807 -0.9964 -0.0263
vn -0.1271 -0.7124 -0.6902
vn -0.3300 -0.6723 -0.6627
vn -0.1315 -0.6912 -0.7106
vn 0.0030 -1.0000 -0.0061
vn -0.1803 0.0058 -0.9836
vn 0.3444 -0.0000 0.9388
vn -0.3446 -0.0000 -0.9388
vn -0.1299 -0.9915 -0.0095
vn 0.5033 0.4395 0.7440
vn -0.3708 -0.0000 0.9287
vn -0.0085 -0.9996 -0.0253
vn 0.5467 -0.0000 0.8373
vn -0.1812 -0.2941 0.9384
vn -0.0213 0.9971 0.0730
vn 0.6118 -0.7910 -0.0000
vn -0.3542 0.3054 0.8839
vn 0.9716 -0.0000 0.2368
vn 0.0910 -0.9957 -0.0146
vn 0.3161 0.4494 -0.8356
vn 0.3417 -0.3381 -0.8769
vn 0.1684 0.3563 -0.9191
vn -0.0042 0.9975 0.0710
vn -0.0293 0.9975 0.0641
vn 0.0210 0.9956 0.0911
vn -0.0375 0.9969 0.0694
vn 0.1544 0.9843 0.0855
vn -0.0258 0.9976 0.0641
vn -0.0141 0.9978 0.0641
vn -0.0246 0.9969 0.0752
vn -0.4371 -0.2280 -0.8700
vn -0.3034 -0.0971 0.9479
vn 0.1710 0.3276 -0.9292
vn -0.1014 0.9619 0.2538
vn 0.7989 0.5291 0.2859
vn 0.5616 0.7888 0.2497
vn 0.9075 0.4191 0.0268
vn -0.9860 0.1663 0.0107
vn 0.0635 -0.9980 -0.0000
vn 0.2860 -0.1899 -0.9392
vn -0.9985 0.0544 -0.0000
vn -0.4925 0.3270 0.8066
vn 0.0423 0.9723 -0.2298
vn 0.1810 -0.0000 -0.9835
vn 0.0423 -0.9723 -0.2298
vn -0.9019 -0.0000 -0.4320
vn 0.9966 -0.0000 -0.0827
vn -0.3585 0.2559 0.8978
vn -0.8984 0.0343 0.4379
vn -0.1176 -0.9484 0.2946
vn 0.7390 0.3254 0.5899
vn -0.0807 -0.9964 -0.0263
vn 0.1271 -0.7124 -0.6902
vn 0.3300 -0.6723 -0.6627
vn 0.1315 -0.6912 -0.7106
vn -0.0030 -1.0000 -0.0061
vn 0.1803 0.0058 -0.9836
vn -0.3444 -0.0000 0.9388
vn 0.3446 -0.0000 -0.9388
vn 0.1299 -0.9915 -0.0095
vn -0.0000 -0.0000 1.0000
vt 1.686491 1.006682
vt 1.648549 1.201300
vt 1.607686 1.188655
vt 1.670640 1.002453
vt 1.704358 1.561326
vt 1.722525 1.561308
vt 1.722525 1.653326
vt 1.704358 1.653343
vt -1.324549 -1.449704
vt -1.394044 -1.466705
vt -1.198239 -1.650000
vt -1.140625 -1.649984
vt -0.958767 0.740551
vt -0.958767 0.684956
vt -0.936903 0.692735
vt -0.936903 0.747387
vt 1.666416 1.201552
vt 1.704358 1.006935
vt -1.312532 -1.358783
vt -1.381202 -1.375582
vt 1.704358 -0.238669
vt 1.722525 -0.238687
vt 1.890229 -0.231383
vt 1.873308 1.446349
vt 1.852703 1.442841
vt 1.852703 -0.242385
vt 1.477209 0.682290
vt 1.477209 2.385331
vt 0.111651 2.650000
vt 0.431277 0.884931
vt 0.039969 -1.115902
vt 0.024624 -1.053527
vt -1.339893 -1.387328
vt 1.745917 -0.242385
vt 1.763070 1.551826
vt 1.682853 0.949024
vt 1.702148 0.949297
vt -0.009371 -1.649673
vt 2.152874 0.132327
vt 2.146271 0.683595
vt 2.133355 0.670426
vt 2.113759 0.128971
vt 1.830610 1.543213
vt 1.813939 -0.238367
vt 1.852703 -0.242385
vt 1.852703 1.545174
vt 2.152874 -1.650000
vt 2.152874 0.045644
vt 2.113759 0.043757
vt 2.131113 -1.647718
vt 1.607686 -0.242386
vt 1.607686 -1.650000
vt 2.113759 -1.475480
vt 1.845882 -0.373196
vt 1.611428 -0.183086
vt 1.658761 -0.182417
vt 0.208967 0.402088
vt 0.192034 0.469027
vt 0.126468 0.497349
vt 0.138592 0.407715
vt 1.534557 0.133744
vt 1.607686 0.127428
vt 1.550592 0.668580
vt 1.513622 0.663590
vt 0.428769 -1.383023
vt 0.377017 -1.370103
vt 0.351969 0.682290
vt 0.313216 0.678140
vt 1.535616 0.070772
vt 1.602296 0.042172
vt 1.498127 -1.650000
vt 1.444903 -1.636712
vt -1.322409 0.712129
vt -1.343942 0.909208
vt -1.357437 0.899816
vt -1.357437 0.684956
vt -1.369534 1.234041
vt -1.394043 0.699480
vt -1.357437 1.213591
vt 0.111651 0.492356
vt 0.121166 0.422006
vt -0.980631 0.750165
vt -0.980631 0.696108
vt -0.958767 0.684956
vt -0.958767 0.738096
vt 1.667641 0.963896
vt 1.559997 0.681913
vt 1.500581 0.682290
vt 1.932133 -0.242386
vt 1.932134 1.131668
vt 1.890229 1.118814
vt 1.890229 -0.231950
vt 1.932134 1.143127
vt 1.932134 -0.242385
vt 1.971369 -0.234023
vt 1.971369 1.128006
vt 0.034902 -1.025697
vt -1.313416 -1.355536
vt -1.271651 0.774316
vt -1.271651 0.687415
vt -1.221017 0.684956
vt -1.223395 0.712893
vt 1.763069 1.140615
vt 1.763069 -0.242345
vt 1.813939 -0.242385
vt 1.813939 1.140574
vt -1.271651 0.687518
vt -1.271651 0.779232
vt -1.322257 0.719781
vt -1.322409 0.684956
vt -1.124306 0.771855
vt -1.124306 0.684956
vt -1.086856 0.695371
vt -1.086856 0.761616
vt -1.162433 0.751330
vt -1.221017 0.751036
vt -1.162433 0.685250
vt -1.162433 0.771852
vt -1.162433 0.684956
vt -1.124306 0.695181
vt -1.124306 0.761424
vt -1.049928 0.684956
vt -1.049928 0.761920
vt -1.086856 0.752148
vt -1.086856 0.693476
vt -1.049928 0.760577
vt -1.012453 0.691576
vt -1.012453 0.749223
vt -1.012453 0.764619
vt -1.012453 0.692399
vt -0.980631 0.684956
vt -0.980631 0.755952
vt -0.914885 0.726640
vt -0.914885 0.684956
vt -0.897765 0.694509
vt -0.897765 0.727225
vt -0.924080 0.684957
vt -0.924080 0.776980
vt -0.936903 0.762568
vt -0.936903 0.690343
vt 1.642783 1.213159
vt 1.610711 1.203234
vt 0.005353 0.502954
vt 0.008133 0.684956
vt -1.130000 0.406910
vt 0.075477 -1.019235
vt 0.080459 -1.105997
vt 0.111651 -1.098133
vt 0.106549 -1.012009
vt 0.050022 -1.650000
vt 0.019745 -1.649665
vt 2.238918 0.046076
vt 2.238918 -1.649569
vt -0.914885 0.685002
vt -0.914953 0.771057
vt -0.924079 0.771639
vt -0.924079 0.684956
vt 0.035787 -1.028944
vt -0.897765 0.770967
vt -0.897765 0.684956
vt -0.897201 0.761839
vt 2.238851 0.132130
vt 2.164825 0.683688
vt 1.607686 -0.242385
vt 1.625941 -0.242127
vt 1.657644 -0.211545
s 0
g Cube_Frame
f 8/1/1 5/2/1 29/3/1 38/4/1
f 12/5/2 11/6/2 5/7/2 6/8/2
g Cube_Leafy
f 14/9/3 6/10/3 7/11/3 17/12/3
f 24/13/4 1/14/4 35/15/4 43/16/4
g Cube_Frame
f 6/17/5 5/2/5 8/1/5 7/18/5
f 14/9/6 19/19/6 12/20/6 6/10/6
f 3/21/2 2/22/2 11/6/2 12/5/2
f 27/23/7 24/24/7 43/25/7 42/26/7
g Cube_Leafy
f 24/27/8 27/28/8 20/29/8 15/30/8
g Cube_Frame
f 14/9/9 23/31/9 44/32/9 45/33/9
f 11/6/10 2/22/10 31/34/10 28/35/10
f 7/18/11 8/1/11 18/36/11 17/37/11
g Cube_Leafy
f 23/31/12 14/9/12 17/12/12 25/38/12
g Cube_Frame
f 4/39/13 9/40/13 37/41/13 33/42/13
f 15/43/14 20/44/14 39/45/14 30/46/14
f 1/47/15 13/48/15 34/49/15 35/50/15
g Cube_Leafy
f 16/51/16 21/52/16 22/53/16 18/54/16
f 17/37/11 18/36/11 22/55/11 25/56/11
g Cube_Frame
f 39/57/17 40/58/17 29/59/17 28/60/17
f 32/61/18 33/62/18 37/63/18 36/64/18
f 30/65/19 39/57/19 28/60/19 31/66/19
f 29/59/20 40/58/20 41/67/20 38/68/20
f 42/69/21 32/61/21 40/58/21 39/57/21
f 34/70/22 33/62/22 32/61/22 42/69/22
f 35/71/23 34/70/23 42/69/23 43/72/23
f 16/73/24 18/74/24 41/75/24 40/76/24
f 22/77/25 21/78/25 32/76/25 36/79/25
f 13/48/26 4/39/26 33/42/26 34/49/26
f 28/60/27 29/59/27 59/80/27 58/81/27
g Cube_Leafy
f 2/82/4 15/83/4 30/84/4 31/85/4
g Cube_Frame
f 18/36/28 8/1/28 38/4/28 41/86/28
f 9/87/29 22/88/29 36/64/29 37/63/29
f 21/89/30 16/90/30 40/91/30 32/92/30
f 20/93/31 27/94/31 42/95/31 39/96/31
f 44/32/32 46/97/32 47/98/32 45/33/32
f 23/99/33 26/100/33 46/101/33 44/102/33
f 26/103/34 19/104/34 47/105/34 46/106/34
f 19/107/35 14/108/35 45/109/35 47/110/35
f 50/111/36 51/112/36 55/113/36 54/114/36
g Cube_Leafy
f 4/110/37 13/110/37 51/110/37 50/110/37
g Cube_Frame
f 53/115/38 54/116/38 55/101/38 52/117/38
f 48/118/39 49/119/39 53/120/39 52/121/39
f 51/122/40 48/123/40 52/124/40 55/125/40
f 49/126/41 50/122/41 54/127/41 53/128/41
f 57/129/42 56/130/42 58/131/42 59/132/42
f 11/133/43 28/134/43 58/135/43 56/136/43
f 5/137/44 11/138/44 56/139/44 57/140/44
f 29/3/45 5/2/45 57/141/45 59/142/45
g Cube_Leafy
f 60/143/46 61/144/46 3/145/46
g Cube_Frame
f 67/146/47 62/147/47 63/148/47 66/149/47
f 64/150/48 63/148/48 62/147/48 65/151/48
f 60/143/49 67/146/49 66/149/49 61/144/49
f 66/152/38 13/48/38 1/47/38 61/153/38
g Cube_Leafy
f 12/20/50 67/146/50 60/143/50 3/145/50
g Cube_Frame
f 66/154/51 63/155/51 49/156/51 48/157/51
f 62/147/6 67/146/6 26/158/6 23/31/6
g Cube_Leafy
f 63/159/52 4/160/52 50/160/52 49/161/52
g Cube_Frame
f 4/39/53 63/162/53 64/163/53 9/40/53
f 62/147/54 23/31/54 25/38/54 65/151/54
f 25/56/11 22/55/11 9/164/11 64/165/11 65/166/11
g Cube_Leafy
f 13/110/37 66/110/37 48/110/37 51/110/37
g Cube_Frame
f 72/1/55 96/4/55 90/3/55 69/2/55
f 75/5/56 70/8/56 69/7/56 74/6/56
g Cube_Leafy
f 77/9/57 79/12/57 71/11/57 70/10/57
g Cube_Frame
f 70/17/58 71/18/58 72/1/58 69/2/58
f 77/9/6 70/10/6 75/20/6 81/19/6
f 3/21/56 75/5/56 74/6/56 2/22/56
f 88/23/59 100/26/59 43/25/59 24/24/59
g Cube_Leafy
f 24/27/60 15/30/60 82/29/60 88/28/60
g Cube_Frame
f 77/9/61 102/33/61 101/32/61 85/31/61
f 74/6/62 89/35/62 31/34/62 2/22/62
f 71/18/63 79/37/63 80/36/63 72/1/63
g Cube_Leafy
f 85/31/64 86/38/64 79/12/64 77/9/64
g Cube_Frame
f 68/39/65 92/42/65 95/41/65 73/40/65
f 15/43/66 30/46/66 97/45/66 82/44/66
f 1/47/67 35/50/67 93/49/67 76/48/67
g Cube_Leafy
f 78/51/68 80/54/68 84/53/68 83/52/68
f 79/37/63 86/56/63 84/55/63 80/36/63
g Cube_Frame
f 97/57/69 89/60/69 90/59/69 98/58/69
f 91/61/70 94/64/70 95/63/70 92/62/70
f 30/65/71 31/66/71 89/60/71 97/57/71
f 90/59/72 96/68/72 99/67/72 98/58/72
f 100/69/73 97/57/73 98/58/73 91/61/73
f 93/70/74 100/69/74 91/61/74 92/62/74
f 35/71/75 43/72/75 100/69/75 93/70/75
f 78/73/76 98/76/76 99/75/76 80/74/76
f 84/77/77 94/79/77 91/76/77 83/78/77
f 76/48/78 93/49/78 92/42/78 68/39/78
f 89/60/79 115/81/79 116/80/79 90/59/79
f 80/36/80 99/86/80 96/4/80 72/1/80
f 73/87/81 95/63/81 94/64/81 84/88/81
f 83/89/82 91/92/82 98/91/82 78/90/82
f 82/93/83 97/96/83 100/95/83 88/94/83
f 101/32/84 102/33/84 104/98/84 103/97/84
f 85/99/85 101/102/85 103/101/85 87/100/85
f 87/103/86 103/106/86 104/105/86 81/104/86
f 81/107/87 104/110/87 102/109/87 77/108/87
f 107/111/88 111/114/88 112/113/88 108/112/88
g Cube_Leafy
f 68/110/37 107/110/37 108/110/37 76/110/37
g Cube_Frame
f 110/115/89 109/117/89 112/101/89 111/116/89
f 105/118/90 109/121/90 110/120/90 106/119/90
f 108/122/91 112/125/91 109/124/91 105/123/91
f 106/126/92 110/128/92 111/127/92 107/122/92
f 114/129/93 116/132/93 115/131/93 113/130/93
f 74/133/94 113/136/94 115/135/94 89/134/94
f 69/137/95 114/140/95 113/139/95 74/138/95
f 90/3/96 116/142/96 114/141/96 69/2/96
g Cube_Leafy
f 117/143/97 3/145/97 61/144/97
g Cube_Frame
f 123/146/98 122/149/98 119/148/98 118/147/98
f 120/150/99 121/151/99 118/147/99 119/148/99
f 117/143/100 61/144/100 122/149/100 123/146/100
f 122/152/89 61/153/89 1/47/89 76/48/89
g Cube_Leafy
f 75/20/101 3/145/101 117/143/101 123/146/101
g Cube_Frame
f 122/154/102 105/157/102 106/156/102 119/155/102
f 118/147/6 85/31/6 87/158/6 123/146/6
g Cube_Leafy
f 119/159/103 106/161/103 107/160/103 68/160/103
g Cube_Frame
f 68/39/104 73/40/104 120/163/104 119/162/104
f 118/147/105 121/151/105 86/38/105 85/31/105
f 86/56/63 121/166/63 120/165/63 73/164/63 84/55/63
g Cube_Leafy
f 76/110/106 108/110/106 105/110/106 122/110/106
l 3 10
