# Blender 5.0.1
# www.blender.org
o Cube
v -0.211332 -0.256541 -0.242102
v -0.287460 -0.068029 -0.286054
v 0.426100 0.031777 0.079732
v 0.320692 0.292794 0.018875
v -0.315332 -0.256541 -0.061968
v -0.391460 -0.068029 -0.105921
v 0.282100 0.031777 0.329147
v 0.176692 0.292794 0.268290
v 0.409376 0.362641 0.039491
v 0.534173 0.053611 0.111542
v 0.363685 0.053611 0.406836
v 0.238888 0.362641 0.334785
v 0.345316 0.330054 -0.000134
v 0.471786 0.016881 0.072883
v 0.299012 0.016881 0.372137
v 0.172542 0.330054 0.299120
v 0.396324 0.368741 0.013781
v 0.532641 0.031183 0.092484
v 0.346414 0.031183 0.415039
v 0.210096 0.368741 0.336336
v 0.400775 0.342570 0.055897
v 0.512024 0.067090 0.120126
v 0.360044 0.067090 0.383363
v 0.248796 0.342570 0.319133
v -0.305843 -0.301940 -0.292048
v -0.379043 -0.120678 -0.334310
v -0.479043 -0.120678 -0.161105
v -0.405843 -0.301940 -0.118843
v -0.222006 -0.275311 -0.259219
v -0.305078 -0.069602 -0.307181
v -0.418566 -0.069602 -0.110615
v -0.335493 -0.275311 -0.062653
v -0.287831 -0.310755 -0.297224
v -0.370904 -0.105045 -0.345185
v -0.484391 -0.105045 -0.148619
v -0.401319 -0.310755 -0.100657
v -0.304683 -0.287057 -0.279384
v -0.370279 -0.124624 -0.317256
v -0.459891 -0.124624 -0.162043
v -0.394295 -0.287057 -0.124171
vn 0.4585 -0.0220 -0.8884
vn -0.9918 -0.0050 -0.1275
vn -0.7097 -0.7037 0.0354
vn -0.5000 -0.7675 0.4011
vn -0.9373 0.3153 0.1487
vn -0.5401 -0.0220 0.8413
vn 0.9170 -0.3540 -0.1837
vn 0.2994 -0.3540 0.8860
vn 0.0864 -0.5278 0.8449
vn 0.7749 -0.5278 -0.3476
vn 0.3247 -0.9271 0.1875
vn -0.4063 0.8831 -0.2346
vn 0.7552 0.6474 0.1028
vn 0.4666 0.6474 0.6026
vn 0.9271 0.2220 0.3021
vn 0.7252 0.2220 0.6518
vn 0.9665 0.1243 0.2247
vn 0.7752 -0.5276 -0.3474
vn 0.2712 0.7203 -0.6384
vn -0.3242 -0.7037 -0.6323
vn -0.6064 -0.0050 -0.7952
vn -0.3399 0.3153 -0.8860
vn 0.0974 -0.7675 -0.6336
vn -0.4173 0.7203 0.5541
vn 0.0867 -0.5276 0.8450
vn 0.6779 0.1243 0.7246
vn 0.7849 0.4226 0.4532
vn 0.5774 0.5880 0.5665
vn 0.7793 0.5880 0.2168
vn -0.8441 -0.3539 -0.4027
vn -0.7708 -0.3539 -0.5296
vn -0.6516 -0.7407 0.1635
vn -0.1842 -0.7407 -0.6461
vn 0.4650 0.7655 -0.4447
vn 0.2709 0.7202 -0.6386
vn -0.7905 -0.4867 -0.3718
vn -0.4459 -0.7635 0.4671
vn -0.9052 0.3739 0.2019
vn -0.2777 0.3739 -0.8849
vn 0.1816 -0.7635 -0.6197
vn -0.4176 0.7202 0.5540
vn -0.7172 -0.4867 -0.4987
vn -0.1527 0.7655 0.6250
vn -0.7849 -0.4226 -0.4532
vn -0.5264 0.1065 -0.8436
vn -0.9937 0.1065 -0.0341
vt 0.046037 0.120130
vt 0.288553 0.120130
vt 0.335190 1.013997
vt -0.000600 1.013997
vt 0.032949 1.383337
vt 0.368739 1.383337
vt 0.402288 1.416885
vt -0.000600 1.416885
vt 0.335190 -0.005965
vt 0.670981 -0.005965
vt 0.624343 0.887902
vt 0.381828 0.887902
vt 0.717618 0.887902
vt 0.960134 0.887902
vt 0.971196 0.916249
vt 0.706556 0.916249
vt 1.006772 -0.005965
vt 1.342562 1.013997
vt 1.006772 1.013997
vt 1.053409 0.120130
vt 1.295925 0.120130
vt 0.402288 1.411555
vt 0.402288 1.013997
vt 0.423868 1.035577
vt 0.423868 1.389975
vt 1.438215 0.012386
vt 1.438215 0.409944
vt 1.415208 0.428294
vt 1.415208 -0.005965
vt 0.368739 1.047546
vt 0.032949 1.047546
vt 0.402288 1.013997
vt 1.438215 0.446645
vt 1.438215 0.844203
vt 1.415208 0.862554
vt 1.415208 0.428294
vt 1.342562 0.412609
vt 1.342562 0.009720
vt 1.438215 0.878239
vt 1.438215 1.281128
vt 1.365570 1.296813
vt 1.365570 0.862554
vt 1.533868 0.009720
vt 1.533868 0.412609
vt 1.461222 0.428294
vt 1.461222 -0.005965
vt 1.342562 0.846868
vt 1.342562 0.443980
vt 1.342562 1.278462
vt 1.342562 0.880904
vt 0.778266 1.389975
vt 0.778266 1.035577
vt 0.799846 1.411555
vt 0.799846 1.013997
vt 1.302963 1.013997
vt 1.302963 1.247185
vt 1.288207 1.235074
vt 1.288207 1.026108
vt 0.034975 0.091783
vt 0.299615 0.091783
vt 0.815572 1.262910
vt 1.048760 1.262910
vt 1.064485 1.278636
vt 0.799846 1.278636
vt 0.815572 1.029723
vt 0.799846 1.013997
vt 0.034975 -0.005965
vt 0.299615 -0.005965
vt 0.971196 1.013997
vt 0.706556 1.013997
vt 1.306986 0.091783
vt 1.042347 0.091783
vt 1.042347 -0.005965
vt 1.306986 -0.005965
vt 0.370766 0.916249
vt 0.635405 0.916249
vt 0.635405 1.013997
vt 0.370766 1.013997
vt 1.048760 1.029723
vt 1.064485 1.013997
vt 1.273451 1.222962
vt 1.064485 1.222962
vt 1.273451 1.013997
vt 1.273451 1.247185
vt 1.273451 1.013997
vt 1.288207 1.026108
vt 1.302963 1.247185
vt 1.302963 1.013997
vt 1.317719 1.026108
vt 1.317719 1.235074
vt 1.332475 1.013997
vt 1.332475 1.247185
vt 1.317719 1.235074
s 0
g Cube_Frame
f 1/1/1 2/2/1 4/3/1 3/4/1
s 1
g Cube_Trim
f 8/5/2 7/6/3 15/7/4 16/8/5
s 0
g Cube_Frame
f 7/9/6 8/10/6 6/11/6 5/12/6
s 1
g Cube_Trim
f 1/13/7 5/14/8 32/15/9 29/16/10
s 0
g Cube_Frame
f 3/10/11 7/17/11 5/14/11 1/13/11
f 8/18/12 4/19/12 2/20/12 6/21/12
s 1
g Cube_Trim
f 9/22/13 12/23/14 24/24/15 21/25/16
f 9/26/13 10/27/17 18/28/18 17/29/19
f 3/30/20 4/31/21 13/4/22 14/32/23
f 12/33/14 9/34/13 17/35/19 20/36/24
f 14/37/23 13/38/22 17/29/19 18/28/18
f 16/39/5 15/40/4 19/41/25 20/42/24
f 15/43/4 14/44/23 18/45/18 19/46/25
f 13/47/22 16/48/5 20/36/24 17/35/19
f 11/49/26 12/50/14 20/42/24 19/41/25
f 7/6/3 3/30/20 14/32/23 15/7/4
f 10/27/17 11/26/26 19/46/25 18/45/18
f 4/31/21 8/5/2 16/8/5 13/4/22
s 0
g Cube_Glass
f 22/51/27 21/25/27 24/24/27 23/52/27
s 1
g Cube_Trim
f 10/53/17 9/22/13 21/25/16 22/51/28
f 12/23/14 11/54/26 23/52/29 24/24/15
f 11/54/26 10/53/17 22/51/28 23/52/29
f 27/55/30 26/56/31 38/57/32 39/58/33
f 2/2/34 1/1/7 29/59/10 30/60/35
f 27/61/30 28/62/36 36/63/37 35/64/38
f 26/65/31 27/61/30 35/64/38 34/66/39
f 30/60/35 29/59/10 33/67/40 34/68/39
f 29/16/10 32/15/9 36/69/37 33/70/40
f 31/71/41 30/72/35 34/73/39 35/74/38
f 32/75/9 31/76/41 35/77/38 36/78/37
f 28/62/36 25/79/42 33/80/40 36/63/37
f 25/79/42 26/65/31 34/66/39 33/80/40
f 6/21/43 2/20/34 30/72/35 31/71/41
f 5/12/8 6/11/43 31/76/41 32/75/9
s 0
g Cube_Glass
f 40/81/44 39/82/44 38/80/44 37/83/44
s 1
g Cube_Trim
f 28/84/36 27/85/30 39/86/33 40/57/45
f 25/87/42 28/88/36 40/89/45 37/90/46
f 26/91/31 25/92/42 37/93/46 38/89/32
