# Blender 5.0.1
# www.blender.org
o Shroom
v 0.108712 -0.045848 -0.289995
v -0.050000 0.100000 0.050000
v 0.289995 -0.045848 -0.108712
v -0.050000 0.100000 -0.050000
v 0.289995 -0.045848 0.108712
v 0.050000 0.100000 0.050000
v 0.108712 -0.045848 0.289995
v 0.050000 0.100000 -0.050000
v 0.121087 -0.034842 0.323006
v 0.323006 -0.034842 0.121087
v 0.323006 -0.034842 -0.121087
v 0.121087 -0.034842 -0.323006
v -0.323006 -0.034842 0.121087
v -0.121087 -0.034842 0.323006
v -0.121087 -0.034842 -0.323006
v -0.323006 -0.034842 -0.121087
v -0.236728 0.042507 0.045224
v -0.045224 0.042507 0.236728
v -0.136670 0.073315 0.136670
v -0.045224 0.042507 -0.236728
v -0.236728 0.042507 -0.045224
v -0.136670 0.073315 -0.136670
v 0.045224 0.042507 0.236728
v 0.236728 0.042507 0.045224
v 0.136670 0.073315 0.136670
v 0.236728 0.042507 -0.045224
v 0.045224 0.042507 -0.236728
v 0.136670 0.073315 -0.136670
v -0.306346 0.002171 -0.114842
v -0.114842 0.002171 -0.306346
v -0.191791 0.026346 -0.191791
v -0.114842 0.002171 0.306346
v -0.306346 0.002171 0.114842
v -0.191791 0.026346 0.191791
v 0.114842 0.002171 -0.306346
v 0.306346 0.002171 -0.114842
v 0.191791 0.026346 -0.191791
v 0.306346 0.002171 0.114842
v 0.114842 0.002171 0.306346
v 0.191791 0.026346 0.191791
v -0.289995 -0.045848 0.108712
v -0.108712 -0.045848 0.289995
v -0.108712 -0.045848 -0.289995
v -0.289995 -0.045848 -0.108712
v 0.096782 -0.034757 -0.258172
v 0.258172 -0.034757 -0.096782
v 0.258172 -0.034757 0.096782
v 0.096782 -0.034757 0.258172
v -0.258172 -0.034757 0.096782
v -0.096782 -0.034757 0.258172
v -0.096782 -0.034757 -0.258172
v -0.258172 -0.034757 -0.096782
v 0.022859 -0.021002 -0.069539
v 0.063416 -0.021002 -0.028982
v 0.063416 -0.021002 0.019660
v 0.022859 -0.021002 0.060216
v -0.066339 -0.021002 0.019660
v -0.025783 -0.021002 0.060216
v -0.025783 -0.021002 -0.069539
v -0.066339 -0.021002 -0.028982
v 0.022859 -0.500000 -0.069539
v 0.063416 -0.500000 -0.028982
v 0.063416 -0.500000 0.019660
v 0.022859 -0.500000 0.060216
v -0.066339 -0.500000 0.019660
v -0.025783 -0.500000 0.060216
v -0.025783 -0.500000 -0.069539
v -0.066339 -0.500000 -0.028982
vn -0.0294 0.9976 0.0630
vn -0.1124 0.9873 0.1124
vn -0.0630 0.9976 0.0294
vn -0.1124 0.9873 -0.1124
vn -0.0630 0.9976 -0.0294
vn 0.1124 0.9873 0.1124
vn -0.0294 0.9976 -0.0630
vn 0.1124 0.9873 -0.1124
vn 0.1671 0.8986 0.4057
vn 0.4057 0.8986 0.1671
vn 0.4057 0.8986 -0.1671
vn 0.1671 0.8986 -0.4057
vn -0.4057 0.8986 0.1671
vn -0.1671 0.8986 0.4057
vn -0.1671 0.8986 -0.4057
vn -0.4057 0.8986 -0.1671
vn -0.4025 0.9134 0.0604
vn -0.0604 0.9134 0.4025
vn -0.2279 0.9467 0.2279
vn -0.0604 0.9134 -0.4025
vn -0.4025 0.9134 -0.0604
vn -0.2279 0.9467 -0.2279
vn 0.0604 0.9134 0.4025
vn 0.4025 0.9134 0.0604
vn 0.2279 0.9467 0.2279
vn 0.4025 0.9134 -0.0604
vn 0.0604 0.9134 -0.4025
vn 0.2279 0.9467 -0.2279
vn -0.7017 0.6520 -0.2871
vn -0.2871 0.6520 -0.7017
vn -0.3853 0.8385 -0.3853
vn -0.2871 0.6520 0.7017
vn -0.7017 0.6520 0.2871
vn -0.3853 0.8385 0.3853
vn 0.2871 0.6520 -0.7017
vn 0.7017 0.6520 -0.2871
vn 0.3853 0.8385 -0.3853
vn 0.7017 0.6520 0.2871
vn 0.2871 0.6520 0.7017
vn 0.3853 0.8385 0.3853
vn 0.0630 0.9976 -0.0294
vn 0.0294 0.9976 -0.0630
vn 0.0294 0.9976 0.0630
vn 0.0630 0.9976 0.0294
vn 0.0863 0.9755 -0.2024
vn 0.2021 0.9756 -0.0859
vn 0.2016 0.9757 0.0860
vn 0.0858 0.9757 0.2015
vn -0.2019 0.9756 0.0861
vn -0.0858 0.9757 0.2016
vn -0.0862 0.9755 -0.2025
vn -0.2024 0.9755 -0.0861
vn -0.2134 0.8294 0.5163
vn -0.5171 0.8290 0.2129
vn -0.5173 0.8286 -0.2139
vn -0.2137 0.8284 -0.5177
vn 0.5169 0.8289 -0.2139
vn 0.2133 0.8286 -0.5177
vn 0.2130 0.8296 0.5162
vn 0.5166 0.8294 0.2128
vn -0.2971 0.6303 0.7173
vn -0.7173 0.6303 0.2971
vn -0.7173 0.6303 -0.2971
vn -0.2971 0.6303 -0.7173
vn 0.7173 0.6303 -0.2971
vn 0.2971 0.6303 -0.7173
vn 0.2971 0.6303 0.7173
vn 0.7173 0.6303 0.2971
vt 0.025602 0.721431
vt 0.025602 0.290843
vt 0.075418 0.311688
vt 0.075418 0.695024
vt 0.972506 0.278544
vt 0.918411 0.300739
vt 0.688559 0.073844
vt 0.714322 0.023680
vt -0.030416 0.744549
vt -0.030416 0.264946
vt 0.714322 0.970702
vt 0.972506 0.709132
vt 1.024278 0.730850
vt 0.736703 1.022196
vt 0.257159 -0.026400
vt 0.283787 0.029272
vt 1.505551 0.333199
vt 1.624297 0.450419
vt 1.505551 0.570722
vt 1.386804 0.453503
vt 0.257159 1.028424
vt 0.283787 0.976294
vt 0.736703 -0.032628
vt 0.305270 0.921919
vt 0.688559 0.916941
vt 0.918411 0.684075
vt 1.024278 0.251247
vt 1.582058 1.324415
vt 1.545171 0.995709
vt 1.610948 0.973697
vt 1.649840 1.320279
vt 1.649841 1.710912
vt 1.686727 1.324415
vt 1.754509 1.320279
vt 1.715617 1.727795
vt 1.649841 0.995709
vt 1.715617 0.973697
vt 0.006471 1.379142
vt -0.030416 1.050436
vt 0.035361 1.028424
vt 0.074253 1.375006
vt 0.415226 1.028424
vt 0.472987 1.085442
vt 0.472987 1.181773
vt 0.415226 1.240291
vt 0.318907 1.241542
vt 0.261146 1.184524
vt 0.261146 1.088193
vt 0.318907 1.029675
vt -0.030416 1.765639
vt 0.035361 1.782521
vt 1.545171 1.710912
vt 1.610948 1.727795
vt 1.510699 0.132405
vt 1.519761 0.010396
vt 1.751830 -0.032628
vt 1.744047 0.125072
vt 1.289238 0.130980
vt 1.297020 -0.026721
vt 1.975252 0.460029
vt 2.024572 0.236605
vt 2.024572 0.691472
vt 1.519761 0.921493
vt 1.751830 0.967790
vt 1.297020 0.973697
vt 1.064269 0.471861
vt 1.024277 0.704464
vt 1.024278 0.249597
vt 1.510699 0.781650
vt 1.744048 0.794773
vt 1.289238 0.800680
vt 1.186117 0.461243
vt 1.181834 0.694658
vt 1.181834 0.239792
vt 1.851452 0.685961
vt 1.835281 0.452812
vt 1.851451 0.231095
vt 0.140030 1.028424
vt 0.178922 1.375006
vt 0.111139 1.379142
vt 0.074253 1.050436
vt 0.074253 1.765639
vt 0.140030 1.782521
vt 0.305270 0.078822
vt 0.549691 0.596684
vt 0.607452 0.538166
vt 0.607452 0.441835
vt 0.549691 0.384817
vt 0.453372 0.386068
vt 0.395611 0.444586
vt 0.395611 0.540917
vt 0.453372 0.597935
vt 1.325836 0.973697
vt 1.325836 1.765348
vt 1.243613 1.765348
vt 1.243613 0.973697
vt 1.175057 0.973697
vt 1.243613 0.988087
vt 1.243613 1.779738
vt 1.175057 1.765348
vt 1.092834 1.765348
vt 1.092834 0.973697
vt 1.024278 0.988087
vt 1.024278 1.779738
vt 1.545172 0.973697
vt 1.545172 1.765348
vt 1.462948 1.765348
vt 1.462948 0.973697
vt 1.394392 0.988087
vt 1.394392 1.779738
vt 0.261146 1.028424
vt 0.261146 1.820075
vt 0.178922 1.820075
vt 0.178922 1.028424
s 1
g Shroom_Cap
f 7/1/7 5/2/5 47/3/47 48/4/48
f 43/5/43 51/6/51 45/7/45 1/8/1
f 9/9/9 10/10/10 5/2/5 7/1/7
f 41/11/41 44/12/44 16/13/16 13/14/13
f 10/10/10 11/15/11 3/16/3 5/2/5
f 8/17/8 4/18/4 2/19/2 6/20/6
f 14/21/14 9/9/9 7/1/7 42/22/42
f 11/15/11 12/23/12 1/8/1 3/16/3
f 41/11/41 42/22/42 50/24/50 49/25/49
f 41/11/41 49/25/49 52/26/52 44/12/44
f 15/27/15 16/13/16 44/12/44 43/5/43
f 12/23/12 15/27/15 43/5/43 1/8/1
f 13/14/13 14/21/14 42/22/42 41/11/41
f 38/28/38 39/29/39 9/30/9 10/31/10
f 33/32/33 29/33/29 16/34/16 13/35/13
f 29/33/29 30/36/30 15/37/15 16/34/16
f 35/38/35 36/39/36 11/40/11 12/41/12
g Shroom_Stem
f 61/42/61 67/43/67 68/44/68 65/45/65 66/46/66 64/47/64 63/48/63 62/49/62
g Shroom_Cap
f 30/50/30 35/38/35 12/41/12 15/51/15
f 36/52/36 38/28/38 10/31/10 11/53/11
f 28/54/28 37/55/37 35/56/35 27/57/27
f 37/55/37 28/54/28 26/58/26 36/59/36
f 31/60/31 30/61/30 29/62/29
f 34/63/34 33/64/33 32/65/32
f 37/55/37 36/59/36 35/56/35
f 40/66/40 39/67/39 38/68/38
f 19/69/19 17/70/17 33/64/33 34/63/34
f 18/71/18 19/69/19 34/63/34 32/65/32
f 25/72/25 23/73/23 39/67/39 40/66/40
f 24/74/24 25/72/25 40/66/40 38/68/38
f 17/70/17 21/75/21 29/62/29 33/64/33
f 17/70/17 19/69/19 2/19/2 4/18/4 22/76/22 21/75/21
f 23/73/23 25/72/25 6/20/6 2/19/2 19/69/19 18/71/18
f 23/73/23 18/71/18 32/65/32 39/67/39
f 20/77/20 22/76/22 4/18/4 8/17/8 28/54/28 27/57/27
f 20/77/20 27/57/27 35/56/35 30/61/30
f 26/58/26 24/74/24 38/68/38 36/59/36
f 26/58/26 28/54/28 8/17/8 6/20/6 25/72/25 24/74/24
f 13/78/13 14/79/14 32/80/32 33/81/33
f 39/82/39 32/80/32 14/79/14 9/83/9
f 22/76/22 20/77/20 30/61/30 31/60/31
f 22/76/22 31/60/31 29/62/29 21/75/21
f 3/16/3 1/8/1 45/7/45 46/84/46
f 3/16/3 46/84/46 47/3/47 5/2/5
f 7/1/7 48/4/48 50/24/50 42/22/42
f 43/5/43 44/12/44 52/26/52 51/6/51
g Shroom_Stem
f 49/25/49 57/85/57 60/86/60 52/26/52
f 51/6/51 52/26/52 60/86/60 59/87/59
f 51/6/51 59/87/59 53/88/53 45/7/45
f 46/84/46 45/7/45 53/88/53 54/89/54
f 46/84/46 54/89/54 55/90/55 47/3/47
f 48/4/48 47/3/47 55/90/55 56/91/56
f 48/4/48 56/91/56 58/92/58 50/24/50
f 49/25/49 50/24/50 58/92/58 57/85/57
f 57/93/57 65/94/65 68/95/68 60/96/60
f 59/97/59 60/98/60 68/99/68 67/100/67
f 59/97/59 67/100/67 61/101/61 53/102/53
f 54/103/54 53/102/53 61/101/61 62/104/62
f 54/105/54 62/106/62 63/107/63 55/108/55
f 56/109/56 55/108/55 63/107/63 64/110/64
f 56/111/56 64/112/64 66/113/66 58/114/58
f 57/93/57 58/109/58 66/110/66 65/94/65
